<svg id="グループ_14044" data-name="グループ 14044" xmlns="http://www.w3.org/2000/svg" width="50.143" height="39" viewBox="0 0 50.143 39">
  <ellipse id="楕円形_1" data-name="楕円形 1" cx="5.083" cy="7.624" rx="5.083" ry="7.624" transform="translate(26.14 0)" fill="#db7d2d"/>
  <ellipse id="楕円形_3" data-name="楕円形 3" cx="5.104" cy="6.465" rx="5.104" ry="6.465" transform="translate(40.197 7.662) rotate(13)" fill="#db7d2d"/>
  <ellipse id="楕円形_4" data-name="楕円形 4" cx="5.104" cy="6.465" rx="5.104" ry="6.465" transform="translate(12.854 20.26) rotate(167)" fill="#db7d2d"/>
  <ellipse id="楕円形_2" data-name="楕円形 2" cx="5.718" cy="7.624" rx="5.718" ry="7.624" transform="translate(12.298 0)" fill="#db7d2d"/>
  <path id="合体_2" data-name="合体 2" d="M0,14.111c0-3.511,2.856-6.6,7.181-8.393a9.481,9.481,0,0,1,17.4,0c4.325,1.792,7.181,4.882,7.181,8.393,0,5.54-7.111,10.031-15.883,10.031S0,19.652,0,14.111Z" transform="translate(9.673 14.857)" fill="#db7d2d"/>
</svg>
