<svg xmlns="http://www.w3.org/2000/svg" width="120" height="120" viewBox="0 0 120 120">
  <g id="グループ_14031" data-name="グループ 14031" transform="translate(-284 -2188)">
    <circle id="楕円形_10" data-name="楕円形 10" cx="60" cy="60" r="60" transform="translate(284 2188)" fill="#fff"/>
    <path id="パス_20568" data-name="パス 20568" d="M69,20.645H48.876v-1.41a3.453,3.453,0,0,0-3.469-3.429h-1.2a3.454,3.454,0,0,0-3.469,3.429v1.41H37.686V8.2a2.385,2.385,0,0,1,.726-1.7,2.246,2.246,0,0,1,1.6-.648,2.282,2.282,0,0,1,2.247,2.259v2.131a2.3,2.3,0,0,0,2.308,2.281h1.3a2.3,2.3,0,0,0,2.308-2.281v-2A8.223,8.223,0,0,0,34.241,2.311a8,8,0,0,0-2.475,5.8V20.645h-2.5v-1.41a3.453,3.453,0,0,0-3.469-3.429h-1.2a3.453,3.453,0,0,0-3.469,3.429v1.41H1a1,1,0,0,0-1,.993v6.748a1,1,0,0,0,1,.993H3.623V61.008a1,1,0,0,0,1,.993H65.372a1,1,0,0,0,1-.993V29.379H69a1,1,0,0,0,1-.993V21.638a1,1,0,0,0-1-.993m-26.25-1.41a1.454,1.454,0,0,1,1.461-1.443h1.2a1.454,1.454,0,0,1,1.46,1.443v1.41H42.746Zm3.125-8.7h-1.3a.3.3,0,0,1-.3-.3V9.77h1.9v.472a.3.3,0,0,1-.3.3m-12.1-2.426a6.044,6.044,0,0,1,1.87-4.381,6.2,6.2,0,0,1,10.5,4.054h-1.9a4.294,4.294,0,0,0-4.206-3.918A4.217,4.217,0,0,0,37,5.084,4.372,4.372,0,0,0,35.677,8.2V20.645h-1.9ZM23.133,19.235a1.454,1.454,0,0,1,1.461-1.443h1.2a1.454,1.454,0,0,1,1.461,1.443v1.41H23.133ZM5.632,29.379H40.4V60.015H5.632ZM64.368,48.839H42.406V40.554H64.368ZM42.407,50.825H64.368v9.19H42.407ZM64.368,38.569H42.406v-9.19H64.368Zm3.623-11.175H2.009V22.63H67.991Z" transform="translate(309 2217)" fill="#212121"/>
  </g>
</svg>
