<svg xmlns="http://www.w3.org/2000/svg" width="174.97" height="141.61" viewBox="0 0 174.97 141.61">
  <g id="グループ_14042" data-name="グループ 14042" transform="translate(-296.968 -1131.264)">
    <g id="グループ_2" data-name="グループ 2" transform="translate(352.581 1235.417) rotate(-30)">
      <ellipse id="楕円形_1" data-name="楕円形 1" cx="4" cy="6" rx="4" ry="6" transform="translate(20.779 0)" fill="#db7d2d"/>
      <ellipse id="楕円形_3" data-name="楕円形 3" cx="4.017" cy="5.088" rx="4.017" ry="5.088" transform="translate(31.952 6.128) rotate(13)" fill="#db7d2d"/>
      <ellipse id="楕円形_4" data-name="楕円形 4" cx="4.017" cy="5.088" rx="4.017" ry="5.088" transform="translate(10.116 16.042) rotate(167)" fill="#db7d2d"/>
      <ellipse id="楕円形_2" data-name="楕円形 2" cx="4.5" cy="6" rx="4.5" ry="6" transform="translate(9.779 0)" fill="#db7d2d"/>
      <path id="合体_2" data-name="合体 2" d="M0,11.106C0,8.343,2.248,5.911,5.651,4.5a7.461,7.461,0,0,1,13.7,0C22.752,5.911,25,8.343,25,11.106,25,15.466,19.4,19,12.5,19S0,15.466,0,11.106Z" transform="translate(7.779 12)" fill="#db7d2d"/>
    </g>
    <g id="グループ_3" data-name="グループ 3" transform="translate(359.532 1168.857) rotate(-30)">
      <ellipse id="楕円形_1-2" data-name="楕円形 1" cx="4" cy="6" rx="4" ry="6" transform="translate(20.779 0)" fill="#db7d2d"/>
      <ellipse id="楕円形_3-2" data-name="楕円形 3" cx="4.017" cy="5.088" rx="4.017" ry="5.088" transform="translate(31.952 6.128) rotate(13)" fill="#db7d2d"/>
      <ellipse id="楕円形_4-2" data-name="楕円形 4" cx="4.017" cy="5.088" rx="4.017" ry="5.088" transform="translate(10.116 16.042) rotate(167)" fill="#db7d2d"/>
      <ellipse id="楕円形_2-2" data-name="楕円形 2" cx="4.5" cy="6" rx="4.5" ry="6" transform="translate(9.779 0)" fill="#db7d2d"/>
      <path id="合体_2-2" data-name="合体 2" d="M0,11.106C0,8.343,2.248,5.911,5.651,4.5a7.461,7.461,0,0,1,13.7,0C22.752,5.911,25,8.343,25,11.106,25,15.466,19.4,19,12.5,19S0,15.466,0,11.106Z" transform="translate(7.779 12)" fill="#db7d2d"/>
    </g>
    <g id="グループ_4" data-name="グループ 4" transform="translate(293 1145.653) rotate(-30)">
      <ellipse id="楕円形_1-3" data-name="楕円形 1" cx="4" cy="6" rx="4" ry="6" transform="translate(20.779 0)" fill="#db7d2d"/>
      <ellipse id="楕円形_3-3" data-name="楕円形 3" cx="4.017" cy="5.088" rx="4.017" ry="5.088" transform="translate(31.952 6.128) rotate(13)" fill="#db7d2d"/>
      <ellipse id="楕円形_4-3" data-name="楕円形 4" cx="4.017" cy="5.088" rx="4.017" ry="5.088" transform="translate(10.116 16.042) rotate(167)" fill="#db7d2d"/>
      <ellipse id="楕円形_2-3" data-name="楕円形 2" cx="4.5" cy="6" rx="4.5" ry="6" transform="translate(9.779 0)" fill="#db7d2d"/>
      <path id="合体_2-3" data-name="合体 2" d="M0,11.106C0,8.343,2.248,5.911,5.651,4.5a7.461,7.461,0,0,1,13.7,0C22.752,5.911,25,8.343,25,11.106,25,15.466,19.4,19,12.5,19S0,15.466,0,11.106Z" transform="translate(7.779 12)" fill="#db7d2d"/>
    </g>
    <g id="グループ_5" data-name="グループ 5" transform="translate(428.05 1249.917) rotate(-30)">
      <ellipse id="楕円形_1-4" data-name="楕円形 1" cx="4" cy="6" rx="4" ry="6" transform="translate(20.779 0)" fill="#db7d2d"/>
      <ellipse id="楕円形_3-4" data-name="楕円形 3" cx="4.017" cy="5.088" rx="4.017" ry="5.088" transform="translate(31.952 6.128) rotate(13)" fill="#db7d2d"/>
      <ellipse id="楕円形_4-4" data-name="楕円形 4" cx="4.017" cy="5.088" rx="4.017" ry="5.088" transform="translate(10.116 16.042) rotate(167)" fill="#db7d2d"/>
      <ellipse id="楕円形_2-4" data-name="楕円形 2" cx="4.5" cy="6" rx="4.5" ry="6" transform="translate(9.779 0)" fill="#db7d2d"/>
      <path id="合体_2-4" data-name="合体 2" d="M0,11.106C0,8.343,2.248,5.911,5.651,4.5a7.461,7.461,0,0,1,13.7,0C22.752,5.911,25,8.343,25,11.106,25,15.466,19.4,19,12.5,19S0,15.466,0,11.106Z" transform="translate(7.779 12)" fill="#db7d2d"/>
    </g>
  </g>
</svg>
