<svg xmlns="http://www.w3.org/2000/svg" xmlns:xlink="http://www.w3.org/1999/xlink" width="120" height="120" viewBox="0 0 120 120">
  <defs>
    <clipPath id="clip-path">
      <rect id="長方形_6784" data-name="長方形 6784" width="55" height="64" fill="#212121"/>
    </clipPath>
  </defs>
  <g id="グループ_14034" data-name="グループ 14034" transform="translate(-402 -2295)">
    <circle id="楕円形_11" data-name="楕円形 11" cx="60" cy="60" r="60" transform="translate(402 2295)" fill="#fff"/>
    <g id="グループ_12442" data-name="グループ 12442" transform="translate(435 2323)" clip-path="url(#clip-path)">
      <path id="パス_20569" data-name="パス 20569" d="M54.529,0H50.044l-.016,0a.9.9,0,0,0-.162.016l-.032.008a.885.885,0,0,0-.122.038l-.05.021a.909.909,0,0,0-.1.055c-.013.008-.026.015-.038.024a.918.918,0,0,0-.119.1L46.823,2.785H8.62L6.039.261a.923.923,0,0,0-.119-.1C5.908.156,5.9.149,5.883.141a1.009,1.009,0,0,0-.1-.056L5.731.064A.927.927,0,0,0,5.607.026L5.577.018A.911.911,0,0,0,5.414,0H.915A.914.914,0,0,0,0,.914V62.787a.914.914,0,0,0,.915.914H5.4a.918.918,0,0,0,.176-.018.838.838,0,0,0,.087-.026c.028-.008.055-.014.082-.025a.88.88,0,0,0,.09-.047c.022-.012.046-.022.067-.036a.843.843,0,0,0,.088-.07c.016-.013.033-.024.048-.038l2.577-2.521H46.827L49.4,63.44c.015.014.032.025.047.038a.9.9,0,0,0,.089.071c.021.014.044.023.065.035a.909.909,0,0,0,.091.048c.026.011.053.017.08.025a.878.878,0,0,0,.089.026.907.907,0,0,0,.172.017h4.49a.914.914,0,0,0,.915-.914V.914A.914.914,0,0,0,54.529,0m-5.4,60.613-7.623-7.455V10.543L49.13,3.088Zm-4.176-56-5,4.892a.915.915,0,0,0-.275.653v4.014H15.766V10.159a.914.914,0,0,0-.275-.653l-5-4.892ZM32.445,21.993h.062a1.464,1.464,0,0,1,1.462,1.462V37.49a1.464,1.464,0,0,1-1.462,1.462h-.062a1.464,1.464,0,0,1-1.462-1.462V23.454a1.464,1.464,0,0,1,1.462-1.462m-9.508,0H23a1.464,1.464,0,0,1,1.463,1.462V37.49A1.464,1.464,0,0,1,23,38.952h-.061a1.464,1.464,0,0,1-1.463-1.462V23.454a1.464,1.464,0,0,1,1.463-1.462M1.829,1.828H4.484V61.873H1.829Zm4.484,1.26,7.623,7.455V53.158L6.314,60.613Zm4.172,56,5.006-4.9a.913.913,0,0,0,.275-.653V16h6.286v4.288a3.293,3.293,0,0,0-2.408,3.166V37.49a3.3,3.3,0,0,0,3.292,3.29H23a3.3,3.3,0,0,0,3.292-3.29V23.454a3.293,3.293,0,0,0-2.408-3.166V16h7.679v4.288a3.293,3.293,0,0,0-2.408,3.166V37.49a3.294,3.294,0,0,0,3.292,3.29h.062A3.294,3.294,0,0,0,35.8,37.49V23.454a3.293,3.293,0,0,0-2.408-3.166V16h6.286V53.542a.914.914,0,0,0,.275.653l5.006,4.9Zm43.128,2.782H50.959V1.828h2.655Z" fill="#212121"/>
      <rect id="長方形_6782" data-name="長方形 6782" width="3.197" height="1.828" transform="translate(9.482 30.936)" fill="#212121"/>
      <rect id="長方形_6783" data-name="長方形 6783" width="3.197" height="1.828" transform="translate(42.765 30.936)" fill="#212121"/>
    </g>
  </g>
</svg>
