<svg xmlns="http://www.w3.org/2000/svg" width="120" height="120" viewBox="0 0 120 120">
  <g id="グループ_14028" data-name="グループ 14028" transform="translate(-314 -1950)">
    <circle id="楕円形_7" data-name="楕円形 7" cx="60" cy="60" r="60" transform="translate(314 1950)" fill="#fff"/>
    <g id="グループ_12441" data-name="グループ 12441" transform="translate(-228.346 -335.516)">
      <path id="パス_20565" data-name="パス 20565" d="M20.255,78.02s6.123-10.205,0-23.91-7.564-21.789,2.721-32.366C30.5,14,33.546,1.384,26.67.459s-6.415,8.388-6.415,8.388" transform="translate(579.025 2306.121)" fill="none" stroke="#212121" stroke-linecap="round" stroke-miterlimit="10" stroke-width="2"/>
      <path id="パス_20566" data-name="パス 20566" d="M9.632,86.352s2.1-14.59-3.816-22.011-8.176-20.25,0-27.042" transform="translate(584.846 2291.754)" fill="none" stroke="#212121" stroke-linecap="round" stroke-miterlimit="10" stroke-width="2"/>
      <path id="パス_20567" data-name="パス 20567" d="M34.874,89.16s4.78-6.037,0-18.615-4.657-19.722,1.772-23.5,10.932,1.862,10.932,5.886-4.1,9.811-9.093,7.421" transform="translate(572.768 2288.443)" fill="none" stroke="#212121" stroke-linecap="round" stroke-miterlimit="10" stroke-width="2"/>
    </g>
  </g>
</svg>
