<svg xmlns="http://www.w3.org/2000/svg" width="28.567" height="24.521" viewBox="0 0 28.567 24.521">
  <g id="グループ_18986" data-name="グループ 18986" transform="translate(0.302 0.271)">
    <path id="パス_21268" data-name="パス 21268" d="M28.141,14.5a.921.921,0,0,1-.543-.182L15.04,5.137,2.483,14.315a.922.922,0,0,1-1.238-.267A.974.974,0,0,1,1.4,12.763L14.5,3.182a.918.918,0,0,1,1.085,0l13.1,9.581a.971.971,0,0,1,.342,1.068A.938.938,0,0,1,28.141,14.5ZM4.747,8.748a.947.947,0,0,1-.936-.958V3.958A.947.947,0,0,1,4.747,3H8.49a.958.958,0,0,1,0,1.916H5.683V7.79A.947.947,0,0,1,4.747,8.748Z" transform="translate(-1.07 -3)" fill="#fff" stroke="#fff" stroke-width="0.5"/>
    <path id="パス_21269" data-name="パス 21269" d="M23.534,28.413H18.883a.944.944,0,0,1-.93-.958V20.748H12.372v6.707a.944.944,0,0,1-.93.958H6.791A2.833,2.833,0,0,1,4,25.539V15.958a.931.931,0,1,1,1.86,0v9.581a.944.944,0,0,0,.93.958h3.721V19.79a.944.944,0,0,1,.93-.958h7.442a.944.944,0,0,1,.93.958V26.5h3.721a.944.944,0,0,0,.93-.958V15.958a.931.931,0,1,1,1.86,0v9.581a2.833,2.833,0,0,1-2.791,2.874Z" transform="translate(-1.193 -4.413)" fill="#fff" stroke="#fff" stroke-width="0.5"/>
  </g>
</svg>
