<svg xmlns="http://www.w3.org/2000/svg" width="29" height="21" viewBox="0 0 29 21">
  <g id="グループ_18984" data-name="グループ 18984" transform="translate(-1 -5)">
    <path id="パス_106158" data-name="パス 106158" d="M12,11H6a1,1,0,1,0,0,2h6a1,1,0,1,0,0-2Zm0,4H6a1,1,0,1,0,0,2h6a1,1,0,1,0,0-2Zm0,4H6a1,1,0,1,0,0,2h6a1,1,0,1,0,0-2Z" transform="translate(-0.003 -0.497)" fill="#fff"/>
    <path id="パス_106159" data-name="パス 106159" d="M28.067,5h-8.7A4.854,4.854,0,0,0,15.5,6.909,4.854,4.854,0,0,0,11.633,5h-8.7A1.921,1.921,0,0,0,1,6.909V24.091A1.921,1.921,0,0,0,2.933,26h11.6a1.952,1.952,0,0,0,.967-.267,1.952,1.952,0,0,0,.967.267h11.6A1.921,1.921,0,0,0,30,24.091V6.909A1.921,1.921,0,0,0,28.067,5ZM2.933,24.091V6.909h8.7a2.882,2.882,0,0,1,2.9,2.864V24.091Zm25.133,0h-11.6V9.773a2.882,2.882,0,0,1,2.9-2.864h8.7Z" fill="#fff"/>
    <path id="パス_106160" data-name="パス 106160" d="M19,12a1,1,0,0,0,1,1h6a1,1,0,1,0,0-2H20A1,1,0,0,0,19,12Zm7,3H20a1,1,0,1,0,0,2h6a1,1,0,1,0,0-2Zm0,4H20a1,1,0,1,0,0,2h6a1,1,0,1,0,0-2Z" transform="translate(-0.992 -0.497)" fill="#fff"/>
  </g>
</svg>
