<svg xmlns="http://www.w3.org/2000/svg" xmlns:xlink="http://www.w3.org/1999/xlink" width="321" height="200" viewBox="0 0 321 200">
  <defs>
    <clipPath id="clip-path">
      <rect id="長方形_6835" data-name="長方形 6835" width="171" height="92" transform="translate(131 125)" fill="#212121" stroke="rgba(0,0,0,0)" stroke-width="1"/>
    </clipPath>
    <clipPath id="clip-path-2">
      <path id="パス_109564" data-name="パス 109564" d="M0,0H87V92H0Z" transform="translate(126 252)" fill="none" stroke="rgba(0,0,0,0)" stroke-width="1"/>
    </clipPath>
    <clipPath id="clip-path-3">
      <path id="パス_109562" data-name="パス 109562" d="M0,0H166V55H0Z" transform="translate(278 289)" fill="none" stroke="rgba(0,0,0,0)" stroke-width="1"/>
    </clipPath>
  </defs>
  <g id="グループ_14024" data-name="グループ 14024" transform="translate(-120 -144)">
    <g id="マスクグループ_58" data-name="マスクグループ 58" transform="translate(-11 19)" clip-path="url(#clip-path)">
      <path id="パス_109561" data-name="パス 109561" d="M41.7,1.9A31.957,31.957,0,0,1,29-.5a26.342,26.342,0,0,1-9.55-6.9,30.192,30.192,0,0,1-6-11A48.437,48.437,0,0,1,11.4-33a59.322,59.322,0,0,1,1.35-12.35A67.956,67.956,0,0,1,16.8-58a60.411,60.411,0,0,1,6.75-11.85A52.109,52.109,0,0,1,33-79.75a42.288,42.288,0,0,1,12.1-6.8A42.509,42.509,0,0,1,59.8-89a41,41,0,0,1,10.05,1.15A26.083,26.083,0,0,1,78-84.3a23.434,23.434,0,0,1,6.2,6.1,1.962,1.962,0,0,1,.35,2.05A5.991,5.991,0,0,1,82.7-74.3,5.473,5.473,0,0,1,80.4-73a2.78,2.78,0,0,1-2.3-1,21.964,21.964,0,0,0-4.95-3.55,24.159,24.159,0,0,0-6.3-2.2,40.255,40.255,0,0,0-8.25-.75,29.186,29.186,0,0,0-10.7,1.95,33.71,33.71,0,0,0-9.2,5.4,45.037,45.037,0,0,0-7.55,7.95,50.177,50.177,0,0,0-5.65,9.7A56.089,56.089,0,0,0,22-44.85,49.45,49.45,0,0,0,20.8-34.2a48.436,48.436,0,0,0,1.35,12.1,22.935,22.935,0,0,0,4.1,8.65,16.828,16.828,0,0,0,6.9,5.15A25.616,25.616,0,0,0,42.9-6.6a21.474,21.474,0,0,0,7.2-1.2,28.315,28.315,0,0,0,6.55-3.35,49.644,49.644,0,0,0,6.2-5.05,76.785,76.785,0,0,0,6.05-6.5q1.1-1.3,2.25-.85A7.719,7.719,0,0,1,73.5-22a4.037,4.037,0,0,1,1.55,2.15,3.4,3.4,0,0,1-.85,2.35A53.45,53.45,0,0,1,62.95-5.8,40.114,40.114,0,0,1,51.8.15,32.862,32.862,0,0,1,41.7,1.9Zm52.5-.2A10.71,10.71,0,0,1,87.7-.35a13.241,13.241,0,0,1-4.35-5.8A23.373,23.373,0,0,1,81.8-15.1a40.244,40.244,0,0,1,1.3-9.85,41.912,41.912,0,0,1,3.9-9.9,40.216,40.216,0,0,1,6.3-8.6,28.778,28.778,0,0,1,8.6-6.15,25.1,25.1,0,0,1,10.8-2.3,27.842,27.842,0,0,1,8.15,1.3,28.066,28.066,0,0,1,7.85,3.8l-1.4,7.2a31.143,31.143,0,0,0-8.5-3.55,31.87,31.87,0,0,0-6.9-.85,15.336,15.336,0,0,0-7.3,1.75,20.6,20.6,0,0,0-5.85,4.65,28.544,28.544,0,0,0-4.3,6.55A36.835,36.835,0,0,0,91.8-23.6a31.664,31.664,0,0,0-.9,7.3,19.131,19.131,0,0,0,.65,5.2A7.722,7.722,0,0,0,93.5-7.55,4.568,4.568,0,0,0,96.8-6.3q3.8,0,8.25-4.2a56.257,56.257,0,0,0,9.2-12.25A148.608,148.608,0,0,0,123.6-42.1l3.4,4.6a123.075,123.075,0,0,1-10.7,21.8Q110.7-7,105.1-2.65T94.2,1.7Zm30.3,0a10.791,10.791,0,0,1-6-1.4,6.939,6.939,0,0,1-2.85-3.7,13.473,13.473,0,0,1-.55-5.15,32.688,32.688,0,0,1,.9-5.65l8.7-34.2a4.424,4.424,0,0,1,1.55-2.5,5.658,5.658,0,0,1,2.95-.6q2.9,0,3.8.9a2.484,2.484,0,0,1,.3,2.7l-8.5,33.4q-1.3,5-1.05,6.85T126.3-5.8a2.3,2.3,0,0,1,2.1,1.15,3.842,3.842,0,0,1,.5,2.6,4.755,4.755,0,0,1-1.25,2.6A4.056,4.056,0,0,1,124.5,1.7Zm0,0A2.3,2.3,0,0,1,122.4.55a4.061,4.061,0,0,1-.55-2.6,4.34,4.34,0,0,1,1.25-2.6,4.223,4.223,0,0,1,3.2-1.15,10.908,10.908,0,0,0,5.35-1.8,32.719,32.719,0,0,0,6.9-5.95A99.059,99.059,0,0,0,147.2-24.7q4.8-7,10.5-17.4a2.19,2.19,0,0,1,2.25-1.25,3.529,3.529,0,0,1,2.35,1.15,1.981,1.981,0,0,1,.2,2.4q-6.6,12.3-11.85,20.35a94.294,94.294,0,0,1-9.6,12.7,28.61,28.61,0,0,1-8.4,6.55A19.032,19.032,0,0,1,124.5,1.7Zm32.4-.2a10.219,10.219,0,0,1-6.25-1.75A7.886,7.886,0,0,1,147.7-5.5a20.257,20.257,0,0,1,.8-8.6L155.4-42h-7.6a1.651,1.651,0,0,1-1.65-1,5.169,5.169,0,0,1-.05-3,5.78,5.78,0,0,1,1.35-3.05A2.966,2.966,0,0,1,149.6-50h7.9l5-19.9a3.931,3.931,0,0,1,1.5-2.5,5.949,5.949,0,0,1,3-.6q2.9,0,3.8.9a2.612,2.612,0,0,1,.4,2.7l-5,19.4h12.6a1.764,1.764,0,0,1,1.7.95,4.62,4.62,0,0,1,0,3.05,6.276,6.276,0,0,1-1.3,3,2.748,2.748,0,0,1-2.1,1H164.2l-7.7,29.5q-.8,3.4-.25,4.9a2.321,2.321,0,0,0,2.45,1.5,8.265,8.265,0,0,0,4.5-1.7,21.153,21.153,0,0,0,5.1-5.4,2.848,2.848,0,0,1,1.75-1.15,3.765,3.765,0,0,1,2.35.65,3.75,3.75,0,0,1,1.8,1.85,2.534,2.534,0,0,1-.1,1.85,24.1,24.1,0,0,1-3.6,5.1,21.283,21.283,0,0,1-5.8,4.55A16.058,16.058,0,0,1,156.9,1.5Z" transform="translate(120 214)" fill="#212121"/>
    </g>
    <g id="グループ_14023" data-name="グループ 14023" transform="translate(-6)">
      <g id="マスクグループ_160" data-name="マスクグループ 160" clip-path="url(#clip-path-2)">
        <path id="パス_109565" data-name="パス 109565" d="M10.3,1.4q-4.4,0-3.7-2.8L28-86.3a3.2,3.2,0,0,1,1.65-2.05A7.3,7.3,0,0,1,33-89q4.6,0,3.7,2.7L27.6-49.9H73.8L83-86.3a3.2,3.2,0,0,1,1.65-2.05A7.3,7.3,0,0,1,88-89q4.6,0,3.7,2.7L70.3-1.4A3.034,3.034,0,0,1,68.75.7a7.1,7.1,0,0,1-3.45.7q-4.4,0-3.7-2.8L71.8-41.9H25.6L15.3-1.4A3.034,3.034,0,0,1,13.75.7,7.1,7.1,0,0,1,10.3,1.4Z" transform="translate(120 341)" fill="#212121"/>
      </g>
      <g id="マスクグループ_159" data-name="マスクグループ 159" transform="translate(3)" clip-path="url(#clip-path-3)">
        <path id="パス_109563" data-name="パス 109563" d="M16.7,1.5A11.217,11.217,0,0,1,9.65-.55,9.189,9.189,0,0,1,6.4-6.85,27.654,27.654,0,0,1,7.5-17.5l7.7-30.9a4.424,4.424,0,0,1,1.55-2.5,5.658,5.658,0,0,1,2.95-.6q2.9,0,3.8.9a2.484,2.484,0,0,1,.3,2.7l-8.2,32a21.547,21.547,0,0,0-.75,4.85,4.933,4.933,0,0,0,1,3.4A4.552,4.552,0,0,0,19.5-6.4a12.262,12.262,0,0,0,7.35-2.95,41.2,41.2,0,0,0,7.75-8.2,87.617,87.617,0,0,0,7.55-12.4A139.7,139.7,0,0,0,48.9-45.6l.3-2.8a4.424,4.424,0,0,1,1.55-2.5,5.658,5.658,0,0,1,2.95-.6q2.9,0,3.8.9a2.612,2.612,0,0,1,.4,2.7L49.5-14.5q-1.4,5-1.15,6.85T50.9-5.8a2.187,2.187,0,0,1,2.05,1.15,4.264,4.264,0,0,1,.5,2.6A4.34,4.34,0,0,1,52.2.55,4.223,4.223,0,0,1,49,1.7,10.321,10.321,0,0,1,43.15.3a7.012,7.012,0,0,1-2.8-3.7,13.473,13.473,0,0,1-.55-5.15,40.445,40.445,0,0,1,.8-5.65l.9-3.9a61.528,61.528,0,0,1-5.8,8.55A39.894,39.894,0,0,1,29.5-3.4,24.093,24.093,0,0,1,23.05.3,18.267,18.267,0,0,1,16.7,1.5Zm32.5.2A1.978,1.978,0,0,1,47.25.55a4.228,4.228,0,0,1-.3-2.6,5.264,5.264,0,0,1,1.25-2.6A3.513,3.513,0,0,1,51-5.8a10.292,10.292,0,0,0,5.6-2.1,35.1,35.1,0,0,0,6.9-6.7,114.217,114.217,0,0,0,8.4-11.95Q76.5-33.9,82.1-44.3a1.8,1.8,0,0,1,2.15-1.05,4.175,4.175,0,0,1,2.3,1.6A2.372,2.372,0,0,1,86.7-41q-5.1,9.8-9.35,17A121.882,121.882,0,0,1,69.3-11.85a54.093,54.093,0,0,1-7.2,7.9A25.6,25.6,0,0,1,55.55.35,16,16,0,0,1,49.2,1.7ZM96-1.3q3.4-1.4,6.25-2.4t5-1.55a14.415,14.415,0,0,1,3.25-.55q.9,0,1.1,1.15a6.418,6.418,0,0,1-.15,2.6,8.269,8.269,0,0,1-1.1,2.6A2.251,2.251,0,0,1,108.4,1.7a29.663,29.663,0,0,1-4.2-.3q-2.1-.3-4.4-.4a23.524,23.524,0,0,0-5.4.5ZM91,1.9A22.8,22.8,0,0,1,82.65.4a25.907,25.907,0,0,1-6.7-3.75A17.9,17.9,0,0,1,71.6-8.1a3.488,3.488,0,0,1-.65-2.2,2.971,2.971,0,0,1,1.35-2.2,7.166,7.166,0,0,1,2.5-1.1,2,2,0,0,1,2,1.1A18.75,18.75,0,0,0,83-7.1,16.119,16.119,0,0,0,90.9-5a16.056,16.056,0,0,0,5.8-.9,7.829,7.829,0,0,0,3.6-2.7,7.315,7.315,0,0,0,1.3-4.4,6.51,6.51,0,0,0-1.55-4.4,15.357,15.357,0,0,0-3.95-3.2q-2.4-1.4-5.2-2.8a33.937,33.937,0,0,1-5.2-3.2A14.5,14.5,0,0,1,81.8-31a12.627,12.627,0,0,1-1.5-6.4,14.314,14.314,0,0,1,1.8-7.05,13.683,13.683,0,0,1,5.7-5.35,20.75,20.75,0,0,1,9.9-2.1,20.632,20.632,0,0,1,7.6,1.3,20.538,20.538,0,0,1,5.6,3.2,16.51,16.51,0,0,1,3.5,3.8,4.984,4.984,0,0,1,.9,2.05q.1.85-1.6,2.25a4.176,4.176,0,0,1-2.25.9,3.338,3.338,0,0,1-2.05-.9,23.084,23.084,0,0,0-5.2-4.1A13.721,13.721,0,0,0,97.3-45q-4.3,0-6.35,1.85A6.223,6.223,0,0,0,88.9-38.3a5.983,5.983,0,0,0,1.5,4.1,16.582,16.582,0,0,0,3.9,3.15q2.4,1.45,5.2,2.9a34.419,34.419,0,0,1,5.2,3.3,15.758,15.758,0,0,1,3.95,4.45A12.3,12.3,0,0,1,110.2-14a14.728,14.728,0,0,1-2.55,8.9A15.481,15.481,0,0,1,100.8.15,25.818,25.818,0,0,1,91,1.9Zm17.6-.2A2.3,2.3,0,0,1,106.5.55a4.061,4.061,0,0,1-.55-2.6,4.34,4.34,0,0,1,1.25-2.6,4.223,4.223,0,0,1,3.2-1.15,14.264,14.264,0,0,0,4.9-1.05,52.251,52.251,0,0,0,6.9-3.35q4.1-2.3,10.1-6.2a2.456,2.456,0,0,1,2.4-.45,3.074,3.074,0,0,1,1.65,1.65,4.16,4.16,0,0,1,.3,2.55,3.674,3.674,0,0,1-1.75,2.35q-6.6,4.5-11.4,7.15A46.13,46.13,0,0,1,115.15.6,22.255,22.255,0,0,1,108.6,1.7Zm39,0a17.858,17.858,0,0,1-10.3-2.8,16.719,16.719,0,0,1-6.1-7.7,29.154,29.154,0,0,1-2-11.1,34.342,34.342,0,0,1,1.75-10.4A41.4,41.4,0,0,1,136-40.75a27.135,27.135,0,0,1,8.25-8.05,20.751,20.751,0,0,1,11.25-3.1,14.618,14.618,0,0,1,6.4,1.3,9.66,9.66,0,0,1,4.15,3.65,10.953,10.953,0,0,1,1.45,5.85,15.217,15.217,0,0,1-2.2,7.7,33.287,33.287,0,0,1-6.15,7.5,89.844,89.844,0,0,1-9.2,7.45Q144.7-14.7,138.5-10.9l-3.3-6.3q3.3-2.1,7.3-4.9a96.031,96.031,0,0,0,7.6-5.9,40.948,40.948,0,0,0,5.95-6.2A9.818,9.818,0,0,0,158.4-40a3.546,3.546,0,0,0-1.25-3.15A5.48,5.48,0,0,0,154-44a10.26,10.26,0,0,0-6.55,2.35,20,20,0,0,0-5,6.05,36.858,36.858,0,0,0-3.2,7.7,26.624,26.624,0,0,0-1.15,7.3,23.057,23.057,0,0,0,1.15,7.6,10.013,10.013,0,0,0,3.5,5,9.72,9.72,0,0,0,5.85,1.7,14.212,14.212,0,0,0,6.15-1.3,19.269,19.269,0,0,0,5.1-3.55q2.35-2.25,4.65-4.75a2.487,2.487,0,0,1,2.65-1.05,5.33,5.33,0,0,1,2.65,1.45,4.274,4.274,0,0,1,1.3,2.25,3.584,3.584,0,0,1-.9,2.65,36.252,36.252,0,0,1-7.4,7.3A26.376,26.376,0,0,1,155.2.55,26.119,26.119,0,0,1,147.6,1.7Z" transform="translate(272 341)" fill="#212121"/>
      </g>
      <g id="グループ_5" data-name="グループ 5" transform="translate(205 287)">
        <ellipse id="楕円形_1" data-name="楕円形 1" cx="7.298" cy="10.947" rx="7.298" ry="10.947" transform="translate(37.534 0)" fill="#db7d2d"/>
        <ellipse id="楕円形_3" data-name="楕円形 3" cx="7.328" cy="9.283" rx="7.328" ry="9.283" transform="translate(57.719 11.002) rotate(13)" fill="#db7d2d"/>
        <ellipse id="楕円形_4" data-name="楕円形 4" cx="7.328" cy="9.283" rx="7.328" ry="9.283" transform="translate(18.457 29.092) rotate(167)" fill="#db7d2d"/>
        <ellipse id="楕円形_2" data-name="楕円形 2" cx="8.21" cy="10.947" rx="8.21" ry="10.947" transform="translate(17.659 0)" fill="#db7d2d"/>
        <path id="合体_2" data-name="合体 2" d="M0,20.263c0-5.041,4.1-9.478,10.311-12.051a13.614,13.614,0,0,1,24.992,0c6.21,2.573,10.311,7.01,10.311,12.051,0,7.955-10.211,14.4-22.807,14.4S0,28.218,0,20.263Z" transform="translate(13.889 21.334)" fill="#db7d2d"/>
      </g>
    </g>
  </g>
</svg>
