<svg xmlns="http://www.w3.org/2000/svg" width="110" height="64" viewBox="0 0 110 64">
  <g id="グループ_19028" data-name="グループ 19028" transform="translate(-173)">
    <path id="長方形_8869" data-name="長方形 8869" d="M0,0H110a0,0,0,0,1,0,0V48A16,16,0,0,1,94,64H16A16,16,0,0,1,0,48V0A0,0,0,0,1,0,0Z" transform="translate(173)" fill="#4b3928"/>
    <text id="_0120-871-712" data-name="0120-871-712" transform="translate(190 53)" fill="#fff" font-size="12" font-family="NotoSansJP-Medium, Noto Sans JP" font-weight="500"><tspan x="0" y="0">0120-871-712</tspan></text>
    <path id="パス_109572" data-name="パス 109572" d="M54.844,40.137,49.191,37.6l-.016-.007a1.92,1.92,0,0,0-1.82.168.974.974,0,0,0-.09.067l-2.921,2.49a11.053,11.053,0,0,1-4.66-4.621l2.494-2.965c.024-.03.047-.06.068-.092a1.92,1.92,0,0,0,.158-1.807v-.014l-2.54-5.663a1.92,1.92,0,0,0-1.994-1.142A6.751,6.751,0,0,0,32,30.721,17.3,17.3,0,0,0,49.28,48a6.751,6.751,0,0,0,6.706-5.87A1.92,1.92,0,0,0,54.844,40.137ZM49.28,46.081a15.377,15.377,0,0,1-15.36-15.36,4.824,4.824,0,0,1,4.184-4.8.073.073,0,0,0,0,.014l2.52,5.64-2.48,2.969a.735.735,0,0,0-.068.092,1.92,1.92,0,0,0-.12,1.884,12.962,12.962,0,0,0,5.575,5.533,1.92,1.92,0,0,0,1.89-.137,1.011,1.011,0,0,0,.089-.067l2.917-2.489,5.64,2.526h.013A4.825,4.825,0,0,1,49.28,46.081Z" transform="translate(184 -13.002)" fill="#fff"/>
  </g>
</svg>
