<svg xmlns="http://www.w3.org/2000/svg" xmlns:xlink="http://www.w3.org/1999/xlink" width="120" height="29" viewBox="0 0 120 29">
  <defs>
    <clipPath id="clip-path">
      <rect id="長方形_5392" data-name="長方形 5392" width="24" height="24" fill="#fff"/>
    </clipPath>
  </defs>
  <g id="グループ_13" data-name="グループ 13" transform="translate(8 4)">
    <text id="資料請求" transform="translate(32 19)" fill="#fff" font-size="20" font-family="NotoSansJP-Medium, Noto Sans JP" font-weight="500"><tspan x="0" y="0">資料請求</tspan></text>
    <g id="マスクグループ_55" data-name="マスクグループ 55" transform="translate(-8 -1)" clip-path="url(#clip-path)">
      <path id="book-open-text-light" d="M23.945,4.091H16.964a4.145,4.145,0,0,0-3.491,1.915A4.145,4.145,0,0,0,9.982,4.091H3A1.527,1.527,0,0,0,1.473,5.618V19.582A1.527,1.527,0,0,0,3,21.109H9.982a2.836,2.836,0,0,1,2.836,2.836.655.655,0,0,0,1.309,0,2.836,2.836,0,0,1,2.836-2.836h6.982a1.527,1.527,0,0,0,1.527-1.527V5.618A1.527,1.527,0,0,0,23.945,4.091ZM9.982,19.8H3a.218.218,0,0,1-.218-.218V5.618A.218.218,0,0,1,3,5.4H9.982a2.836,2.836,0,0,1,2.836,2.836V20.925A4.13,4.13,0,0,0,9.982,19.8Zm14.182-.218a.218.218,0,0,1-.218.218H16.964a4.131,4.131,0,0,0-2.836,1.126V8.236A2.836,2.836,0,0,1,16.964,5.4h6.982a.218.218,0,0,1,.218.218ZM21.982,9.109a.655.655,0,0,1-.655.655H16.964a.655.655,0,0,1,0-1.309h4.364A.655.655,0,0,1,21.982,9.109Zm0,3.491a.655.655,0,0,1-.655.655H16.964a.655.655,0,1,1,0-1.309h4.364A.655.655,0,0,1,21.982,12.6Zm0,3.491a.655.655,0,0,1-.655.655H16.964a.655.655,0,1,1,0-1.309h4.364A.655.655,0,0,1,21.982,16.091Z" transform="translate(-1.473 -2.231)" fill="#fff"/>
    </g>
  </g>
</svg>
