<svg xmlns="http://www.w3.org/2000/svg" xmlns:xlink="http://www.w3.org/1999/xlink" width="196" height="32" viewBox="0 0 196 32">
  <defs>
    <clipPath id="clip-path">
      <rect id="長方形_6833" data-name="長方形 6833" width="196" height="32" fill="#fff"/>
    </clipPath>
  </defs>
  <g id="logo" clip-path="url(#clip-path)">
    <path id="パス_20597" data-name="パス 20597" d="M16.73.59H21.3V31.948H16.73V22.227H4.565v9.721H0V.59H4.565V18.2H16.73Z" transform="translate(0 -0.078)"/>
    <path id="パス_20598" data-name="パス 20598" d="M32.431,31.94,45.184.539l12.762,31.4H53.294l-.942-2.482H38.059l-.986,2.482H32.431ZM39.6,25.431h11.18l-5.594-14.39L39.59,25.431Z" transform="translate(-4.389 -0.071)"/>
    <path id="パス_20599" data-name="パス 20599" d="M91.63,10.52c.026.174.052.347.061.512s.026.356.026.555v.087a3.8,3.8,0,0,1-.026.555c-.017.174-.035.338-.061.512v.043L91.5,13.81a.45.45,0,0,0-.043.174c-.026.139-.061.269-.086.382a2.219,2.219,0,0,1-.13.382,10.9,10.9,0,0,1-4.608,6.127A12.559,12.559,0,0,1,83.52,22.22a12.959,12.959,0,0,1-3.623.495H74.3v9.3H69.738V.539H79.9a12.357,12.357,0,0,1,6.744,1.84A11,11,0,0,1,91.25,8.463a4.28,4.28,0,0,1,.216.816.28.28,0,0,0,.043.174c.026.174.052.347.061.512s.035.33.061.469v.087ZM80.451,18.7a5.613,5.613,0,0,0,2.585-.6,7.011,7.011,0,0,0,2.049-1.588,7.523,7.523,0,0,0,1.366-2.248,7.309,7.309,0,0,0,0-5.277,7.35,7.35,0,0,0-1.366-2.248,7.045,7.045,0,0,0-2.049-1.588,5.613,5.613,0,0,0-2.585-.6h-6.1V18.7Z" transform="translate(-9.441 -0.071)"/>
    <path id="パス_20600" data-name="パス 20600" d="M102.949.59h4.565v31.4h-4.565Z" transform="translate(-13.938 -0.078)"/>
    <path id="パス_20601" data-name="パス 20601" d="M120.345,32h-4.306V0l20.223,24.284V.555h4.314V32h-4.185L120.345,12.168V32Z" transform="translate(-15.71)"/>
    <path id="パス_20602" data-name="パス 20602" d="M152.211.59h4.565v31.4h-4.565Z" transform="translate(-20.607 -0.078)"/>
    <path id="パス_20603" data-name="パス 20603" d="M180.74,27.666a9.858,9.858,0,0,0,5.015-1.311,10.916,10.916,0,0,0,3.735-3.489l3.709,2.786a15.742,15.742,0,0,1-5.352,4.626,15.434,15.434,0,0,1-13.125.469,15.782,15.782,0,0,1-4.911-3.368,15.972,15.972,0,0,1-3.311-4.973,15.344,15.344,0,0,1-1.219-6.1,15.344,15.344,0,0,1,1.219-6.1,15.823,15.823,0,0,1,3.311-4.973,15.56,15.56,0,0,1,4.911-3.359A14.794,14.794,0,0,1,180.74.631a14.985,14.985,0,0,1,7.107,1.71A15.662,15.662,0,0,1,193.2,6.967L189.49,9.753a10.915,10.915,0,0,0-3.735-3.489,9.945,9.945,0,0,0-5.015-1.311,9.766,9.766,0,0,0-4.159.9,10.921,10.921,0,0,0-3.389,2.439,11.78,11.78,0,0,0-2.309,3.6,11.349,11.349,0,0,0-.856,4.409,11.349,11.349,0,0,0,.856,4.409,11.884,11.884,0,0,0,2.309,3.6,11.023,11.023,0,0,0,3.389,2.439,9.794,9.794,0,0,0,4.159.9Z" transform="translate(-22.376 -0.083)"/>
    <path id="パス_20604" data-name="パス 20604" d="M209.893,27.416H223.8v4.5H205.371V.641h18.14V5.05H209.9V15.673h12.243V19.96H209.9v7.455Z" transform="translate(-27.804 -0.085)"/>
  </g>
</svg>
