<svg xmlns="http://www.w3.org/2000/svg" xmlns:xlink="http://www.w3.org/1999/xlink" width="108" height="107" viewBox="0 0 108 107">
  <defs>
    <clipPath id="clip-path">
      <rect id="長方形_6602" data-name="長方形 6602" width="53" height="107" transform="translate(158 76)" fill="none"/>
    </clipPath>
    <clipPath id="clip-path-2">
      <rect id="長方形_6601" data-name="長方形 6601" width="52.98" height="106.824" fill="none"/>
    </clipPath>
    <clipPath id="clip-path-3">
      <rect id="長方形_6858" data-name="長方形 6858" width="53" height="107" fill="none"/>
    </clipPath>
  </defs>
  <g id="グループ_14078" data-name="グループ 14078" transform="translate(-1251 -80)">
    <g id="マスクグループ_11" data-name="マスクグループ 11" transform="translate(1462 263) rotate(180)" clip-path="url(#clip-path)">
      <g id="グループ_13957" data-name="グループ 13957" transform="translate(158 76.176)">
        <g id="グループ_13956" data-name="グループ 13956" clip-path="url(#clip-path-2)">
          <path id="パス_20452" data-name="パス 20452" d="M2.006,49.728a5.134,5.134,0,0,1-.127-.981c-.06-1.569-.226-3.129-.366-4.692C1.34,42.138,1.058,40.237.8,38.333c-.2-1.532-.453-3.06-.611-4.6a24.018,24.018,0,0,1-.185-2.648c.015-1.973-.045-3.949.038-5.919a21.633,21.633,0,0,1,.76-5.5,12.893,12.893,0,0,1,2.581-4.674,17.384,17.384,0,0,1,1.891-1.859A9.946,9.946,0,0,0,8.021,9.038,22.183,22.183,0,0,1,9.832,5.052,9.753,9.753,0,0,1,16.265.62a13.743,13.743,0,0,1,7.066.491,21.024,21.024,0,0,0,2.394.527,4.961,4.961,0,0,0,1.838-.165A26.848,26.848,0,0,0,31.128.428,8.43,8.43,0,0,1,35.183.11,8.372,8.372,0,0,1,37.8.779a15.487,15.487,0,0,1,3.8,2.4,10.667,10.667,0,0,1,2.432,3.692c.415.978.8,1.97,1.21,2.949a8.7,8.7,0,0,0,2.4,3.29,13.549,13.549,0,0,1,4.488,6.612,19.023,19.023,0,0,1,.6,3.524,60.16,60.16,0,0,1,.221,7.165,39.93,39.93,0,0,1-.345,4.293c-.3,2.122-.548,4.251-.852,6.372-.219,1.532-.365,3.07-.514,4.609a1.939,1.939,0,0,0-.3.143,37.128,37.128,0,0,0-3.908,3.092,21.162,21.162,0,0,0-4.33,5.268,14.62,14.62,0,0,0,.044,14.9,23.017,23.017,0,0,0,5.627,6.494,3.136,3.136,0,0,0,1.656.791c-.157,1.72-.044,3.453-.234,5.172-.007.066,0,.133-.006.2-.028,2.592-.136,5.184-.2,7.775-.053,2.305-.124,4.612-.045,6.913.106,3.059.038,6.118.113,9.176.007.264.059.527.087.79s-.054.433-.358.419c-.155-.007-.31,0-.465,0H3.75c-.111,0-.222,0-.333,0-.577-.019-.852-.477-.486-.928a1.582,1.582,0,0,0,.29-1.046c.166-3.367.095-6.737.131-10.105a2.125,2.125,0,0,0,.824-.235,18.254,18.254,0,0,0,7.366-5.295A18.444,18.444,0,0,0,15.7,71.929a32.336,32.336,0,0,0-4.1-9.322A93.7,93.7,0,0,0,5.49,54.081c-1.156-1.456-2.323-2.9-3.485-4.353M41.42,91.823A4.809,4.809,0,1,0,36.581,96.6a4.782,4.782,0,0,0,4.839-4.777" transform="translate(0 0)" fill="#d3b493"/>
          <path id="パス_20453" data-name="パス 20453" d="M3.667,90.925c1.162,1.452,2.329,2.9,3.484,4.354a93.512,93.512,0,0,1,6.114,8.525,32.334,32.334,0,0,1,4.1,9.322A18.443,18.443,0,0,1,13.2,130.41,18.248,18.248,0,0,1,5.839,135.7a2.1,2.1,0,0,1-.824.235c.019-3.991-.023-7.983-.207-11.972-.143-3.1-.245-6.2-.342-9.308-.19-6.073-.358-12.147-.551-18.221-.044-1.4-.155-2.789-.226-4.184-.023-.442-.015-.887-.021-1.33" transform="translate(-1.661 -41.197)" fill="#ac8257"/>
          <path id="パス_20454" data-name="パス 20454" d="M83.749,114.229a3.129,3.129,0,0,1-1.656-.79,23.024,23.024,0,0,1-5.628-6.493,14.623,14.623,0,0,1-.043-14.9,21.162,21.162,0,0,1,4.33-5.268,37.233,37.233,0,0,1,3.908-3.092,1.986,1.986,0,0,1,.3-.142c-.792,10.214-.841,20.458-1.206,30.689" transform="translate(-33.713 -37.851)" fill="#3a3a3a"/>
          <path id="パス_20455" data-name="パス 20455" d="M67.767,163.883a4.809,4.809,0,1,1-4.777-4.842,4.775,4.775,0,0,1,4.777,4.842" transform="translate(-26.347 -72.06)" fill="#5a350c"/>
        </g>
      </g>
    </g>
    <g id="マスクグループ_61" data-name="マスクグループ 61" transform="translate(1306 80)" clip-path="url(#clip-path-3)">
      <g id="グループ_14073" data-name="グループ 14073" transform="translate(0 0)">
        <g id="グループ_14072" data-name="グループ 14072" clip-path="url(#clip-path-2)">
          <path id="パス_20613" data-name="パス 20613" d="M2.006,57.1a5.134,5.134,0,0,0-.127.981c-.06,1.569-.226,3.129-.366,4.692C1.34,64.686,1.058,66.587.8,68.492c-.2,1.532-.453,3.06-.611,4.6a24.018,24.018,0,0,0-.185,2.648c.015,1.973-.045,3.949.038,5.919a21.633,21.633,0,0,0,.76,5.5,12.893,12.893,0,0,0,2.581,4.674,17.385,17.385,0,0,0,1.891,1.859,9.946,9.946,0,0,1,2.744,4.094,22.183,22.183,0,0,0,1.811,3.985,9.753,9.753,0,0,0,6.433,4.433,13.743,13.743,0,0,0,7.066-.491,21.024,21.024,0,0,1,2.394-.527,4.961,4.961,0,0,1,1.838.165,26.847,26.847,0,0,1,3.565,1.045,8.43,8.43,0,0,0,4.055.318,8.372,8.372,0,0,0,2.617-.669,15.486,15.486,0,0,0,3.8-2.4,10.667,10.667,0,0,0,2.432-3.692c.415-.978.8-1.97,1.21-2.949a8.7,8.7,0,0,1,2.4-3.29A13.549,13.549,0,0,0,52.137,87.1a19.023,19.023,0,0,0,.6-3.524,60.16,60.16,0,0,0,.221-7.165,39.93,39.93,0,0,0-.345-4.293c-.3-2.122-.548-4.251-.852-6.372-.219-1.532-.365-3.07-.514-4.609a1.939,1.939,0,0,1-.3-.143A37.128,37.128,0,0,1,47.039,57.9a21.162,21.162,0,0,1-4.33-5.268,14.62,14.62,0,0,1,.044-14.9,23.017,23.017,0,0,1,5.627-6.494,3.136,3.136,0,0,1,1.656-.791c-.157-1.72-.044-3.453-.234-5.172-.007-.066,0-.133-.006-.2-.028-2.592-.136-5.184-.2-7.775-.053-2.305-.124-4.612-.045-6.913.106-3.059.038-6.118.113-9.176.007-.264.059-.527.087-.79S49.7-.013,49.4,0c-.155.007-.31,0-.465,0H3.75c-.111,0-.222,0-.333,0C2.841.02,2.566.479,2.932.93a1.582,1.582,0,0,1,.29,1.046c.166,3.367.095,6.737.131,10.105a2.125,2.125,0,0,1,.824.235,18.254,18.254,0,0,1,7.366,5.295A18.444,18.444,0,0,1,15.7,34.9a32.336,32.336,0,0,1-4.1,9.322A93.7,93.7,0,0,1,5.49,52.743C4.335,54.2,3.168,55.645,2.006,57.1M41.42,15a4.809,4.809,0,1,1-4.839-4.777A4.782,4.782,0,0,1,41.42,15" transform="translate(0 0)" fill="#d3b493"/>
          <path id="パス_20614" data-name="パス 20614" d="M0,45.015c1.162-1.452,2.329-2.9,3.484-4.354A93.512,93.512,0,0,0,9.6,32.136a32.334,32.334,0,0,0,4.1-9.322A18.443,18.443,0,0,0,9.538,5.53,18.248,18.248,0,0,0,2.172.236,2.1,2.1,0,0,0,1.348,0c.019,3.991-.023,7.983-.207,11.972C1,15.074.9,18.177.8,21.28.608,27.354.44,33.427.247,39.5.2,40.9.092,42.29.021,43.685,0,44.127.006,44.571,0,45.015" transform="translate(2.006 12.081)" fill="#ac8257"/>
          <path id="パス_20615" data-name="パス 20615" d="M9.341,0A3.129,3.129,0,0,0,7.685.79,23.024,23.024,0,0,0,2.058,7.284,15.423,15.423,0,0,0,.033,15.83a15.325,15.325,0,0,0,1.981,6.356,21.162,21.162,0,0,0,4.33,5.268,37.233,37.233,0,0,0,3.908,3.092,1.986,1.986,0,0,0,.3.142C9.756,20.475,9.707,10.231,9.341,0" transform="translate(40.694 30.447)" fill="#3a3a3a"/>
          <path id="パス_20616" data-name="パス 20616" d="M9.617,4.777A4.775,4.775,0,0,0,4.778,0,4.777,4.777,0,0,0,0,4.839a4.784,4.784,0,0,0,4.84,4.78A4.782,4.782,0,0,0,9.617,4.777" transform="translate(11.533 59.224)" fill="#5a350c"/>
        </g>
      </g>
    </g>
  </g>
</svg>
