<svg xmlns="http://www.w3.org/2000/svg" xmlns:xlink="http://www.w3.org/1999/xlink" width="360" height="360" viewBox="0 0 360 360">
  <defs>
    <clipPath id="clip-path">
      <rect id="長方形_8828" data-name="長方形 8828" width="300" height="231.459" fill="none"/>
    </clipPath>
  </defs>
  <g id="グループ_19044" data-name="グループ 19044" transform="translate(-540 -11231)">
    <g id="長方形_6865" data-name="長方形 6865" transform="translate(540 11231)" fill="none" stroke="#4b3928" stroke-width="1">
      <rect width="360" height="360" rx="16" stroke="none"/>
      <rect x="0.5" y="0.5" width="359" height="359" rx="15.5" fill="none"/>
    </g>
    <text id="_02" data-name="02" transform="translate(720 11284)" fill="#3a3a3a" font-size="24" font-family="NotoSansJP-Bold, Noto Sans JP" font-weight="700"><tspan x="-14.16" y="0">02</tspan></text>
    <g id="グループ_18899" data-name="グループ 18899" transform="translate(568.436 11323.771)">
      <g id="グループ_18783" data-name="グループ 18783" clip-path="url(#clip-path)">
        <path id="パス_27396" data-name="パス 27396" d="M381.791,263.515a3.284,3.284,0,0,1-.874,3c-.312.316-.674.581-1.093.935a10.3,10.3,0,0,1,.209,1.037,3.229,3.229,0,0,1-3.385,3.669c-1.014-.028-2.028-.125-3.1-.2-.279.525-.53,1.028-.813,1.511a2.945,2.945,0,0,1-2.874,1.53,14.541,14.541,0,0,1-2.08-.316c-1.246-.261-2.478-.577-3.725-.847-.493-.107-1-.149-1.558-.232a4.344,4.344,0,0,1-3.9,2.023,5.5,5.5,0,0,1-1.507-.172c-4.445-1.116-8.906-2.191-13.328-3.409a29.766,29.766,0,0,1-7.855-3.433c-3.084-1.921-6.149-3.874-9.223-5.809-.535-.335-1.075-.656-1.573-.958-.191.093-.354.121-.4.2-1.279,2.6-3.512,3.749-6.241,4.139-.507.075-1.013.112-1.525.149a7.318,7.318,0,0,1-4.669-.94,1.926,1.926,0,0,1-2.409-.125,15.21,15.21,0,0,0-3.1-1.46,73.739,73.739,0,0,1-9.6-4.707,32.186,32.186,0,0,1-5.255-3.809c-.716-.633-1.469-1.223-2.232-1.8a4.78,4.78,0,0,1-1.666-2.051,43.705,43.705,0,0,1-1.651-4.274c-1.2-4.293-2.288-8.618-3.419-12.934-.274-1.046-.535-2.1-.823-3.139a5.65,5.65,0,0,0-.447-.856,8.771,8.771,0,0,0-.549,2.363c-.8,5.1-1.562,10.209-2.339,15.305a1.4,1.4,0,0,0-1.311-.12,1.539,1.539,0,0,0-.693-.08c.009-.107.019-.218.032-.325.27-2.018.563-4.037.911-6.046.8-4.65,1.647-9.287,2.438-13.938a8.834,8.834,0,0,0,.027-2.074c-.032-.461-.125-.954.247-1.256.628-.511.6-1.242.754-1.907q2.24-9.879,4.441-19.766c1.605-7.218,3.214-14.431,4.753-21.659.959-4.488,1.805-9,2.67-13.5a12.318,12.318,0,0,0,.111-1.9,10.441,10.441,0,0,1,0-1.14.8.8,0,0,1,.773-.72.832.832,0,0,1,.916.539,5.874,5.874,0,0,1,.135,3.385c-.5,2.3-1.065,4.6-1.5,6.911-2.678,14.217-6.092,28.277-9.241,42.392-.553,2.488-1.061,4.986-1.581,7.483a3.567,3.567,0,0,0,0,2.07c1.5,4.013,2.27,8.222,3.326,12.357.689,2.716,1.483,5.41,2.247,8.106.176.609.4,1.21.628,1.8a7.894,7.894,0,0,0,3.107,4.223c.749.466,1.316,1.209,2.033,1.73,1.651,1.2,3.279,2.447,5.033,3.473a62.232,62.232,0,0,0,10.013,4.726c.223.079.456.139.693.214.214-.484-.1-.768-.246-1.079a16.072,16.072,0,0,1-1.48-8.186,22.656,22.656,0,0,1,1.986-8.706,3.873,3.873,0,0,1,.409-.856,19.1,19.1,0,0,0,2.47-4.436,9.142,9.142,0,0,1,4.948-4.549c.707-.293,1.428-.544,2.135-.832.349-.139.674-.325,1.232-.6-2.423-.725-4.636-1.325-6.8-2.056a15.106,15.106,0,0,0-9.58-.018,42.574,42.574,0,0,0-5.176,1.949,12.854,12.854,0,0,0-6.739,7.7,6.918,6.918,0,0,1-.413,1.056.756.756,0,0,1-.991.339c-.246-.116-.563-.451-.558-.683a5.3,5.3,0,0,1,.288-1.856,14.239,14.239,0,0,1,6.5-7.748,26.726,26.726,0,0,1,12.376-3.539,7.92,7.92,0,0,0,.939-.1c.056,0,.1-.065.177-.112a3.6,3.6,0,0,0-.144-1.851c-.963-5.4-1.981-10.781-2.874-16.184-1.037-6.288-1.977-12.595-2.94-18.892-.832-5.484-1.633-10.971-2.46-16.45-.739-4.916-1.461-9.837-2.265-14.743-.27-1.628-.735-3.228-1.163-4.828a5.8,5.8,0,0,0-2.646-3.814,2.325,2.325,0,0,0-.251-1.232,3.3,3.3,0,0,0-.981-1.144.868.868,0,0,1,.59-.065,5.375,5.375,0,0,1,.535.2,7.122,7.122,0,0,1,4.427,4.7,44.572,44.572,0,0,1,1.725,7.246c1.586,10.52,3.1,21.059,4.712,31.578q2.008,13.137,4.2,26.24c.553,3.325,1.334,6.608,2.018,9.933.5.182.9.363,1.316.485q3.858,1.116,7.715,2.214c.921.261,1.916.386,2.074,1.633.019.139.256.256.4.381.623.54,1.247,1.08,1.939,1.683a79.369,79.369,0,0,0,9.339-1.544,21.67,21.67,0,0,1,4.926-.581c2.488,0,4.971-.018,7.46-.042a10.336,10.336,0,0,0,1.911-.07,10.564,10.564,0,0,1,5.437.587c4.3,1.409,8.608,2.776,13.007,3.827a4.148,4.148,0,0,1,2.349,1.544,2.768,2.768,0,0,1,.088,3.535,4.886,4.886,0,0,1-4.525,1.963,25.572,25.572,0,0,1-2.838-.414,8.88,8.88,0,0,1-1.487-.33,16.143,16.143,0,0,0-7-.544c-1.381.121-2.767.246-4.088.363-.275.493.037.693.265.879,1.475,1.218,2.934,2.455,4.445,3.623,1.564,1.209,3.2,2.326,4.767,3.53a14.724,14.724,0,0,0,3.99,2.214c2.457.888,4.925,1.739,7.372,2.66,1.6.609,3.2,1.251,4.753,2a9.21,9.21,0,0,1,3.6,2.767,4.417,4.417,0,0,1,.874,1.888m-3.223,2.06c1.372-.549,1.683-1.478.809-2.655a6.075,6.075,0,0,0-1.5-1.442,17.227,17.227,0,0,0-2.842-1.549c-2-.828-4.037-1.562-6.069-2.311-1.8-.656-3.619-1.237-5.4-1.935a11.273,11.273,0,0,1-2.507-1.358c-2.181-1.605-4.367-3.205-6.506-4.865s-4.223-3.39-6.2-5.255c-.6-.568-1.261-1.074-1.884-1.618-.828-.725-1.009-1.242-.647-1.758.4-.563,1.028-.48,1.982.274.446.354.883.721,1.371,1.121,2.023-.168,4.056-.317,6.079-.507a18.67,18.67,0,0,1,7.944.516,22.142,22.142,0,0,0,3.558.693,3.76,3.76,0,0,0,2.418-.381,1.558,1.558,0,0,0,1.014-1.289c.019-.665-.479-1.009-1-1.279a4.936,4.936,0,0,0-.9-.325c-.67-.2-1.344-.382-2.019-.582-3.966-1.171-7.934-2.353-11.91-3.5a6.46,6.46,0,0,0-1.874-.289c-3.633.042-7.27.1-10.9.224a36.183,36.183,0,0,0-4.367.46c-2.767.442-5.535.9-8.275,1.479-1.455.3-3.073-.013-4.352,1.051-.079.066-.246.047-.372.037a2.4,2.4,0,0,0-1.977,1.019c-1.106,1.372-2.451,2.576-3.167,4.25-.4.94-.832,1.861-1.284,2.773a.924.924,0,0,1-1.088.553,1,1,0,0,1-.683-1.037c.027-.456.092-.916.144-1.371.018-.028.037-.061.056-.089v-.047c.423-.074.387-.39.349-.7a.157.157,0,0,1,.037-.013.165.165,0,0,0-.009-.037c.06,0,.135.018.139,0,.047-.139.075-.289.112-.432-.042-.01-.112-.037-.116-.028a1.714,1.714,0,0,0-.149.316.354.354,0,0,0,.014.139.091.091,0,0,0-.033,0c0,.018,0,.037,0,.055-.363.108-.354.406-.349.7a.112.112,0,0,1-.042.01c0,.042-.009.084-.014.126a14.636,14.636,0,0,0-1.883,6.148,5.17,5.17,0,0,0,.018,2.414c.735.432,1.437.851,2.149,1.26a2.5,2.5,0,0,1,1.163,1.377.251.251,0,0,1-.024.009.785.785,0,0,0,.028.084c-.176.325-.353.647-.525.963.577,1.288.582,1.292-.163,2.2-.2.242-.423.474-.637.711a1.6,1.6,0,0,1-1.893.493c-.716-.27-1.423-.572-2.154-.781-.455-.135-.874-.559-1.516-.261a8.175,8.175,0,0,0,2.316,4.06,2.888,2.888,0,0,0,2.079.847,18.1,18.1,0,0,0,3.623-.154c1.972-.423,3.688-1.335,4.344-3.59-1.359-.912-2.66-1.818-4-2.674a3.253,3.253,0,0,1-1.475-1.809c0-.009.014-.023.019-.033a.254.254,0,0,0-.023-.06c.4-.154.8-.311,1.316-.507.544.335,1.139.688,1.721,1.065q7.38,4.778,14.757,9.571a29.16,29.16,0,0,0,6.116,3.121c1.618.573,3.246,1.13,4.9,1.572,3.507.935,7.037,1.777,10.548,2.688a6.251,6.251,0,0,0,2.274.089,2.262,2.262,0,0,0,.554-.135,1.122,1.122,0,0,0,.507-1.847,5.956,5.956,0,0,0-3.158-1.674,56.725,56.725,0,0,1-8.641-3.046,10.7,10.7,0,0,1-1.54-.754q-3.488-2.344-6.944-4.744a2.883,2.883,0,0,1-.79-.8.767.767,0,0,1,.134-1.042,1.269,1.269,0,0,1,.726-.266.541.541,0,0,1,.125.01,2.835,2.835,0,0,1,1.009.5c1.442.944,2.935,1.823,4.279,2.883a26.492,26.492,0,0,0,7.427,3.86c1.191.442,2.423.773,3.641,1.154.321.1.642.191.963.289.534.154,1.065.316,1.585.516a5.97,5.97,0,0,1,3.033,2.228,2.688,2.688,0,0,0,1.856,1.2c1.493.317,2.976.693,4.469,1.019a6.412,6.412,0,0,0,1.33.13,1.374,1.374,0,0,0,1.442-1.014,1.4,1.4,0,0,0-.628-1.809,15.2,15.2,0,0,0-4.19-1.818c-2.745-.828-5.484-1.679-8.237-2.469-.009,0-.013,0-.023-.01a17.608,17.608,0,0,1-6.055-3.1c-2.26-1.754-4.6-3.4-6.976-5.153-.5.2-1.018.423-1.549.613a3.546,3.546,0,0,1-.921.228.857.857,0,0,1-.856-.4,1.107,1.107,0,0,1-.066-.13.929.929,0,0,1,.363-1.163,5.253,5.253,0,0,1,.879-.358,22.99,22.99,0,0,0,7.33-4,10.567,10.567,0,0,1,2.339-1.255,1.082,1.082,0,0,1,.456-.1,1.022,1.022,0,0,1,.772.34.923.923,0,0,1-.083,1.213,3.757,3.757,0,0,1-.735.544,3.352,3.352,0,0,0,.437.624c1.586,1.279,3.158,2.576,4.786,3.8a17.512,17.512,0,0,0,5.232,2.73c2.6.837,5.19,1.744,7.794,2.581a27.7,27.7,0,0,1,6.623,2.818,4.393,4.393,0,0,0,.613-.13m-1.6,4.6a1.184,1.184,0,0,0,.832-1.86,3.667,3.667,0,0,0-1.116-1.009,31.622,31.622,0,0,0-3.944-1.888q-4.388-1.584-8.865-2.931a22.7,22.7,0,0,1-7.408-3.822c-1.46-1.13-2.888-2.3-4.339-3.438-.335-.27-.711-.483-1.1-.748-1.205.735-2.335,1.418-3.581,2.176.47.419.823.777,1.218,1.074,1.316,1,2.688,1.93,3.971,2.972a18.547,18.547,0,0,0,6.721,3.474c2.567.725,5.125,1.5,7.669,2.292a13.7,13.7,0,0,1,5.888,3,1.261,1.261,0,0,0,.646.381,28.94,28.94,0,0,0,3.405.33m-53.256-33.639c.307-.121.772.149.963-.414a2.121,2.121,0,0,0-2.414-.535,18.671,18.671,0,0,0-4.953,1.963,4.99,4.99,0,0,0-1.945,1.8,25.722,25.722,0,0,1-1.576,2.832,19.942,19.942,0,0,0-1.721,2.893,20.184,20.184,0,0,0-2.033,7.7,13.479,13.479,0,0,0,.116,3.986c1.586.539,3.135,1.07,4.744,1.618.423-.447.813-.856,1.33-1.4a8.617,8.617,0,0,0-.813-.725,7.981,7.981,0,0,0-.842-.451c-.409.4-.781.8-1.358.59a1.407,1.407,0,0,1-.888-1.353,24.378,24.378,0,0,1-.125-2.856,25.723,25.723,0,0,1,1.655-7.422,13.718,13.718,0,0,1,5.744-6.921,3.3,3.3,0,0,1,1.772-.637,4.38,4.38,0,0,0,1.088-.228c.428-.125.842-.279,1.256-.437" transform="translate(-81.85 -44.165)" fill="#373635"/>
        <path id="パス_27397" data-name="パス 27397" d="M355.328,295.714a.892.892,0,0,1,.051,1.213,1.022,1.022,0,0,1-1.39.121,4.8,4.8,0,0,1-.888-.981,21.463,21.463,0,0,0-4.986-4.976,11.589,11.589,0,0,0-6.32-2.469,2.2,2.2,0,0,1-.735-.154.856.856,0,0,1-.581-.893.867.867,0,0,1,.7-.8,8.441,8.441,0,0,1,1.158-.125c.735.182,1.679.354,2.581.642a14.852,14.852,0,0,1,4.358,2.34,35.532,35.532,0,0,1,6.055,6.088" transform="translate(-100.685 -84.767)" fill="#373635"/>
        <path id="パス_27398" data-name="パス 27398" d="M304.084,150.619a2.325,2.325,0,0,1,.251,1.232,5.44,5.44,0,0,0-.7-.33,2.433,2.433,0,0,1-.8-.52.861.861,0,0,1-.255-1.033,1.058,1.058,0,0,1,.516-.492,3.294,3.294,0,0,1,.982,1.144" transform="translate(-89.457 -44.203)" fill="#373635"/>
        <path id="パス_27399" data-name="パス 27399" d="M300.4,148.319a1.059,1.059,0,0,1,.618,1,.836.836,0,0,1-.874.846,4.237,4.237,0,0,1-1.084-.316.155.155,0,0,1-.037-.019,1.357,1.357,0,0,1,1.377-1.511" transform="translate(-88.425 -43.861)" fill="#373635"/>
        <path id="パス_27400" data-name="パス 27400" d="M286.309,142.2a1.357,1.357,0,0,0-1.377,1.511q-15.7-6.7-31.388-13.422a1.284,1.284,0,0,0-.484-1.865c-.53-.261-1.159-.47-1.7-.67a.683.683,0,0,1,.485-.12,5.712,5.712,0,0,1,1.46.372q3.8,1.549,7.576,3.148,10.89,4.612,21.775,9.251c1.223.52,2.4,1.158,3.6,1.763a.324.324,0,0,1,.056.032" transform="translate(-74.333 -37.743)" fill="#373635"/>
        <path id="パス_27401" data-name="パス 27401" d="M278.781,289.2c-.032.191-.061.377-.088.568a2.219,2.219,0,0,1-.182.73.808.808,0,0,1-.968.429c-.27-.089-.632-.326-.679-.554a5.4,5.4,0,0,1-.089-1.372,1.54,1.54,0,0,1,.694.079,1.4,1.4,0,0,1,1.311.121" transform="translate(-81.845 -85.453)" fill="#373635"/>
        <path id="パス_27402" data-name="パス 27402" d="M251.832,162.444a1.469,1.469,0,0,1,.149,1.618c-.242.447-.47.9-.735,1.34q-9.649,15.934-19.315,31.858c-1.023,1.683-2.2,3.274-3.335,4.892a4.674,4.674,0,0,1-.9.972.839.839,0,0,1-1.064-.023.82.82,0,0,1-.32-1.009,8.02,8.02,0,0,1,.771-1.3c1.837-2.758,3.763-5.456,5.5-8.274,4.042-6.562,7.99-13.176,11.971-19.775q2.217-3.683,4.4-7.385c.352-.6.665-1.223,1.046-1.93a53.181,53.181,0,0,0-4.293-4.883c-1.5-1.437-2.823-3.14-4.925-3.8a1.173,1.173,0,0,1-.238-.307c-.577-1.8-.544-1.953,1.042-2.911,1.2-.722,2.442-1.373,3.659-2.065.437-.247.861-.517,1.471-.88-.959-2.934-1.874-5.716-2.759-8.5a2.17,2.17,0,0,0-1.042-1.293.8.8,0,0,1-.385-.981,1,1,0,0,1,.837-.693A1.714,1.714,0,0,1,245.3,138a9.614,9.614,0,0,1,.554,1.423c.586,1.818,1.149,3.642,1.739,5.46.349,1.088.753,2.163,1.1,3.255.38,1.2.149,1.73-.972,2.33-1.288.688-2.586,1.367-3.875,2.065-.316.167-.6.4-.985.651.316.293.535.516.771.721a81.88,81.88,0,0,1,7.715,7.948,6.585,6.585,0,0,1,.485.591" transform="translate(-66.905 -40.536)" fill="#373635"/>
        <path id="パス_27403" data-name="パス 27403" d="M231.324,44.877a32.99,32.99,0,0,1-.739,6.646,10.6,10.6,0,0,1-6.9,8.04c-.233.1-.47.168-.768.27-.2,1.474-.456,2.916-.577,4.371a13.3,13.3,0,0,1-1.911,5.753c-.651,1.093-1.311,2.181-1.866,3.1-.018.939.006,1.694-.06,2.438-.1,1.078-.3,2.148-.391,3.227-.061.688-.009,1.386-.009,2.08,2.767-.139,2.507-.563,4.26,1.906,1.032,1.456,2.107,2.884,3.162,4.321.223.311.47.6.675.93.4.628.339,1.2-.131,1.516a.849.849,0,0,1-.2.107,1.262,1.262,0,0,0-.344.065,1.4,1.4,0,0,1-.953-.558,11.109,11.109,0,0,1-.707-.906q-1.361-1.843-2.726-3.694c-.377-.511-.763-1.013-1.2-1.59-.6.037-1.2.07-2.042.12a3.63,3.63,0,0,1,.8,3.023c-.223,4.459-.349,8.925-.7,13.371-.214,2.726-.73,5.432-1.186,8.13-1.2,7.041-2.5,14.06-3.627,21.106a186.016,186.016,0,0,1-5.94,24.5c-1.46,4.818-2.967,9.618-4.455,14.426-.111.368-.214.739-.354,1.093-.492,1.242-.9,1.353-2.162.591a4.626,4.626,0,0,1-.461.288c-.744.349-1.228.214-1.572-.461a4.957,4.957,0,0,1-.339-.888c-2.777-9.477-5.911-18.859-8.13-28.49-.912-3.971-1.614-7.995-2.307-12.013-1.125-6.529-2.079-13.093-3.255-19.612a125.424,125.424,0,0,1-1.823-22.849,3.356,3.356,0,0,1,.977-2.479h-2.233L179.152,85.4c-.619.818-1.232,1.647-1.856,2.46a1.246,1.246,0,0,0-1.316.033,5.693,5.693,0,0,0-1.288,1.116.786.786,0,0,1-.042-.838,8.635,8.635,0,0,1,.619-.962c1.288-1.744,2.632-3.452,3.851-5.237A2.591,2.591,0,0,1,182,80.627c.3.061.609.075,1.018.126a8.287,8.287,0,0,0-.1-2.5c-.07-.888-.237-1.771-.293-2.659-.056-.815-.014-1.628-.014-2.609-.344-.563-.749-1.288-1.209-1.971a16.9,16.9,0,0,1-2.744-8.446c-.065-.95-.218-1.888-.325-2.749-1.028-.531-1.967-.93-2.823-1.465a9.69,9.69,0,0,1-4.521-5.93,27.53,27.53,0,0,1-.786-10.237c.07-.567.214-1.126.33-1.683.354-1.674,1.125-2.982,3.023-3.3a3.423,3.423,0,0,0-.009-.8,35.181,35.181,0,0,1-1.037-8.9,17.651,17.651,0,0,1,5.065-13A67.688,67.688,0,0,1,189,4.95,32.213,32.213,0,0,1,200.783.137a6.947,6.947,0,0,1,3.59.219,16.318,16.318,0,0,1,5.66,3.1c.52.47,1.074.9,1.6,1.367a.984.984,0,0,1,.349.8.592.592,0,0,0-.3.1,2.882,2.882,0,0,0-.577-.1.608.608,0,0,0-.67.641,4.372,4.372,0,0,1-1.144-.823,12.45,12.45,0,0,0-3.622-2.442,8.043,8.043,0,0,0-6.307-.53,33.842,33.842,0,0,0-10.669,5.023,70.868,70.868,0,0,0-9.943,8.65,16.122,16.122,0,0,0-4.307,11.135,33.382,33.382,0,0,0,1.646,10.914,3.493,3.493,0,0,0,.154.35.851.851,0,0,1,.079.386.708.708,0,0,0-1.26.414c0,.163,0,.33,0,.5a.548.548,0,0,1-.144-.037c-.3-.111-.568-.3-.866-.4a.917.917,0,0,0-1.265.526,7.982,7.982,0,0,0-.572,1.814,22.287,22.287,0,0,0,.94,10.937,7.152,7.152,0,0,0,4.651,4.443,3.572,3.572,0,0,0-.042-1.865c-.488-4.177-.99-8.353-1.479-12.535a.062.062,0,0,0,0-.027.7.7,0,0,0,1.079-.753,1.786,1.786,0,0,1,.432-1.764,1.126,1.126,0,0,1,.432.674.855.855,0,0,1,.014.192c-.126,3.335.544,6.6.9,9.887.483,4.437,1.177,8.846,1.74,13.274a11.767,11.767,0,0,0,1.237,3.995,30.839,30.839,0,0,0,3.628,5.608c1.674,2.01,3.372,4,5.05,6a17.163,17.163,0,0,0,3.279,2.916,4.256,4.256,0,0,0,2.1.809,45.782,45.782,0,0,0,8.781.037,4,4,0,0,0,1.949-.72,18.093,18.093,0,0,0,3.567-3.164c1.651-1.943,3.32-3.869,4.962-5.822a31.414,31.414,0,0,0,3.659-5.59,12.355,12.355,0,0,0,1.279-4.182c.684-5.181,1.41-10.356,2.1-15.537.232-1.768.4-3.544.619-5.317a4.685,4.685,0,0,0-.186-2.073,131.967,131.967,0,0,0-5.181-13.771c-.991-2.139-2.1-4.222-3.242-6.283a23.354,23.354,0,0,0-1.786-2.469.269.269,0,0,1-.027-.042.614.614,0,0,0,.177-.056c.3-.13.353-.213.353-.213-.009.028-.051.168.154.484a2.3,2.3,0,0,0,.647.661c.72.539,1.418-.67.706-1.2a1.583,1.583,0,0,1-.4-.739,3.2,3.2,0,0,1,.5.563c.47.683.911,1.386,1.33,2.1a90.918,90.918,0,0,1,6.809,15.153c.6,1.623,1.228,3.241,1.809,4.869a.748.748,0,0,0-.186.5.761.761,0,0,0,.553.683,3.684,3.684,0,0,1,.014.987c-.372,3.232-.773,6.454-1.177,9.682-.168,1.33-.372,2.65-.539,3.981a11.213,11.213,0,0,0,0,1.251,5.545,5.545,0,0,0,.9-.3,7.861,7.861,0,0,0,4.177-5.2,23.235,23.235,0,0,0,.716-9.463c-.256-1.544-.246-1.544-1.479-2.86-.246.1-.5.209-.763.311a.7.7,0,0,0-1.014-.953c-.139.139-.274.283-.4.432a.968.968,0,0,0-.172.172l-.07.1c-.014-.024-.028-.051-.042-.075a.9.9,0,0,1,.168-1.064,2.744,2.744,0,0,1,.958-.591c.535-.2,1.1-.321,1.759-.507a23.739,23.739,0,0,0,.535-3.883c.186-1.325.251-2.664.335-4a15.9,15.9,0,0,0-.809-5.646,44.266,44.266,0,0,0-5.334-11.4,30.553,30.553,0,0,0-2.288-2.818,3.445,3.445,0,0,0-2.665-1.3c-.953-.013-1.906,0-2.86-.032h-.028a.64.64,0,0,0-.185-.549,10.494,10.494,0,0,1-.759-1.209,1.737,1.737,0,0,1,.818-.173c1.209-.009,2.423-.009,3.633.046a4.494,4.494,0,0,1,3.19,1.536,26.511,26.511,0,0,1,2.442,2.939,45.337,45.337,0,0,1,6.26,13.669,17.01,17.01,0,0,1,.442,6.446c-.275,2.279-.446,4.567-.7,6.851a2.771,2.771,0,0,0,.182,1.479,14.391,14.391,0,0,1,.972,5.613m-15.357,55.237c.823-4.572,1.079-13.445.423-15.567a102.662,102.662,0,0,0-11.618,6.121,6.5,6.5,0,0,0-2.056,1.516,15.989,15.989,0,0,0,2.688,1.562c.888.5,1.786.973,2.678,1.461.949.516,1.917,1.009,2.842,1.567.866.53,1.684,1.139,2.535,1.7a9.652,9.652,0,0,0,2.507,1.637m-.1-17.678c.2-2.055.39-4.069.609-6.367a8.682,8.682,0,0,0-1.033.838c-1.162,1.349-2.306,2.721-3.45,4.088a21.235,21.235,0,0,1-3.8,3.464,5.641,5.641,0,0,1-3.534,1.2c-1.144-.015-2.288.139-3.433.208a9.194,9.194,0,0,1-1.139.024c-1.335-.084-2.665-.227-4-.27a5.2,5.2,0,0,1-2.837-.972,21.959,21.959,0,0,1-4.6-4.274q-1.514-1.855-3.051-3.679c-.186-.227-.381-.53-.888-.278.177,1.971.358,3.994.539,6.031,4.8,2.349,9.367,5,13.9,7.721a2.36,2.36,0,0,0,2.689.037c.376-.237.757-.464,1.153-.678q6.034-3.285,12.073-6.572c.27-.149.521-.33.814-.52m-.251,20.2c-.842-.646-1.684-1.321-2.558-1.948a9.088,9.088,0,0,0-2.767-1.768c-1.554,2-3.037,3.986-4.6,5.9a3.966,3.966,0,0,0-.878,3.359c.7,4.459,1.325,8.934,1.995,13.4q1.068,7.172,2.167,14.339c.084.553.237,1.1.391,1.805.805-2.312,6.125-32.281,6.255-35.086m-7.776,41.741a3.439,3.439,0,0,0-.033-2.571,8.257,8.257,0,0,1-.437-2.428c-.107-.818-.135-1.65-.251-2.469-.4-2.773-.842-5.538-1.251-8.311-1.023-6.924-2.018-13.86-3.083-20.78a4.078,4.078,0,0,1,.758-3.4c1.3-1.652,2.562-3.335,3.833-5.009.376-.5.739-1.014,1.255-1.725-2.2-1.154-4.157-2.209-6.148-3.2a2.464,2.464,0,0,1-1.433-1.4c-.213-.6-.823-.568-1.1.075a2.466,2.466,0,0,1-1.321,1.279c-1.711.837-3.409,1.721-5.1,2.6-.368.2-.847.284-.991.865.275.381.563.8.87,1.2,1.261,1.679,2.5,3.381,3.809,5.023a4.451,4.451,0,0,1,.884,3.921c-.577,2.934-1.023,5.9-1.483,8.855-.614,3.963-1.2,7.929-1.777,11.9-.535,3.65-1.032,7.311-1.586,10.957-.158,1.055-.437,2.092-.721,3.413,2,7.995,4.744,16.073,7.246,24.226a5.842,5.842,0,0,0,.3.7.3.3,0,0,0,.125.135c.033.018.089-.009.251-.033.554-1.7,1.13-3.446,1.688-5.2,1.977-6.186,4.042-12.343,5.7-18.627m-9.562-52.288a7.934,7.934,0,0,0-.782-.665,106.688,106.688,0,0,0-11.841-6.539c-.325-.158-.683-.252-1.176-.428-.07.465-.117.651-.121.837a110.609,110.609,0,0,0,.456,14.1,3.153,3.153,0,0,0,.326.749c.935-.688,1.735-1.306,2.567-1.883s1.683-1.144,2.558-1.661,1.785-.972,2.683-1.456,1.8-.94,2.683-1.447a9.624,9.624,0,0,0,2.647-1.609m-2.14,15.677a3.193,3.193,0,0,0-.661-2.669c-1.474-1.837-2.874-3.739-4.316-5.6a6.705,6.705,0,0,0-.693-.647c-1.916,1.084-3.451,2.526-5.148,3.675.144,2.39,5.2,32.714,5.757,34.508.028.094.191.144.4.293.456-2.632.93-5.133,1.321-7.646.884-5.665,1.721-11.334,2.582-17q.376-2.456.758-4.912" transform="translate(-50.28 0)" fill="#373635"/>
        <path id="パス_27404" data-name="パス 27404" d="M252.881,128.478a1.284,1.284,0,0,1,.484,1.865l-1.023-.437a7.265,7.265,0,0,1-1.2-.577.836.836,0,0,1-.33-1.013,1,1,0,0,1,.371-.507c.54.2,1.168.409,1.7.67" transform="translate(-74.154 -37.795)" fill="#373635"/>
        <path id="パス_27405" data-name="パス 27405" d="M250.151,55.064a.7.7,0,0,1,.027.954c-.2.079-.4.158-.6.218a.924.924,0,0,1-1.056-.47l.07-.1a1,1,0,0,1,.172-.173c.13-.149.266-.293.4-.432a.7.7,0,0,1,.987,0" transform="translate(-73.492 -16.224)" fill="#373635"/>
        <path id="パス_27406" data-name="パス 27406" d="M249.947,56.4a.224.224,0,0,1-.027.032c-.261.261-.5.535-.735.818-.094.126-.186.251-.284.373a1.039,1.039,0,0,1-.3.3.671.671,0,0,1-.5.079,2.712,2.712,0,0,0-.121-.507c-.079-.227-.158-.456-.246-.679.111-.163.256-.307.349-.423.037-.046.079-.088.116-.135l.083-.112a.925.925,0,0,0,1.056.47c.2-.061.4-.139.6-.218" transform="translate(-73.261 -16.604)" fill="#373635"/>
        <path id="パス_27407" data-name="パス 27407" d="M249.171,127.2a.819.819,0,0,1-.344.066,1.261,1.261,0,0,1,.344-.066" transform="translate(-73.583 -37.616)" fill="#373635"/>
        <path id="パス_27408" data-name="パス 27408" d="M247.906,57.776a2.743,2.743,0,0,1,.121.507.761.761,0,0,1-.554-.684.749.749,0,0,1,.186-.5c.089.223.168.451.247.679" transform="translate(-73.182 -16.885)" fill="#373635"/>
        <path id="パス_27409" data-name="パス 27409" d="M233.118,10.4a.644.644,0,0,1,.185.549,2.522,2.522,0,0,1-1.066-.2,1.01,1.01,0,0,1-.427-.763,1.07,1.07,0,0,1,.46-.749.543.543,0,0,1,.088-.051,10.473,10.473,0,0,0,.759,1.209" transform="translate(-68.551 -2.717)" fill="#373635"/>
        <path id="パス_27410" data-name="パス 27410" d="M231,25.5s-.051.084-.354.214a.651.651,0,0,1-.177.056.845.845,0,0,1-.037-1.163,1.053,1.053,0,0,1,1.385-.154,2.994,2.994,0,0,1,.294.251,1.583,1.583,0,0,0,.4.739c.711.53.014,1.74-.707,1.2a2.3,2.3,0,0,1-.647-.66c-.2-.316-.163-.456-.154-.484" transform="translate(-68.08 -7.174)" fill="#373635"/>
        <path id="パス_27411" data-name="パス 27411" d="M228.942,7.977a.854.854,0,0,1-.121.409.927.927,0,0,1-1.173.363c-.083-.042-.171-.088-.255-.135a.608.608,0,0,1,.669-.642,2.89,2.89,0,0,1,.578.1.586.586,0,0,1,.3-.1" transform="translate(-67.245 -2.357)" fill="#373635"/>
        <path id="パス_27412" data-name="パス 27412" d="M226.913,23.035c.042.116.051.246.107.507a3.775,3.775,0,0,1-.618.763.732.732,0,0,1-1.014-.232l-.042-.056c.4-.544.892-1.051,1.321-1.581.089.2.168.4.246.6" transform="translate(-66.639 -6.634)" fill="#373635"/>
        <path id="パス_27413" data-name="パス 27413" d="M225.637,20.566a8.69,8.69,0,0,1,.72,1.316c-.428.53-.921,1.037-1.321,1.581a6.21,6.21,0,0,1-.642-1.083c-.028-.056-.061-.116-.093-.173a11.972,11.972,0,0,0,1.335-1.642" transform="translate(-66.331 -6.082)" fill="#373635"/>
        <path id="パス_27414" data-name="パス 27414" d="M221.638,17.268a6.048,6.048,0,0,1,2.693,2.251A11.929,11.929,0,0,1,223,21.161a4.505,4.505,0,0,0-2.116-2.1,2,2,0,0,1-.773-.535,1.325,1.325,0,0,1-.213-.865.787.787,0,0,1,.837-.632,2.209,2.209,0,0,1,.907.242" transform="translate(-65.025 -5.035)" fill="#373635"/>
        <path id="パス_27415" data-name="パス 27415" d="M208.4,25.194a.855.855,0,0,1,.535,1.084A1.073,1.073,0,0,1,207.93,27a3.5,3.5,0,0,1-.921-.219c-.479-.176-.935-.409-1.405-.6a8.18,8.18,0,0,0-5.613-.209,17.717,17.717,0,0,0-7.632,4.539,44.02,44.02,0,0,0-7.92,10.716c-.74,1.474-1.675,2.856-2.558,4.251a4.375,4.375,0,0,1-.791.916.7.7,0,0,0-1.181-.6,4.784,4.784,0,0,0-.372.414.917.917,0,0,1-.024-.679,2.42,2.42,0,0,1,.363-.666,51.137,51.137,0,0,0,3.832-6.386,42.129,42.129,0,0,1,8.483-10.52,18.529,18.529,0,0,1,8.278-4.167,17.912,17.912,0,0,1,2.354-.27c.749.154,1.762.293,2.73.577a13.826,13.826,0,0,1,1.33.465,8.02,8.02,0,0,0,.284,1.447c.3.842,1.647.479,1.349-.372a4.485,4.485,0,0,1-.135-.456c.009,0,.013,0,.023.009" transform="translate(-53.07 -6.957)" fill="#373635"/>
        <path id="パス_27416" data-name="パス 27416" d="M220.032,26.078c.3.851-1.051,1.213-1.349.372A7.949,7.949,0,0,1,218.4,25c.5.2,1,.409,1.5.618a4.673,4.673,0,0,0,.135.456" transform="translate(-64.585 -7.394)" fill="#373635"/>
        <path id="パス_27417" data-name="パス 27417" d="M212.654,252.947a.943.943,0,0,1,.963,1.26c-.223.711-.614,1.107-1.2,1.125a1.509,1.509,0,0,1-.447-.176,1.289,1.289,0,0,1-.358-1.535,1.055,1.055,0,0,1,1.037-.674" transform="translate(-62.547 -74.802)" fill="#373635"/>
        <path id="パス_27418" data-name="パス 27418" d="M188.849,201.985a1.107,1.107,0,0,1-.223.856.761.761,0,0,1-1.037.163,3.7,3.7,0,0,1-.944-.916c-.958-1.349-1.935-2.693-2.8-4.107q-5.476-8.98-10.873-17.994c-2.911-4.869-5.776-9.763-8.655-14.646-.321-.549-.632-1.106-.912-1.679a1.354,1.354,0,0,1,.154-1.446c.223-.307.47-.6.725-.889a81.145,81.145,0,0,1,7.507-7.622c.237-.2.46-.428.911-.856-1.623-.9-3-1.679-4.4-2.418-1.8-.949-1.9-1.261-1.256-3.135.823-2.409,1.572-4.845,2.372-7.265a17.854,17.854,0,0,1,.9-2.311,1.716,1.716,0,0,1,2.126-.832c.67.209.959,1.172.377,1.5a3.556,3.556,0,0,0-1.507,2.316c-.749,2.236-1.478,4.474-2.2,6.715a7.914,7.914,0,0,0-.172,1c1.14.642,2.251,1.246,3.344,1.888a27.068,27.068,0,0,1,2.428,1.516c.925.679.754,2.521-.33,2.842a7.17,7.17,0,0,0-2.665,1.767,48.826,48.826,0,0,0-5.781,6.1c-.158.192-.27.419-.456.7.647,1.177,1.256,2.357,1.935,3.5q7.966,13.394,15.962,26.757c1.446,2.4,3.088,4.678,4.632,7.017a8.109,8.109,0,0,1,.842,1.479" transform="translate(-48.282 -40.452)" fill="#373635"/>
        <path id="パス_27419" data-name="パス 27419" d="M179.942,55.062a.7.7,0,0,1,1.181.6c-.074.07-.154.135-.232.2a.78.78,0,0,1-1.051-.028,1.021,1.021,0,0,1-.27-.358,4.785,4.785,0,0,1,.372-.414" transform="translate(-53.103 -16.222)" fill="#373635"/>
        <path id="パス_27420" data-name="パス 27420" d="M180.181,55.982c.079-.065.158-.13.232-.2a.641.641,0,0,1-.2.386,4.291,4.291,0,0,0-.316.349.848.848,0,0,0-.293-.121.924.924,0,0,0-.982.447,1.97,1.97,0,0,0-.3.889,6.78,6.78,0,0,0,.061,1.3.42.42,0,0,1-.089-.075,3.6,3.6,0,0,1-.977-1.474,5,5,0,0,1-.154-1.311.955.955,0,0,0,.912-.266.98.98,0,0,0,.344-.647.65.65,0,0,1,.135.414c0,.107,0,.219,0,.33a4.587,4.587,0,0,1,.3-.409,1.02,1.02,0,0,0,.27.358.78.78,0,0,0,1.051.028" transform="translate(-52.393 -16.342)" fill="#373635"/>
        <path id="パス_27421" data-name="パス 27421" d="M180.091,56.864a.821.821,0,0,1,.292.121,1.788,1.788,0,0,0-.432,1.763.705.705,0,0,1-1.079.754,6.79,6.79,0,0,1-.061-1.3,1.958,1.958,0,0,1,.3-.888.922.922,0,0,1,.981-.447" transform="translate(-52.875 -16.81)" fill="#373635"/>
        <path id="パス_27422" data-name="パス 27422" d="M179.254,124.679c-.149.2-.3.4-.451.591a5.55,5.55,0,0,1-.773.842.923.923,0,0,1-1.218-.075,1.145,1.145,0,0,1-.163-.209,5.762,5.762,0,0,1,1.288-1.116,1.246,1.246,0,0,1,1.316-.032" transform="translate(-52.239 -36.819)" fill="#373635"/>
        <path id="パス_27423" data-name="パス 27423" d="M178.426,55.152a.987.987,0,0,1-.344.647.953.953,0,0,1-.912.265c0-.167,0-.335,0-.5a.709.709,0,0,1,1.261-.414" transform="translate(-52.391 -16.233)" fill="#373635"/>
        <path id="パス_27424" data-name="パス 27424" d="M175.214,128.154a.87.87,0,0,1-.311,1.018,2.9,2.9,0,0,1-.661.372h0a1.365,1.365,0,0,1,.368-1.3,4.982,4.982,0,0,1,.451-.386.889.889,0,0,1,.158.293" transform="translate(-51.514 -37.811)" fill="#373635"/>
        <path id="パス_27425" data-name="パス 27425" d="M159.584,127.733a4.985,4.985,0,0,0-.451.386,1.367,1.367,0,0,0-.367,1.3c-5.669,2.139-11.092,4.823-16.617,7.283-5.655,2.521-11.278,5.1-16.915,7.651a1.358,1.358,0,0,0-.925-.363,6.468,6.468,0,0,0-2.428.326.788.788,0,0,1,.051-.321,1.873,1.873,0,0,1,1.191-1.139c1.13-.419,2.265-.838,3.367-1.326q13.6-6.09,27.2-12.2c1.279-.572,2.576-1.093,3.883-1.6a4.236,4.236,0,0,1,1.292-.293.822.822,0,0,1,.721.3" transform="translate(-36.042 -37.683)" fill="#373635"/>
        <path id="パス_27426" data-name="パス 27426" d="M104.832,248.531a3.866,3.866,0,0,1,.023.4,1.435,1.435,0,0,0-.832.391,1.287,1.287,0,0,0-.391.823,1.022,1.022,0,0,1-.754-.875c-.181-1.26-.288-2.535-.474-3.8q-.991-6.71-2.028-13.421a13.494,13.494,0,0,0-.52-1.628c-.525,1.953-.94,3.483-1.349,5.008-1.023,3.819-1.99,7.651-3.088,11.441-.475,1.647-1.213,3.214-1.842,4.814a5.02,5.02,0,0,1-1.758,2.209c-.972.725-1.856,1.563-2.833,2.273-1.6,1.163-3.181,2.359-4.874,3.363a71.4,71.4,0,0,1-9.455,4.576,31.3,31.3,0,0,0-3.6,1.74c-.7.4-1.209.084-1.869-.187-2.14,1.271-4.539,1.005-6.837.619a7.121,7.121,0,0,1-5.357-3.618,3.719,3.719,0,0,0-.432-.517c-.488.28-.986.54-1.461.837-2.981,1.842-5.948,3.712-8.938,5.539a31.232,31.232,0,0,1-8.772,3.7c-4.2,1.056-8.418,2.046-12.608,3.148a5.751,5.751,0,0,1-3.19-.106,4.94,4.94,0,0,1-1.475-.814,6.891,6.891,0,0,1-.916-1.018c-1.828.381-3.632.763-5.432,1.14-.065.014-.125.028-.186.046-2.9.768-4.26-.208-5.129-2.548a1.008,1.008,0,0,0-.149-.181c-.851,0-1.739-.037-2.619.009-2.948.158-4.293-1.437-3.7-4.414.013-.061-.019-.125-.056-.293-.218-.186-.516-.418-.781-.679a3.545,3.545,0,0,1-.6-4.526A5.749,5.749,0,0,1,2.5,259.9,27.6,27.6,0,0,1,6.022,258c2.3-.944,4.651-1.749,6.981-2.6.6-.218,1.209-.4,1.818-.6a21.8,21.8,0,0,0,6.9-3.613c2.539-2.023,5.167-3.944,7.743-5.925a10.011,10.011,0,0,0,.991-.986c-.139-.47-.442-.391-.67-.409-2.1-.163-4.195-.354-6.3-.437a13.933,13.933,0,0,0-2.837.265c-1.191.2-2.354.586-3.549.749a19.593,19.593,0,0,1-3.614.182,4.116,4.116,0,0,1-3.278-2.056,2.6,2.6,0,0,1,.125-3.2,4.01,4.01,0,0,1,2.3-1.618c5.158-1.176,10.162-2.916,15.25-4.344a5.666,5.666,0,0,1,1.688-.162c2.8.083,5.609.325,8.409.274a45.635,45.635,0,0,1,10.594,1.292c1.986.432,4.009.68,5.9.986.754-.628,1.386-1.153,2.009-1.688.144-.12.358-.261.377-.409.154-1.158,1.088-1.3,1.945-1.539,2.451-.684,4.906-1.358,7.362-2.047.549-.154,1.088-.33,1.833-.562.865-4.242,1.818-8.344,2.521-12.484,2.009-11.877,3.907-23.774,5.865-35.657,1.111-6.729,2.228-13.459,3.4-20.174.293-1.693.753-3.358,1.2-5.019a8.788,8.788,0,0,1,2.033-3.641,2.022,2.022,0,0,1,.572-.488.921.921,0,0,1,1.182.237,1.208,1.208,0,0,0-.135,1.242c-.018.051-.032.108-.046.163a2.042,2.042,0,0,1-.237.321,7.976,7.976,0,0,0-1.707,3.59c-.6,2.735-1.223,5.474-1.688,8.237-1.3,7.665-2.521,15.348-3.772,23.021-1.33,8.176-2.614,16.362-4,24.527-.823,4.838-1.818,9.646-2.74,14.465-.056.3-.088.6-.144.953,1.349.144,2.609.247,3.861.424a28.068,28.068,0,0,1,9.538,3.246,14.733,14.733,0,0,1,6.679,7.845,7.222,7.222,0,0,1,.391,1.671,1,1,0,0,1-.735.994.911.911,0,0,1-1.069-.59c-.163-.414-.247-.856-.41-1.274a12.939,12.939,0,0,0-5.753-6.911,25.116,25.116,0,0,0-10.139-3.172,10.569,10.569,0,0,0-3.609.27c-2.647.707-5.269,1.5-7.9,2.265-.093.028-.154.173-.312.363a5.341,5.341,0,0,0,.6.349c1.163.512,2.358.963,3.5,1.521a7.391,7.391,0,0,1,3.455,3.455c.558,1.14,1.13,2.275,1.693,3.414a2.4,2.4,0,0,0,.237.507,12.967,12.967,0,0,1,2.655,6.446,22.694,22.694,0,0,1,.4,7.6,17.239,17.239,0,0,1-1.316,4.576c-.149.32-.266.66-.465,1.176a4.95,4.95,0,0,0,.883-.121,64.361,64.361,0,0,0,11.357-5.445c1.511-.935,2.883-2.1,4.3-3.177.656-.5,1.232-1.125,1.921-1.576a5.451,5.451,0,0,0,2.1-2.647,34.411,34.411,0,0,0,1.353-3.572c1.191-4.3,2.289-8.618,3.461-12.924q.85-3.132,1.846-6.227a5.1,5.1,0,0,0,.209-2.786c-1.66-7.6-3.227-15.212-4.906-22.8-1.991-9.023-3.883-18.068-5.567-27.152-.391-2.129-.865-4.245-1.354-6.357a8.933,8.933,0,0,1-.144-3.041,2.547,2.547,0,0,1,.261-.9.759.759,0,0,1,.967-.4,1.917,1.917,0,0,1,.642.614.52.52,0,0,1,.065.368c-.311,2.083.335,4.046.716,6.041,1.232,6.385,2.4,12.78,3.734,19.142,1.68,7.981,3.512,15.929,5.26,23.9.618,2.8,1.172,5.613,1.772,8.417a4.1,4.1,0,0,0,.875,2.275,1.221,1.221,0,0,1,.163,1.056,4.084,4.084,0,0,0,.013,2.065q1.486,8.964,2.945,17.924c.153.944.251,1.9.363,2.845m-33.491,8.488a8.6,8.6,0,0,0,.237-3.307,20.444,20.444,0,0,0-2.288-8.794,5.617,5.617,0,0,1-.288-.9c-.065-.172-.116-.4-.246-.488-.991-.711-1.265-1.883-1.87-2.842a8.666,8.666,0,0,0-1.525-2.158,13.714,13.714,0,0,0-6.577-2.842,1.835,1.835,0,0,0-1.888.665,10.445,10.445,0,0,1,1.93.637,5.722,5.722,0,0,0,2.018.442,1.861,1.861,0,0,1,.7.3,13.678,13.678,0,0,1,5.236,5.157,23.176,23.176,0,0,1,2.586,11.042,6.9,6.9,0,0,1-.2,1.506c-.311,1.228-.861,1.418-2.079.772a2.207,2.207,0,0,0-.47-.111c-.377.292-.813.628-1.344,1.032.5.53.93.972,1.363,1.428,1.609-.53,3.112-1.018,4.711-1.544m-.539,2.5a2.239,2.239,0,0,0-.59-.032c-.777.265-1.554.549-2.326.823-1.805.642-2.074.573-3.265-.856-.121-.144-.246-.287-.363-.437a1.252,1.252,0,0,1-.186-1.261c.079-.223.172-.442.372-.958-2.083,1.6-4.144,2.679-5.911,4.088a3.446,3.446,0,0,0,1.544,2.238c2.056,1.507,4.39,1.516,6.748,1.275a2.894,2.894,0,0,0,1.94-1.125,9.812,9.812,0,0,0,2.037-3.754m-3.423-6.241a18.2,18.2,0,0,0-1.958-8.478c-.028-.051-.181-.037-.293-.051,0-.009,0-.019-.009-.028a.266.266,0,0,1-.014-.028c.13-.553.079-.637-.409-.682a.116.116,0,0,1-.019-.028c0-.014-.009-.024-.013-.037.046-.135.1-.266.135-.4.009-.027-.061-.075-.1-.111-.051.074-.144.149-.144.218a1.078,1.078,0,0,0,.107.3c-.01.018-.014.042-.023.06.018,0,.037.006.056.006.135.228.274.455.409.682,0,.015-.009.033-.014.051a.1.1,0,0,0,.037,0c.139.414.3.819.4,1.242a1.047,1.047,0,0,1-.563,1.279,1,1,0,0,1-1.256-.582c-.056-.112-.084-.242-.139-.354a37.622,37.622,0,0,0-1.706-3.419,23.884,23.884,0,0,0-2.289-3,2.857,2.857,0,0,0-2.092-1.2,1.468,1.468,0,0,1-.884-.27,3.985,3.985,0,0,0-2.149-.684c-2.757-.483-5.515-.981-8.278-1.451-1.633-.274-3.269-.577-4.916-.721s-3.312-.088-4.967-.139c-2.167-.065-4.334-.172-6.5-.214a6.706,6.706,0,0,0-1.874.228c-2.888.8-5.762,1.637-8.642,2.46-1.9.544-3.79,1.112-5.692,1.633a1.659,1.659,0,1,0,.437,3.182,14.4,14.4,0,0,0,2.856-.182c1.19-.2,2.358-.535,3.535-.823a9.5,9.5,0,0,1,3.218-.284c1.652.168,3.3.289,4.958.414,1.456.111,2.911.2,4.321.306.516-.427.944-.8,1.4-1.154a3.476,3.476,0,0,1,.809-.492.854.854,0,0,1,1.032.274.81.81,0,0,1,.093,1.051,3.832,3.832,0,0,1-.646.693c-2.674,2.33-5.386,4.614-8.167,6.808q-2.5,1.981-5.093,3.856a22.438,22.438,0,0,1-6.06,3.171c-.907.3-1.828.568-2.726.889-2.162.772-4.334,1.5-6.46,2.367a18.919,18.919,0,0,0-3.339,1.828,5.4,5.4,0,0,0-1.53,1.666,1.4,1.4,0,0,0,.791,2.143,8.3,8.3,0,0,0,.828.266,22.973,22.973,0,0,1,5.316-2.372c2.972-.949,5.934-1.935,8.911-2.874a16.553,16.553,0,0,0,4.81-2.3c1.7-1.237,3.353-2.534,5.013-3.828a11.374,11.374,0,0,0,.968-.953,8.769,8.769,0,0,1-.791-.7.824.824,0,0,1-.088-1.056.961.961,0,0,1,.567-.4,1.094,1.094,0,0,1,.619.042,5.872,5.872,0,0,1,.679.339,16.535,16.535,0,0,1,2.7,1.73,23.042,23.042,0,0,0,6.25,3.251,3.768,3.768,0,0,1,1.167.591.973.973,0,0,1,.2.851,1.008,1.008,0,0,1-.665.582,1.279,1.279,0,0,1-.261.023,2.976,2.976,0,0,1-.847-.158c-.6-.187-1.172-.447-1.688-.651-2.516,1.833-4.962,3.562-7.348,5.363a15.974,15.974,0,0,1-5.26,2.646c-.283.083-.563.162-.846.246-2.711.792-5.423,1.61-8.134,2.4a14.513,14.513,0,0,0-4.014,1.754,1.391,1.391,0,0,0-.539,1.837,1.5,1.5,0,0,0,1.856.968c1.94-.368,3.864-.805,5.79-1.242a1.931,1.931,0,0,0,1.247-.824,7.213,7.213,0,0,1,4.39-2.846c1.284-.363,2.59-.679,3.85-1.121a28.443,28.443,0,0,0,7.767-3.6c1.637-1.209,3.381-2.279,5.083-3.4a7.332,7.332,0,0,1,.814-.5.94.94,0,0,1,1.2.238.979.979,0,0,1-.07,1.232,11.387,11.387,0,0,1-1.363,1.042q-2.678,1.835-5.386,3.637a8.62,8.62,0,0,1-1.628.991q-3.558,1.388-7.158,2.665c-.958.344-1.967.535-2.939.847a5.861,5.861,0,0,0-2.34,1.251,1.228,1.228,0,0,0-.427,1.368,1.144,1.144,0,0,0,.985.781,8.354,8.354,0,0,0,3.409-.167c3.707-.935,7.418-1.856,11.115-2.819a31.392,31.392,0,0,0,8.925-3.823c5.223-3.311,10.427-6.65,15.641-9.971.683-.437,1.306-1.051,2.246-.879a.828.828,0,0,0,.511-.177c1.047-.706,2.089-1.423,3.293-2.251m-33.811,4.176a10.149,10.149,0,0,0,.879-.814c-1.223-.753-2.358-1.447-3.585-2.2-.368.242-.586.367-.782.516-1.558,1.213-3.092,2.451-4.664,3.646a22.361,22.361,0,0,1-7.441,3.758c-3.051.88-6.065,1.911-9.064,2.953A28.612,28.612,0,0,0,5.454,266.9a5.251,5.251,0,0,0-1.209.921,1.13,1.13,0,0,0-.358,1.372,1.149,1.149,0,0,0,1.19.767c.7-.027,1.4-.074,2.1-.083a3.234,3.234,0,0,0,2.055-.847,10.5,10.5,0,0,1,2.409-1.5c1.34-.573,2.735-1.018,4.125-1.456,2.911-.912,5.837-1.777,8.753-2.665a9.71,9.71,0,0,0,2.883-1.446q3.084-2.247,6.167-4.5" transform="translate(0 -44.938)" fill="#373635"/>
        <path id="パス_27427" data-name="パス 27427" d="M148.368,289.643c0,.061,0,.116,0,.177a1.1,1.1,0,0,1-.917,1.065.666.666,0,0,1-.3-.027,1.287,1.287,0,0,1,.391-.823,1.436,1.436,0,0,1,.832-.391" transform="translate(-43.514 -85.653)" fill="#373635"/>
        <path id="パス_27428" data-name="パス 27428" d="M125.234,151.3c-.223.1-.447.2-.67.3-.572.256-1.172.456-1.488.577-.744-.023-1.177-.447-1.2-.916a6.482,6.482,0,0,1,2.428-.325,1.358,1.358,0,0,1,.925.363" transform="translate(-36.043 -44.636)" fill="#373635"/>
        <path id="パス_27429" data-name="パス 27429" d="M120.259,152.473a.8.8,0,0,1,.093.92,4.824,4.824,0,0,1-.275.484c.014-.056.028-.111.046-.163a1.208,1.208,0,0,1,.135-1.242" transform="translate(-35.49 -45.089)" fill="#373635"/>
        <path id="パス_27430" data-name="パス 27430" d="M79.409,286.707a3.773,3.773,0,0,1-.73.874,2.371,2.371,0,0,1-.93.149,12.633,12.633,0,0,0-5.665,2.135,22.926,22.926,0,0,0-5.386,5.106,7.087,7.087,0,0,1-1.167,1.224.858.858,0,0,1-1.191-.2.832.832,0,0,1-.065-1.061c.372-.511.791-.991,1.209-1.47a30.45,30.45,0,0,1,5.6-5.176,14.652,14.652,0,0,1,5.781-2.391,4.412,4.412,0,0,1,1.692.014c.3.065.517.47.851.8" transform="translate(-18.96 -84.522)" fill="#373635"/>
        <path id="パス_27431" data-name="パス 27431" d="M229.859,50.18a1.073,1.073,0,0,1,.539,1.437c-.27.506-.777.679-1.451.3-1.325-.739-2.7-.512-4.074-.358-.437.047-.861.209-1.3.266a.9.9,0,0,1-1.005-.675.982.982,0,0,1,.516-1.116,6.576,6.576,0,0,1,1.442-.432c.749-.121,1.511-.158,2.377-.242a8.42,8.42,0,0,1,1.4.168,6.279,6.279,0,0,1,1.558.651" transform="translate(-65.811 -14.597)" fill="#373635"/>
        <path id="パス_27432" data-name="パス 27432" d="M227.437,63.689a1.218,1.218,0,0,1-1.093,1.293,1.031,1.031,0,0,1-1.07-1.066,1.091,1.091,0,1,1,2.163-.227" transform="translate(-66.617 -18.52)" fill="#373635"/>
        <path id="パス_27433" data-name="パス 27433" d="M218.158,93.04c1.284.075,1.754.7,1.33,1.874a24.325,24.325,0,0,1-1.335,3.166,23.3,23.3,0,0,1-3.414,4.833c-.3.33-.632.623-.954.935a4.2,4.2,0,0,1-3.5,1.158,6.324,6.324,0,0,1-4.725-2.544,37.21,37.21,0,0,1-4.019-6.939,3.512,3.512,0,0,1-.237-.72c-.251-1.168.186-1.665,1.358-1.656,2.488.018,4.972,0,7.46,0v-.115h6.883c.386,0,.768-.018,1.149,0m-1.265,3.143a4.989,4.989,0,0,0,.223-1.059,93.333,93.333,0,0,0-13.245.362,1.864,1.864,0,0,0,.084.54,27.9,27.9,0,0,0,3.167,5.213,4.784,4.784,0,0,0,.954.935,3.512,3.512,0,0,0,4.962-.33,19.64,19.64,0,0,0,3.855-5.661" transform="translate(-59.511 -27.51)" fill="#373635"/>
        <path id="パス_27434" data-name="パス 27434" d="M214.323,83.932a.962.962,0,0,1,.814,1.1.974.974,0,0,1-.959.759c-.381.032-.763.009-1.144.009v.032c-.507-.023-1.018-.018-1.521-.074a.978.978,0,0,1-.832-.9.965.965,0,0,1,.8-.935,25.073,25.073,0,0,1,2.846.008" transform="translate(-62.303 -24.807)" fill="#373635"/>
        <path id="パス_27435" data-name="パス 27435" d="M200.289,51.261a.97.97,0,0,1-1.228.958,6.813,6.813,0,0,0-3.168-.344,5.808,5.808,0,0,0-2.553.623,1.958,1.958,0,0,1-1.083.2.867.867,0,0,1-.54-1.335,2.763,2.763,0,0,1,.712-.6,10.5,10.5,0,0,1,6.279-.791,4.577,4.577,0,0,1,1.288.735c.177.135.232.432.293.554" transform="translate(-56.65 -14.72)" fill="#373635"/>
        <path id="パス_27436" data-name="パス 27436" d="M200.808,62.884a1.085,1.085,0,0,1,.861,1.251.993.993,0,0,1-1.144.949.974.974,0,0,1-.9-1.013,1.161,1.161,0,0,1,1.181-1.186" transform="translate(-59.034 -18.595)" fill="#373635"/>
      </g>
    </g>
  </g>
</svg>
