<svg xmlns="http://www.w3.org/2000/svg" xmlns:xlink="http://www.w3.org/1999/xlink" width="360" height="360" viewBox="0 0 360 360">
  <defs>
    <clipPath id="clip-path">
      <rect id="長方形_6724" data-name="長方形 6724" width="319.848" height="170.51" fill="none"/>
    </clipPath>
  </defs>
  <g id="グループ_19043" data-name="グループ 19043" transform="translate(-120 -11231)">
    <g id="長方形_6864" data-name="長方形 6864" transform="translate(120 11231)" fill="none" stroke="#4b3928" stroke-width="1">
      <rect width="360" height="360" rx="16" stroke="none"/>
      <rect x="0.5" y="0.5" width="359" height="359" rx="15.5" fill="none"/>
    </g>
    <path id="パス_109575" data-name="パス 109575" d="M-7.08.336A5.063,5.063,0,0,1-10.26-.708a6.638,6.638,0,0,1-2.1-3.06A14.363,14.363,0,0,1-13.1-8.712a14.134,14.134,0,0,1,.744-4.932,6.4,6.4,0,0,1,2.1-2.988A5.184,5.184,0,0,1-7.08-17.64,5.184,5.184,0,0,1-3.9-16.632a6.4,6.4,0,0,1,2.1,2.988,14.134,14.134,0,0,1,.744,4.932A14.363,14.363,0,0,1-1.8-3.768,6.638,6.638,0,0,1-3.9-.708,5.063,5.063,0,0,1-7.08.336Zm0-2.76a1.97,1.97,0,0,0,1.392-.564,3.928,3.928,0,0,0,.936-1.944,16.712,16.712,0,0,0,.336-3.78,16.356,16.356,0,0,0-.336-3.768,3.645,3.645,0,0,0-.936-1.872A2.043,2.043,0,0,0-7.08-14.88a2.027,2.027,0,0,0-1.356.528,3.711,3.711,0,0,0-.972,1.872,15.3,15.3,0,0,0-.36,3.768,15.635,15.635,0,0,0,.36,3.78,4,4,0,0,0,.972,1.944A1.957,1.957,0,0,0-7.08-2.424ZM1.968,0V-2.88h3.84V-13.608H2.568v-2.208a15.133,15.133,0,0,0,2.316-.624A10.808,10.808,0,0,0,6.7-17.3H9.312V-2.88h3.336V0Z" transform="translate(300 11284)" fill="#3a3a3a"/>
    <g id="グループ_18900" data-name="グループ 18900" transform="translate(-675.848 -3011.922)">
      <g id="グループ_14064" data-name="グループ 14064" transform="translate(812 14363.42)">
        <g id="グループ_14063" data-name="グループ 14063" clip-path="url(#clip-path)">
          <path id="パス_21542" data-name="パス 21542" d="M882.156,279.875c-.037.128-.074.262-.119.389a.884.884,0,0,1-.741.381,1.009,1.009,0,0,1-.688-.449,1.269,1.269,0,0,1-.15-.486h1a1.446,1.446,0,0,1,.7.165" transform="translate(-616.934 -195.992)" fill="#474645"/>
          <path id="パス_21543" data-name="パス 21543" d="M864.05,279.734a3.121,3.121,0,0,1-.33.764,1.538,1.538,0,0,1-.838.03,1.353,1.353,0,0,1,1.168-.794" transform="translate(-604.618 -196.009)" fill="#474645"/>
          <path id="パス_21544" data-name="パス 21544" d="M153.495,273.56a1.841,1.841,0,0,1,.381,1.6,1.981,1.981,0,0,1-.21.554,5.369,5.369,0,0,1-.171-2.155" transform="translate(-107.534 -191.683)" fill="#474645"/>
          <path id="パス_21545" data-name="パス 21545" d="M139.95,272.336c.007.449,0,.9-.031,1.347a1.6,1.6,0,0,1,.031-1.347" transform="translate(-97.947 -190.825)" fill="#474645"/>
          <path id="パス_21546" data-name="パス 21546" d="M138.117,277.683c-.015.255-.044.51-.082.764a1.073,1.073,0,0,1-.786.688h-.008a.462.462,0,0,1-.007-.1,1.506,1.506,0,0,1,.883-1.355" transform="translate(-96.159 -194.572)" fill="#474645"/>
          <path id="パス_21547" data-name="パス 21547" d="M184.045,454.866q-9.9,15.041-19.772,30.106c-.606.92-1.452,1.751-1.52,3.008a1.679,1.679,0,0,0,.748.344,1.251,1.251,0,0,1,1.34-.673,20.256,20.256,0,0,0,1.437-2.021q10.478-15.93,20.937-31.87c-1.039.412-2.111.757-3.17,1.106" transform="translate(-114.04 -317.948)" fill="#474645"/>
          <path id="パス_21548" data-name="パス 21548" d="M341.432,282.778l-26.139.124c-.673,1.063-1.317,2.11-1.991,3.127q-6.114,9.274-12.239,18.546a12.115,12.115,0,0,1,.621,2.765q6.566-9.935,13.137-19.867a8.549,8.549,0,0,1,2.147-2.664l24.505-.069c0-.655,0-1.31-.042-1.963" transform="translate(-210.955 -198.142)" fill="#474645"/>
          <path id="パス_21549" data-name="パス 21549" d="M792.962,388.623c-.751.094-1.5.207-2.245.332q6.116,9.572,12.23,19.143,10.18,15.949,20.353,31.9a13.774,13.774,0,0,0,1.818,2.455,1.14,1.14,0,0,0,.778.366c.367,0,.756-.239,1.086-.838q-17.018-26.644-34.02-53.356" transform="translate(-554.053 -272.307)" fill="#474645"/>
          <path id="パス_21550" data-name="パス 21550" d="M631.541,291.959q-3.4-5.3-6.806-10.592l-44.242.215a1.633,1.633,0,0,1-.068.308,15.53,15.53,0,0,0-.443,1.742l43.6-.118c.636.928,1.295,1.834,1.893,2.769q1.976,3.089,3.948,6.18c.707-.162,1.413-.328,2.117-.5" transform="translate(-406.391 -197.153)" fill="#474645"/>
          <path id="パス_21551" data-name="パス 21551" d="M166.593,566.962c-.06.068-.12.142-.18.209a1.62,1.62,0,1,1,.18-.209" transform="translate(-115.792 -397.26)" fill="#474645"/>
          <path id="パス_21552" data-name="パス 21552" d="M208.859,474.6a1.123,1.123,0,0,1-1.087-.848c-.139-.549-1.054-5.7-1.151-7.173a1.122,1.122,0,1,1,2.24-.146c.088,1.346.987,6.368,1.089,6.77a1.123,1.123,0,0,1-.815,1.363,1.143,1.143,0,0,1-.275.034" transform="translate(-144.776 -326.093)" fill="#474645"/>
          <path id="パス_21553" data-name="パス 21553" d="M1028.142,537.773c-.718-.173-.995-.808-.763-1.908.053-.262.112-.531.172-.794a1.324,1.324,0,0,1,1.055.464,4.868,4.868,0,0,1,.906,1.422,1.233,1.233,0,0,1-1.37.816" transform="translate(-719.825 -374.922)" fill="#474645"/>
          <path id="パス_21554" data-name="パス 21554" d="M1008.4,335.851a1.514,1.514,0,0,1-1.1,1.354,1.812,1.812,0,0,1-.2.037,1.561,1.561,0,0,1-1.488-.726,1,1,0,0,1-.09-.15,17.09,17.09,0,0,0,2.843-.509c.015,0,.023-.007.037-.007" transform="translate(-704.562 -235.33)" fill="#474645"/>
          <path id="パス_21555" data-name="パス 21555" d="M1004.841,328.33a1.475,1.475,0,0,1,.838-.614,1.432,1.432,0,0,1,1.489.441,8.1,8.1,0,0,1-2.043.173Z" transform="translate(-704.089 -229.589)" fill="#474645"/>
          <path id="パス_21556" data-name="パス 21556" d="M965.559,380.694c5.971,2.679,10.828-1,11.965-6.038a60.131,60.131,0,0,0,1.556-10.94c.307-8.254.269-16.514.367-24.775.007-.456-.037-.905-.06-1.362-.591.053-1.167.128-1.744.2l-.082-.667a1.818,1.818,0,0,0,.2-.037,1.514,1.514,0,0,0,1.1-1.354c1.055-.262,1.819.434,2.649.845.24.12.344.718.337,1.1-.074,3.383-.224,6.764-.284,10.146-.1,5.484-.067,10.977-.247,16.462a52.13,52.13,0,0,1-1.527,10.947,11.571,11.571,0,0,1-6.323,7.894,8.437,8.437,0,0,1-4.153.9c-.015-.292-.022-.576-.03-.861a1.5,1.5,0,0,0-2.978-.2,11.764,11.764,0,0,0-1.316-.906,1.347,1.347,0,0,0-1.145-.165c-.076-.583-.143-1.16-.225-1.743a1.325,1.325,0,0,0-.254-.636,15.388,15.388,0,0,0,2.192,1.2" transform="translate(-675.028 -235.195)" fill="#474645"/>
          <path id="パス_21557" data-name="パス 21557" d="M963.131,485.584a11.118,11.118,0,0,1-3.03-.554,17.825,17.825,0,0,1-5.56-2.881,1.672,1.672,0,0,1,2.058-1.474,6.312,6.312,0,0,0,.584.4,1.328,1.328,0,0,1,.254.636c.083.583.15,1.16.225,1.743a1.346,1.346,0,0,1,1.144.165,11.757,11.757,0,0,1,1.316.906,1.5,1.5,0,0,1,2.978.2c.008.285.015.569.03.861" transform="translate(-668.843 -336.77)" fill="#474645"/>
          <path id="パス_21558" data-name="パス 21558" d="M913.475,319.966a105.068,105.068,0,0,1-1.422-11.284c-.367-3.727-.606-7.46-.853-11.194-.157-2.357-.382-4.729.509-7a4.624,4.624,0,0,1,1-1.676,1.591,1.591,0,0,1,1.377-.157.9.9,0,0,1,.427,1.309c-1.691,3.046-1.025,6.323-.861,9.51.255,4.916.7,9.825,1.167,14.719a76.113,76.113,0,0,0,1.961,11.022c.359,1.5.756,2.993,1.174,4.483.711,2.566,1.325,5.162,2.148,7.7a16.636,16.636,0,0,0,6.023,8.709,1.673,1.673,0,0,0-2.058,1.474,17.426,17.426,0,0,1-6.023-9.121c-1.8-6.083-3.262-12.279-4.571-18.489" transform="translate(-638.373 -202.197)" fill="#474645"/>
          <path id="パス_21559" data-name="パス 21559" d="M891.516,47.854a4.673,4.673,0,0,0,.6,1.4,1.316,1.316,0,0,1-1.414-.059,9.371,9.371,0,0,1-1.032-.748.713.713,0,0,1,.015-.18,1.4,1.4,0,0,1,.764-.965,1.213,1.213,0,0,1,1.07.554" transform="translate(-623.387 -33.136)" fill="#474645"/>
          <path id="パス_21560" data-name="パス 21560" d="M883,36.132c-.6.06-.943-.344-1.13-1.174a18.469,18.469,0,0,0-.614-2,1.313,1.313,0,0,1-.067-.224,2.139,2.139,0,0,0,1.182-.082,1.243,1.243,0,0,1,1,.074c.262.651.471,1.332.711,1.991-.15.846-.5,1.354-1.085,1.414" transform="translate(-617.447 -22.828)" fill="#474645"/>
          <path id="パス_21561" data-name="パス 21561" d="M883.2,29.558a1.243,1.243,0,0,0-1-.074,2.139,2.139,0,0,1-1.182.082,1.1,1.1,0,0,1,.42-1.391c.524-.277,1.1-.075,1.466.688a7.326,7.326,0,0,1,.3.7" transform="translate(-617.269 -19.658)" fill="#474645"/>
          <path id="パス_21562" data-name="パス 21562" d="M875.256,35.762a1.024,1.024,0,0,1,.261,1.2c-.24-.037-.487-.067-.748-.09a1.6,1.6,0,0,1-1.19-2.469,6.906,6.906,0,0,1,1.677,1.362" transform="translate(-611.938 -24.104)" fill="#474645"/>
          <path id="パス_21563" data-name="パス 21563" d="M865.569,202.547a1.245,1.245,0,0,0,.382-1.848c-.614-1.115-1.16-2.282-1.706-3.434-1.048-2.178-.741-3.083,1.489-4.131,1.848-.868,3.741-1.646,5.836-2.566.067-1.49.171-3.06.21-4.639a3.013,3.013,0,0,1,.635-2.148,1.188,1.188,0,0,1,1.526-.307,1.166,1.166,0,0,1,.546,1.317c-.216,1.721-.486,3.442-.546,5.171a3.106,3.106,0,0,1-2.417,3.254c-1.825.584-3.569,1.467-5.492,2.282.658,1.369,1.235,2.552,1.811,3.734,1.466,3.008,1.459,3.1-1,5.335a180.847,180.847,0,0,0-14.755,14.584c-.509.576-.981,1.182-1.489,1.758-.629.725-1.317.89-1.856.456-.524-.42-.539-1.16.022-1.931a14.025,14.025,0,0,1,1.31-1.512q7.34-7.329,14.711-14.643a7.4,7.4,0,0,1,.785-.734" transform="translate(-594.433 -128.447)" fill="#474645"/>
          <path id="パス_21564" data-name="パス 21564" d="M851.966,65.171a2.731,2.731,0,0,0-3.217-.658c-.247.1-.786-.172-1.01-.427a.77.77,0,0,1,.277-1.19,12.026,12.026,0,0,1,1.811-.7,5.615,5.615,0,0,1,3.367,1.488c.456.42.7.958.254,1.489a.93.93,0,0,1-1.481-.007" transform="translate(-593.879 -43.584)" fill="#474645"/>
          <path id="パス_21565" data-name="パス 21565" d="M847.58,88.1a1.215,1.215,0,0,1,1.122-1.2,1.1,1.1,0,0,1,.9,1.332c-.082.748-.546,1.264-1.092,1.22a1.166,1.166,0,0,1-.935-1.348" transform="translate(-593.892 -60.888)" fill="#474645"/>
          <path id="パス_21566" data-name="パス 21566" d="M836.713,179.756c-.165-.479-.344-1-.531-1.557a1.547,1.547,0,0,1,1.181.794,1.691,1.691,0,0,1-.306,1.982,3.119,3.119,0,0,1-1.692.9,16.8,16.8,0,0,1,1.347-2.117" transform="translate(-585.338 -124.863)" fill="#474645"/>
          <path id="パス_21567" data-name="パス 21567" d="M832.425,133.419c-1.452-.217-2.783-.419-4.109-.621-.067.089-.134.18-.2.277.861,1.287,1.04,2.986,2.537,4a7.743,7.743,0,0,0,1.774-3.651m-4.355,3.748c-.794-1.361-1.429-2.82-2.133-4.235-.044-.089-.089-.18-.127-.277-.4-1.108-.03-2.088,1.444-1.923,1.871.247,3.75.448,5.612.756,1.182.194,1.609.755,1.482,1.916a9.925,9.925,0,0,1-2.074,4.871,1.863,1.863,0,0,1-2.6.471,4.814,4.814,0,0,1-1.6-1.579" transform="translate(-578.536 -91.591)" fill="#474645"/>
          <path id="パス_21568" data-name="パス 21568" d="M829.392,182.038a1.464,1.464,0,0,1,.875-1.339.75.75,0,0,1,.09-.171,1.1,1.1,0,0,1,.6.628c.263.651-.1,1.25-1,1.624-.1.037-.195.082-.292.12a1.548,1.548,0,0,1-.277-.861" transform="translate(-581.152 -126.495)" fill="#474645"/>
          <path id="パス_21569" data-name="パス 21569" d="M816.758,87.539a1.128,1.128,0,0,1,1.017-1.129.965.965,0,0,1,1.071.995,1.147,1.147,0,0,1-1.071,1.219,1.053,1.053,0,0,1-1.017-1.085" transform="translate(-572.297 -60.542)" fill="#474645"/>
          <path id="パス_21570" data-name="パス 21570" d="M821.251,39.092a1.337,1.337,0,0,1-1.459.03,5.4,5.4,0,0,0,.359-.486c.06-.09.12-.179.18-.262.008-.015.016-.015.023-.03a1.552,1.552,0,0,0,.359-1.519c3.479-1.264,6.951-2.552,10.445-3.771a19.172,19.172,0,0,1,2.694-.553,4.364,4.364,0,0,1,2.215.569,1.6,1.6,0,0,0,1.19,2.469c.261.023.508.053.748.09a1.1,1.1,0,0,1-.232.314.99.99,0,0,1-1.392-.03c-.2-.157-.39-.337-.577-.509a2.989,2.989,0,0,0-2.843-.748,16.394,16.394,0,0,0-1.931.471,56.8,56.8,0,0,0-9.78,3.966" transform="translate(-574.425 -22.772)" fill="#474645"/>
          <path id="パス_21571" data-name="パス 21571" d="M818.485,48.924a1.237,1.237,0,0,1,.576-1.692,3.088,3.088,0,0,1,.553-.254.291.291,0,0,0,.075-.031,1.553,1.553,0,0,1-.359,1.52c-.007.014-.015.014-.023.03-.06.083-.12.172-.18.262a5.321,5.321,0,0,1-.359.486,1.06,1.06,0,0,1-.284-.321" transform="translate(-573.403 -32.896)" fill="#474645"/>
          <path id="パス_21572" data-name="パス 21572" d="M815.283,103.415c-2.327-2.163-1.871-3.337-.053-4.939.539-.471.965-1.063,1.482-1.556.614-.591,1.2-.666,1.631-.262.419.389.337.965-.247,1.587-.8.852-1.608,1.7-2.55,2.693.666.629,1.137,1.092,1.623,1.535s.876.92.426,1.586c-.359.524-.98.464-1.736-.134-.2-.157-.389-.337-.576-.509" transform="translate(-570.156 -67.551)" fill="#474645"/>
          <path id="パス_21573" data-name="パス 21573" d="M809.268,45.461a1.462,1.462,0,0,1,.479-.321c.016-.016.03-.023.045-.037.247-.21.494-.42.726-.644a1.441,1.441,0,0,1,.269-.209,6.011,6.011,0,0,0,.052.808c.172,1.265-.128,1.871-.867,1.976a1.216,1.216,0,0,1-1.2-.823V46.2a2.107,2.107,0,0,1,.5-.741" transform="translate(-566.7 -31.005)" fill="#474645"/>
          <path id="パス_21574" data-name="パス 21574" d="M815.74,62.24c.247,1.234.531,2.461.808,3.689.113.023.232.053.345.075.95-1.415,1.9-2.829,2.873-4.273-.524-.837-1.04-1.661-1.7-2.716-.8,1-1.475,1.826-2.133,2.672a.854.854,0,0,0-.194.554m19.111-23.93a6.332,6.332,0,0,1-2.634,4.49,133.87,133.87,0,0,1-11.052,7.812,6.294,6.294,0,0,1-4.325,1.249,3.251,3.251,0,0,0-.927.195c.3.681.546,1.249.913,2.08a42.242,42.242,0,0,0,5.44-1.713c4.586-2.148,9.092-4.475,13.723-6.78,0-2.769.015-5.477-.015-8.193a4.555,4.555,0,0,0-.36-1.2c-.112.008-.224.022-.336.03a17.1,17.1,0,0,0-.427,2.028M860.77,51.988a4.106,4.106,0,0,0-1.317,3.076c-.231,4.093-.389,8.178-.568,12.271-.023.547-.008,1.1-.008,1.721h3.195c-.171-4.826-.321-9.525-.5-14.232a11.115,11.115,0,0,0-.292-1.968,3.384,3.384,0,0,0-.509-.869m-7.423,36.567c.441-.845.973-1.639,1.5-2.5-1.294-.711-2.656-1.272-2.978-2.8a4.836,4.836,0,0,1,.748-3.764,9.809,9.809,0,0,1-1.212-2.439,8.557,8.557,0,0,1,.351-2.574c-.912-.426-.531-2.028-1.848-2.566-1.033-.427-.883-2.208-2.627-2.492.1.681.149,1.168.247,1.646.793,3.644,1.631,7.281,2.372,10.933.479,2.349.786,4.736,1.235,7.093a2.692,2.692,0,0,0,1.062,2.042c.4-.913.727-1.773,1.152-2.581m8.089-13.117c-2.207-.539-4.393.105-6.585.1a2.864,2.864,0,0,0-.891.21c-.928.307-1.108.771-.553,1.609A12.084,12.084,0,0,0,854.5,78.6c2-.8,3.951-.591,5.888-.509.614.023,1.183.254,1.115.98-.06.621-.591.77-1.152.748a18.208,18.208,0,0,0-2.462-.068,21.365,21.365,0,0,0-3.135.591,1.6,1.6,0,0,0-1.167,1.632c-.09,1.37.487,1.961,2.44,2.357a5.321,5.321,0,0,0,.045-.6c-.045-.965.165-1.369.726-1.362a1.435,1.435,0,0,1,1.257,1.347,2.652,2.652,0,0,1-.352,1.152c-.4.719-.875,1.384-1.3,2.08a32.252,32.252,0,0,0-1.968,3.292,4.833,4.833,0,0,0,1.25,6.083,7.936,7.936,0,0,1,.6.7h6.832c.135-.943.3-1.833.382-2.731.291-3.367.613-6.734.816-10.109.217-3.577.337-7.161.427-10.745.052-1.871-.539-2.461-2.44-2.514-2.716-.075-5.432-.082-8.149-.067a8.835,8.835,0,0,0-1.683.314c-.232,1.3.6,1.946.958,2.589,2.709-.037,5.259-.082,7.811-.1a2.406,2.406,0,0,1,1.182.262,1.014,1.014,0,0,1,.457.83c-.037.262-.4.531-.688.682a1.16,1.16,0,0,1-.748,0m-47.56-14.89c.105.052.2.1.3.157.374-.479.732-.965,1.115-1.436.681-.838,1.324-1.706,2.065-2.478.771-.793,1.526-.628,2.117.307q2.031,3.256,4.093,6.48c.427.651.539,1.152.314,1.534a1.139,1.139,0,0,1-.344.337c-.584.381-1.1.157-1.736-.741-.246-.344-.515-.673-.853-1.115-1.018,1.482-1.915,2.776-2.79,4.1a1.456,1.456,0,0,0-.217.86c.179,1.916.4,3.824.613,5.732.12.03.233.067.352.1,1.788-3,3.651-5.963,5.53-8.919,3.3-5.223,6.622-10.438,9.585-15.878-.082-.075-.165-.157-.247-.231-.5.246-1,.486-1.5.732-2.7,1.347-5.4,2.716-8.111,4.041a21.7,21.7,0,0,1-6.847,2.117,2.745,2.745,0,0,0-2.065,1.362,24.552,24.552,0,0,0-1.37,2.941m1.863,7.535c-2.005,3.323-3.808,6.3-5.59,9.286a1.963,1.963,0,0,0-.194.891q-.338,6.218-.637,12.443a5.21,5.21,0,0,0,.128.913c2.5-4.647,4.909-9.106,7.3-13.566a1.615,1.615,0,0,0,.2-.868c-.292-2.484-.607-4.968-.921-7.453-.06-.441-.157-.883-.291-1.646m-4.677,3.15c.1.037.2.075.307.112.8-1.384,1.556-2.813,2.432-4.153a2.441,2.441,0,0,0-.046-3.059,1.758,1.758,0,0,0-1.555,1.645c-.2,1-.5,1.976-.711,2.971-.18.815-.292,1.654-.427,2.484m-7.018-48.12c.089-1.482.4-2.949.621-4.415a2.3,2.3,0,0,1,.15-.591c.262-.613.689-1.063,1.414-.92a1.09,1.09,0,0,1,.883,1.384c-.03.277-.082.561-.127.854a18.6,18.6,0,0,1,2.334-.21,2.739,2.739,0,0,1,1.437.426,1.242,1.242,0,0,1,.359,1.041c-.037.24-.561.643-.741.583-1.384-.472-2.566.134-3.988.733-.134,1.811-.352,3.794-.419,5.785-.09,2.611-.105,5.229-.09,7.848a12.735,12.735,0,0,0,1.114,5.231c.981,2.14,2.1,4.212,3.121,6.337a3.019,3.019,0,0,0,2.476,1.826c1.728.209,3.464.374,5.2.427a3.493,3.493,0,0,0,1.713-.607,87.642,87.642,0,0,0,11.643-8.282,3.331,3.331,0,0,0,1.28-2.2c.105-.756.284-1.512.457-2.26.419-1.841,1.175-2.073,2.566-.8.553-.351,1.1-.7,1.661-1.048a7.8,7.8,0,0,0,2.649-2.739,5.459,5.459,0,0,0-.471-5.379,2.163,2.163,0,0,0-3.254-.262c-.509.42-.905.981-1.422,1.377a1.58,1.58,0,0,1-1.174.389,1.493,1.493,0,0,1-.711-1.04,11.8,11.8,0,0,1-.037-2.3,9.144,9.144,0,0,0-1.953-6.016,11.852,11.852,0,0,1-1.13-1.834,2.548,2.548,0,0,1-.284-1.136,9.338,9.338,0,0,0,1.032.748,1.316,1.316,0,0,0,1.414.059c.427.7.965,1.339,1.377,2.043a8.766,8.766,0,0,1,1.467,4.474,6.944,6.944,0,0,0,.157,1.071,11.363,11.363,0,0,1,3.255-.659,11.644,11.644,0,0,1,3.121,1.235c1.369-3.868,2.1-7.8.21-11.822a7.43,7.43,0,0,0-2.888-3.3,2.369,2.369,0,0,0-.981-.389,3.958,3.958,0,0,1-3.277-2.32,6.819,6.819,0,0,0-4.924-3.591,17.008,17.008,0,0,0-10.573.718c-2.245,1-4.511,1.946-6.689,3.068a11.123,11.123,0,0,0-3.741,3.375,5.3,5.3,0,0,0-1.152,3.224,1.453,1.453,0,0,0-.27.21c-.231.224-.479.434-.725.644-.016.015-.03.022-.046.037a1.465,1.465,0,0,0-.479.321,2.106,2.106,0,0,0-.5.741,2.44,2.44,0,0,1-.224-.831,7.522,7.522,0,0,1,1.3-5.529,14.553,14.553,0,0,1,4.37-4.055A35.627,35.627,0,0,1,822.1.284a18.161,18.161,0,0,1,8.814.635,9.134,9.134,0,0,1,5.777,5.155,8.722,8.722,0,0,1,6.7,5.3,13.7,13.7,0,0,1,.92,10.169c-.613,1.886-.748,3.928-1.833,5.671a1.438,1.438,0,0,0,0,.891c.606,3.157-.808,5.492-3.106,7.392a2.46,2.46,0,0,0-1.085,2.185c.067,1.631.023,3.27.023,5.006,1.781-.509,2.642.539,3.314,1.939.284.6.637,1.175.958,1.758a7.24,7.24,0,0,0,2.476,2.672c2.851,1.825,5.657,3.7,8.478,5.567.217.142.487.27.591.479.292.6.77.665,1.362.762a9.883,9.883,0,0,1,1.96.756c.157-.951.239-1.856.464-2.716a10.8,10.8,0,0,1,.905-2.432,2.088,2.088,0,0,1,2.155-1.19,2.259,2.259,0,0,1,1.864,1.632,7,7,0,0,1,.366,1.952c.157,3.794.27,7.588.4,11.381.045,1.279.113,2.559.157,3.69a15.507,15.507,0,0,1,2.155,2.072,3.4,3.4,0,0,1,.547,2.005c-.187,4.3-.457,8.6-.711,12.9-.075,1.272-.187,2.544-.285,3.838,1.489-.3,1.46-.262,2.739.786,2.9,2.364,5.852,4.662,8.724,7.057a37.193,37.193,0,0,1,3.9,3.7,6.5,6.5,0,0,1,1.347,2.529,24,24,0,0,1,.509,9.151c-.561,5.627-1.961,11.1-3.083,16.619-2.065,10.094-4.2,20.166-6.308,30.253-.112.546-.21,1.107-.358,1.646a2.531,2.531,0,0,1-.21.539,4.862,4.862,0,0,0-.906-1.422,1.324,1.324,0,0,0-1.055-.464c.584-2.746,1.182-5.476,1.758-8.223,2.387-11.329,4.789-22.657,7.124-34a38.09,38.09,0,0,0,.793-10.55c-.03-.359-.074-.718-.12-1.07a7.091,7.091,0,0,0-2.6-4.871c-3.419-2.783-6.794-5.612-10.191-8.418-.628-.524-1.264-1.04-2-1.639a7.588,7.588,0,0,0-.261,2.665c-.105.912-.173,1.825-.27,2.88.4-.037.733-.1,1.055-.1.531-.007,1,.284.943.786a1.355,1.355,0,0,1-.786.935c-.03.008-.06.015-.09.022a1.432,1.432,0,0,0-1.489-.441,1.476,1.476,0,0,0-.838.614c-3.441-.016-6.891-.06-10.333-.09-.5-.008-1.011,0-1.6,0-.06.568-.112,1.054-.187,1.765,1.347.165,2.6.374,3.846.457a50.97,50.97,0,0,0,8.477.164,1.006,1.006,0,0,0,.09.15,1.561,1.561,0,0,0,1.488.726l.083.667a26.779,26.779,0,0,1-3.344.247,61.68,61.68,0,0,1-10.88-.816c-.815-.157-1.138.052-1.309,1.063-.24,1.362-.359,2.746-.517,4.123q-.763,6.947-1.526,13.91a2.821,2.821,0,0,1-.127.756,1.141,1.141,0,0,1-1.294.853,1.1,1.1,0,0,1-.914-.733,1.345,1.345,0,0,1-.059-.464c.022-.763.187-1.526.276-2.289q.91-7.947,1.8-15.894a4.354,4.354,0,0,1,1.167-2.926,1.172,1.172,0,0,0,.374-.778c-.089-1.152.794-1.736,1.415-2.432a1.929,1.929,0,0,1,1.257-.359,12.01,12.01,0,0,1,1.736.224,29.183,29.183,0,0,0-2.193-3.607,12.112,12.112,0,0,1-2.5-6.487,107.424,107.424,0,0,0-3.172-15.5,6.446,6.446,0,0,1-.285-1.5,2.039,2.039,0,0,1,3.218-1.953,13.644,13.644,0,0,1,2.148,2.088c1.713-1.549,4-.913,6.188-1.092.067-2.589.03-5.133.24-7.662.134-1.593-.757-2.3-1.856-3.008-.5-.33-.98-.681-1.474-1.025a1.5,1.5,0,0,0-.494-.3c-1.6-.209-2.776-1.257-4.048-2.088-2.178-1.444-4.363-2.888-6.48-4.422a7.679,7.679,0,0,1-1.735-1.9c-.748-1.093-1.37-2.268-2.148-3.57a4.242,4.242,0,0,0-.688.846,19.411,19.411,0,0,1-.973,2.387c-3.487,5.619-6.951,11.254-10.551,16.8a242.231,242.231,0,0,0-13.356,23.18c-1.377,2.746-2.492,5.619-3.72,8.434-.187.426-.336.86-.545,1.271a1.2,1.2,0,0,1-1.392.711,1.236,1.236,0,0,1-.987-1.22,7.083,7.083,0,0,1,0-1.07A194.526,194.526,0,0,1,808.317,76.9a89.931,89.931,0,0,1,4.67-19.7.977.977,0,0,1,.082-.187,3.121,3.121,0,0,0,1.692-.9,1.691,1.691,0,0,0,.306-1.982,1.546,1.546,0,0,0-1.181-.794c-.18-.516-.367-1.07-.569-1.638-.808-.247-1.788-.51-2.754-.831a3.45,3.45,0,0,1-2.043-1.75c-1.736-3.367-3.808-6.593-4.578-10.364a21.828,21.828,0,0,1-.39-4.729c.083-3.637.262-7.281.495-10.909" transform="translate(-563.041 0)" fill="#474645"/>
          <path id="パス_21575" data-name="パス 21575" d="M790.642,379.224a.968.968,0,0,1,.681,1.04,1.064,1.064,0,0,1-.351.786,13.929,13.929,0,0,1-.33-1.8Z" transform="translate(-554 -265.721)" fill="#474645"/>
          <path id="パス_21576" data-name="パス 21576" d="M792.2,374.574a.989.989,0,0,1-1.025.637.462.462,0,0,1-.1-.007,1.281,1.281,0,0,1,1.13-.629" transform="translate(-554.297 -262.463)" fill="#474645"/>
          <path id="パス_21577" data-name="パス 21577" d="M755.051,183.035a9.824,9.824,0,0,0-6.517,7.377,76.195,76.195,0,0,0-2.065,13.5c-.591,8.493-1.13,16.985-1.04,25.5.03,2.514.112,5.021.157,7.535a5.594,5.594,0,0,1-.067,1.219,1.184,1.184,0,0,1-.075.232,1.282,1.282,0,0,0-1.13.629,1.034,1.034,0,0,1-.965-.913,7.686,7.686,0,0,1-.082-1.376q.034-7.071.082-14.15v-1.406c-3.614,1.107-7.018,2.185-10.453,3.187-1.961.569-3.966,1.04-5.956,1.511a1.5,1.5,0,0,0-.164-1.032,1.528,1.528,0,0,0-2.051-.539c-.022-.007-.037-.022-.381-.15a1.384,1.384,0,0,1,.344-.195,3.99,3.99,0,0,1,.74-.2,86.654,86.654,0,0,0,15.924-4.542,12.916,12.916,0,0,1,2.148-.471c.142-2.642.291-5.395.434-8.141a151.738,151.738,0,0,1,1.534-16.679c.254-1.519.531-3.03.9-4.519a11.322,11.322,0,0,1,6.72-8.074c.793-.352,1.6-.689,2.424-.973a1.808,1.808,0,0,1,1.235-.044.752.752,0,0,0-.09.171,1.464,1.464,0,0,0-.875,1.339,1.548,1.548,0,0,0,.277.861c-.337.119-.674.224-1.011.344" transform="translate(-507.545 -126.287)" fill="#474645"/>
          <path id="パス_21578" data-name="パス 21578" d="M723.384,326.918c.344.127.359.142.381.15a1.528,1.528,0,0,1,2.051.539,1.5,1.5,0,0,1,.164,1.032c-.053.015-.1.023-.15.037a7.8,7.8,0,0,1-1.818.2.991.991,0,0,1-1.025-.951,1.017,1.017,0,0,1,.4-1.01" transform="translate(-506.585 -229.046)" fill="#474645"/>
          <path id="パス_21579" data-name="パス 21579" d="M718.31,329.5a1.121,1.121,0,0,1,.246.569c.09.538.157,1.085.225,1.631a1.268,1.268,0,0,1-.135-.142,2.155,2.155,0,0,1-.508-1.362,1.239,1.239,0,0,1,.172-.7" transform="translate(-503.195 -230.88)" fill="#474645"/>
          <path id="パス_21580" data-name="パス 21580" d="M735.042,343.83a13.889,13.889,0,0,0,.33,1.8,2.071,2.071,0,0,1-1.482.412c-6.622-.15-13.207.629-19.806.913-1.616.067-1.594.1-2.252-1.4a7.756,7.756,0,0,1-.539-1.788,1.514,1.514,0,0,0,1.055-1.43,1.306,1.306,0,0,0-.03-.3l.45-.06c.045.306.082.606.119.913a1.831,1.831,0,0,0,1.018,1.668c-.053-.883-.067-1.571-.134-2.259a88.8,88.8,0,0,0-1.475-10.887,1.571,1.571,0,0,0-.209-.868,2.217,2.217,0,0,1-.008-1.011,1.375,1.375,0,0,1,.748-.838.647.647,0,0,1,.689.224,1.239,1.239,0,0,0-.172.7,2.159,2.159,0,0,0,.508,1.362,1.312,1.312,0,0,0,.135.142c.052.419.1.838.149,1.258q.618,4.725,1.242,9.45c.113.853.27,1.706.42,2.664,2.723-.128,5.372-.254,8.021-.374,3.382-.157,6.757-.344,10.139-.456a2.681,2.681,0,0,1,1.085.142Z" transform="translate(-498.4 -230.297)" fill="#474645"/>
          <path id="パス_21581" data-name="パス 21581" d="M713.943,334.925a1.571,1.571,0,0,1,.209.868c-.052-.225-.112-.442-.164-.666-.014-.067-.03-.134-.044-.2" transform="translate(-500.257 -234.681)" fill="#474645"/>
          <path id="パス_21582" data-name="パス 21582" d="M710.521,372.268a27.386,27.386,0,0,1-.329-2.919,1.52,1.52,0,0,1,1.354,1.19,1.3,1.3,0,0,1,.03.3,1.515,1.515,0,0,1-1.054,1.43" transform="translate(-497.629 -258.802)" fill="#474645"/>
          <path id="パス_21583" data-name="パス 21583" d="M705.169,334.145c.172-.315.427-.726.734-.816.531-.15.853.284.943.778.12.607.224,1.227.307,1.841a1.5,1.5,0,0,1-.682.15,1.384,1.384,0,0,1-1.429-1.265,1.733,1.733,0,0,1,.127-.688" transform="translate(-494.021 -233.542)" fill="#474645"/>
          <path id="パス_21584" data-name="パス 21584" d="M701.82,378.074a1.412,1.412,0,0,1-.554-.576c.143-.075.278-.15.419-.217a.866.866,0,0,1,1.309.344.78.78,0,0,1,.068.568,1.5,1.5,0,0,1-1.242-.12" transform="translate(-491.375 -264.249)" fill="#474645"/>
          <path id="パス_21585" data-name="パス 21585" d="M681.723,545.366a4.28,4.28,0,0,1,1.632,1.549.788.788,0,0,1,.008.134c-.016.988-.39,1.556-1.063,1.6-.644.037-1.122-.479-1.287-1.452-.068-.4-.06-.823-.1-1.227-.03-.261-.06-.524-.09-.786a1.417,1.417,0,0,1,.905.18" transform="translate(-477.047 -382)" fill="#474645"/>
          <path id="パス_21586" data-name="パス 21586" d="M616.781,349.622c-2.319,1.316-4.624,2.672-7.4,2.783-3.127.12-6.255.277-9.383.389a10.323,10.323,0,0,1-2.148-.09c-1.474-.254-2.8-.763-3.075-2.724-3.1.479-6.031.951-8.964,1.391a30.123,30.123,0,0,1-3.651.434,4.664,4.664,0,0,1-2.2-.516,1.713,1.713,0,0,1-.164-3.09,11.663,11.663,0,0,1,1.183-.7c.269-.157.651-.231.792-.456,1.145-1.833,3.248-2.453,4.759-3.809,4.332-3.853,9.6-5.581,15.122-6.741,1.6-.33,3.225-.569,4.841-.853,2.058-.366,4.071.112,6.1.336,1.323.15,2.633.4,4.041.614.007-.067.015-.141.022-.21a1.384,1.384,0,0,0,1.429,1.265,1.5,1.5,0,0,0,.682-.15c.06.344.1.7.15,1.04q.561,4.107,1.085,8.231l-.45.06a1.52,1.52,0,0,0-1.354-1.189c-.038-.5-.083-1-.157-1.481-.269-1.766-.449-3.547-.673-5.41a10.634,10.634,0,0,0-1.324-.412c-2.021-.321-4.048-.643-6.084-.9a21.674,21.674,0,0,0-7.624.667c-2.238.523-4.46,1.145-6.667,1.818a20.192,20.192,0,0,0-8.141,5.148c1.287-.359,2.573-.733,3.876-1.07a21.521,21.521,0,0,1,2.395-.516c.547-.083,1.055.12,1.1.778.038.568-.374.755-.875.883-2.238.554-4.49,1.048-6.682,1.743-1.9.6-3.719,1.437-5.559,2.193a5.076,5.076,0,0,0-.817.568,2.87,2.87,0,0,0,2.41.307c2.791-.4,5.575-.86,8.358-1.3.456-.067.912-.15,1.37-.194a15.167,15.167,0,0,0,4.167-.928,42.371,42.371,0,0,1,4.438-1.212c1.339-.351,2.656-.778,4.01-1.055a7.875,7.875,0,0,1,2.41-.089c.239.022.606.613.569.906-.03.277-.554.74-.794.7-1.294-.217-2.4.412-3.584.689-1.294.3-2.581.636-3.876.951a4.048,4.048,0,0,0-1.9.89,5.19,5.19,0,0,1-1.751.674c.007.711.538.8.95.883a8.9,8.9,0,0,0,2.133.225c3.224-.134,6.457-.225,9.675-.532a16.5,16.5,0,0,0,3.928-1.2,18.147,18.147,0,0,0,2.05-1.025,1.41,1.41,0,0,0,.553.576,1.506,1.506,0,0,0,1.243.12,1.088,1.088,0,0,1-.54.592" transform="translate(-405.633 -235.086)" fill="#474645"/>
          <path id="パス_21587" data-name="パス 21587" d="M473.805,222.223a1.088,1.088,0,0,1-1.489.382,1.019,1.019,0,0,1-.584-1.032c.538-.157,1.055-.374,1.593-.561a1.346,1.346,0,0,1,1.242.217c-.007.007-.023.015-.03.023a5.006,5.006,0,0,0-.733.972" transform="translate(-330.538 -154.813)" fill="#474645"/>
          <path id="パス_21588" data-name="パス 21588" d="M465.556,226.862a1.623,1.623,0,0,1,.217-1.265,1.158,1.158,0,0,1,.337,2.066,1.408,1.408,0,0,1-.554-.8" transform="translate(-326.18 -158.075)" fill="#474645"/>
          <path id="パス_21589" data-name="パス 21589" d="M482.69,425.288a49.875,49.875,0,0,0-27.6-.09c-.74.2-1.459.464-2.185.725-1.272.457-1.968.315-2.215-.471a1.062,1.062,0,0,1-.03-.568c.112-.5.621-.905,1.556-1.168,1.968-.554,3.951-1.107,5.949-1.511a49.414,49.414,0,0,1,10.767-.965,50.337,50.337,0,0,1,14.517,1.848,4.975,4.975,0,0,1,1.145.42,1.15,1.15,0,0,1,.546.62.875.875,0,0,1-.082.689,1.636,1.636,0,0,1-1.033.718,3.169,3.169,0,0,1-1.332-.247" transform="translate(-315.755 -295.151)" fill="#474645"/>
          <path id="パス_21590" data-name="パス 21590" d="M373.457,418.47c-5.335.517-10.663,1.018-15.991,1.541l-.5.045a5.982,5.982,0,0,0-1.467.411.861.861,0,0,1-1.265-.456.834.834,0,0,1,.553-1.115,8.779,8.779,0,0,1,2.2-.6c6.053-.621,12.114-1.205,18.168-1.789.98-.089,1.534.2,1.608,1.025-.217.172-.509.569-.875.651a18.957,18.957,0,0,1-2.432.284" transform="translate(-248.164 -291.836)" fill="#474645"/>
          <path id="パス_21591" data-name="パス 21591" d="M357.995,399.452c6.12-.516,12.241-.98,18.362-1.467.1-.007.2-.023.359-.037.546.014,1.152.127,1.175.852s-.569.868-1.168.921q-5.667.427-11.328.86c-3.008.233-6.016.45-9.024.7a15.356,15.356,0,0,0-1.811.351c-.195.045-.382.143-.583.172-.748.112-1.257-.157-1.295-.71-.052-.644.359-.935.913-1.025,1.467-.224,2.926-.494,4.4-.614" transform="translate(-247.12 -278.842)" fill="#474645"/>
          <path id="パス_21592" data-name="パス 21592" d="M332.644,560.245a1.513,1.513,0,0,1,2.169-1.041,1.169,1.169,0,0,1-.868,1.3,1.354,1.354,0,0,1-1.3-.262" transform="translate(-233.083 -391.73)" fill="#474645"/>
          <path id="パス_21593" data-name="パス 21593" d="M338.924,379.135c-1.13.134-1.662-.15-1.714-.951a1.348,1.348,0,0,1,.1-.621,4.755,4.755,0,0,1,2.626.6,1.42,1.42,0,0,1,.644.764c-.554.067-1.108.142-1.661.21" transform="translate(-236.279 -264.555)" fill="#474645"/>
          <path id="パス_21594" data-name="パス 21594" d="M332.269,535.29c.172-1.467.359-2.933.576-4.392a5.743,5.743,0,0,1,.883,2.9,1.5,1.5,0,0,1-1.459,1.5" transform="translate(-232.82 -371.998)" fill="#474645"/>
          <path id="パス_21595" data-name="パス 21595" d="M328.971,378.373a1.23,1.23,0,0,1,.951,1.242c.052.524.1,1.055.157,1.578a1.6,1.6,0,0,0-.187.03,1.527,1.527,0,0,1-1.841-1.047,1.5,1.5,0,0,1,.919-1.8" transform="translate(-229.83 -265.125)" fill="#474645"/>
          <path id="パス_21596" data-name="パス 21596" d="M325.257,529.526a1.049,1.049,0,0,1-.614.105,1.571,1.571,0,0,1,.741-1.287,1.288,1.288,0,0,1,.472-.173,1.1,1.1,0,0,1-.6,1.354" transform="translate(-227.476 -370.088)" fill="#474645"/>
          <path id="パス_21597" data-name="パス 21597" d="M383.139,235.441c-.771,2.709-1.579,5.411-2.365,8.111a3.137,3.137,0,0,0-.067.637c3.352-2.1,5.5-7.58,4.033-10.311a1.96,1.96,0,0,0-1.6,1.564m-42.389,4.774c1.033,2.327,2.365,4.519,5.081,5.545-.748-2.813-1.556-5.4-2.088-8.044a3.431,3.431,0,0,0-2.731-2.933,5.392,5.392,0,0,0-.262,5.432m14.637,18.618c-1.526.919-1.669.942-2.582-.554-.03-.045-.18-.023-.478-.045.112,1.526.217,3.015.329,4.662,6.974-2.275,13.918-3.5,21.2-1.841V258.57a2.67,2.67,0,0,0-1.99.06c-.374.195-1.055-.082-1.557-.269-1.854-.71-3.681-1.5-5.551-2.185a3.312,3.312,0,0,0-1.8-.195,25.138,25.138,0,0,0-7.572,2.852m58.349,29.353a9.126,9.126,0,0,1,1.939,4.146,129.487,129.487,0,0,1,1.953,16.013c.007.112.015.217.015.329a4.286,4.286,0,0,0-1.631-1.549,1.416,1.416,0,0,0-.906-.179c-.441-4.07-.928-8.126-1.324-12.2-.374-3.921-2.739-6.518-5.62-8.808a13.726,13.726,0,0,0-1.938-1.241c-3.725-2.051-7.422-4.161-11.216-6.091a46.59,46.59,0,0,0-7.625-3.226c-1.646-.486-2.559-1.174-2.918-2.724a2.2,2.2,0,0,1-.067-.321c-.2-1.145-.771-2.2-.673-3.434a1.638,1.638,0,0,0-.726-1.221,37.063,37.063,0,0,0-4.759-2.776c-6.285-2.8-12.787-2.985-19.425-1.436a53.118,53.118,0,0,0-12.743,4.864,4.1,4.1,0,0,0-2.484,3.247,9.407,9.407,0,0,1-.359,1.564c-.157.523-.344,1.032-.517,1.541-.329.951-.83,1.774-2,1.871a2.391,2.391,0,0,0-.725.247c-4.2,2.043-8.463,3.935-12.556,6.173-3.045,1.669-5.859,3.763-8.755,5.686a7.462,7.462,0,0,0-2.686,3.48,38.768,38.768,0,0,0-2.08,8.806c-.472,2.829-.771,5.687-1.1,8.538a5.1,5.1,0,0,0,.217,1.482,1.622,1.622,0,0,1,.037.261,1.513,1.513,0,0,0-2.169,1.041,1.179,1.179,0,0,1-.33-.509,3.82,3.82,0,0,1-.157-1.511c.119-1.071.24-2.133.374-3.2a1.5,1.5,0,0,0,1.459-1.5,5.743,5.743,0,0,0-.883-2.9,89.547,89.547,0,0,1,1.728-9.091A13.923,13.923,0,0,1,316.836,287c1.954-1.982,3.337-4.512,4.954-6.809a1.375,1.375,0,0,0,.277-.711,1.5,1.5,0,0,0-.194-.973,1.135,1.135,0,0,0-.958-.105,5.417,5.417,0,0,0-1.467.808,42.713,42.713,0,0,0-7.064,7.258c-.119.164-.2.36-.329.517a1.087,1.087,0,0,1-1.511.269,1.039,1.039,0,0,1-.449-1.339,4.931,4.931,0,0,1,.681-1.19c.4-.524.928-.965,1.3-1.511a1.962,1.962,0,0,0,.434-1.205c-.487-3.292-1.033-6.569-1.572-9.9a1.54,1.54,0,0,0-2.11.905c-.816,1.818-1.675,3.628-2.326,5.514-.838,2.417-1.459,4.909-2.23,7.348a6.681,6.681,0,0,0,.285,5.08q2.245,4.726,4.512,9.428a13.5,13.5,0,0,1,.591,1.251,1,1,0,0,1,.053.2,1.287,1.287,0,0,0-.472.173,1.57,1.57,0,0,0-.741,1.287,1.386,1.386,0,0,1-.861-.577,3.9,3.9,0,0,1-.374-.665c-1.541-3.241-3.053-6.488-4.624-9.721a9.61,9.61,0,0,1-.418-7.737c1.174-3.337,2.222-6.711,3.352-10.056a15.959,15.959,0,0,1,.785-1.834c.861-1.773,1.841-3.389,4.438-3.023-.472-2.985-.914-5.754-1.348-8.523-.112-.71-.224-1.421-.321-2.132a2.876,2.876,0,0,1-.03-.763c.075-.8.614-1.385,1.235-1.295a.713.713,0,0,1,.142.03,1.5,1.5,0,0,0-.919,1.8,1.528,1.528,0,0,0,1.841,1.047,1.537,1.537,0,0,1,.187-.03c.127,1.309.269,2.619.448,3.914.771,5.485,1.587,10.954,2.417,16.672.5-.337.786-.487,1.033-.7,1.048-.9,2.042-1.871,3.127-2.716a5.725,5.725,0,0,1,1.908-.957,3.157,3.157,0,0,1,.5-.105,3.007,3.007,0,0,1,3.4,3.817,20.608,20.608,0,0,1-1.2,2.91,2.107,2.107,0,0,0,.487-.12q5.7-2.872,11.388-5.762c1.594-.815,3.195-1.631,4.759-2.506a1.964,1.964,0,0,0,.823-1,11.389,11.389,0,0,0,.831-2.791,4.257,4.257,0,0,1,.209-.965,5.4,5.4,0,0,1,2.589-2.806c.876-.523,1.8-.957,2.844-1.5-.419-2.97-.846-5.941-1.294-9.069a38.933,38.933,0,0,0-6.457-.044c-6.188.464-12.376.913-18.556,1.429-1.743.142-3.473.367-5.2.6a1.42,1.42,0,0,0-.643-.764,4.762,4.762,0,0,0-2.627-.6,1.5,1.5,0,0,1,1.452-.927c4.37.134,8.664-.727,13-.981,4.961-.284,9.914-.748,14.876-1.092,1.586-.1,3.18-.089,4.766-.1,1.1-.008,1.564.412,1.758,1.705.284,1.879.486,3.764.734,5.642.134,1,.3,1.983.486,3.263.419-.389.741-.547.771-.748a13.605,13.605,0,0,0,.083-1.833c.037-1.886-.494-3.779.112-5.657a1.094,1.094,0,0,0-.15-.711c-1.227-2.529-2.469-5.051-3.6-7.348a9,9,0,0,1-2.394-.277c-3.966-1.661-7.063-7.714-6.166-11.9.576-2.679,1.609-3.45,4.49-3.2-.037-.605-.06-1.189-.12-1.773a32.914,32.914,0,0,1,.359-9.809,16.537,16.537,0,0,1,4.714-8.644,3.6,3.6,0,0,1,2.9-1.182,2.383,2.383,0,0,1,.486.09,1.626,1.626,0,0,0-.217,1.265,1.408,1.408,0,0,0,.553.8,1.239,1.239,0,0,1-.7.164,2.562,2.562,0,0,0-1.96,1.047,14.853,14.853,0,0,0-3.973,9.593,45.055,45.055,0,0,0,1.407,13.715,59.362,59.362,0,0,0,7.864,18.968c1.893-.733,3.764-1.526,5.687-2.185,4.228-1.451,3.382-1.578,7.946.046,1.586.568,3.129,1.257,4.663,1.878a78.66,78.66,0,0,0,8.522-20.951c.337-1.414.741-2.813,1.122-4.22a33.564,33.564,0,0,0,.935-10.985c-.179-2.746-1.623-4.878-3.441-6.869-3.9-4.25-8.867-5.911-14.441-6.173-.719-.03-1.437.007-2.155-.044-2.911-.225-5.231,1.084-7.37,2.843a1.346,1.346,0,0,0-1.242-.217c-.539.187-1.055.4-1.594.561a1.237,1.237,0,0,1,.082-.42,1.808,1.808,0,0,1,.434-.8c2.259-1.945,4.541-3.906,7.721-4.071a41.584,41.584,0,0,1,4.924.023,25.578,25.578,0,0,1,7.52,1.466,18.386,18.386,0,0,1,3.576,1.744,25.752,25.752,0,0,1,5.829,5.432,12.413,12.413,0,0,1,2.529,8.665c-.12,2.761-.5,5.507-.763,8.26a4.306,4.306,0,0,0,.022.434c2.551.928,3.465,2.3,3.188,5.005a14.04,14.04,0,0,1-5.934,10.341,2.28,2.28,0,0,1-2.125.538c-1,2.058-1.961,4.085-2.934,6.113-.045.089-.134.187-.127.277.344,2.694-.651,5.358-.067,8.209a19.216,19.216,0,0,1,1.863.718c1.961.987,3.936,1.961,5.844,3.045a3.726,3.726,0,0,1,2.02,3.36,23.7,23.7,0,0,0,.652,3.711,122.837,122.837,0,0,1,13.73,6.346q3.367,1.874,6.764,3.666a20.391,20.391,0,0,1,6.457,5.6" transform="translate(-211.334 -143.758)" fill="#474645"/>
          <path id="パス_21598" data-name="パス 21598" d="M265.373,330.12a2.337,2.337,0,0,1,.433.621,1.092,1.092,0,0,1-.067.389.763.763,0,0,1-.987.523,3.8,3.8,0,0,1-1.309-.741c-1.279-1.085-2.522-2.214-3.771-3.337a2.5,2.5,0,0,1-.6-.689,1.288,1.288,0,0,1-.157-.576.629.629,0,0,1,.4-.614,1.244,1.244,0,0,1,1.063.187c1.69,1.377,3.352,2.806,5,4.235" transform="translate(-181.421 -228.177)" fill="#474645"/>
          <path id="パス_21599" data-name="パス 21599" d="M215.667,104.393c.007-.8.5-1.354,1.167-1.3a1.151,1.151,0,0,1,.98,1.168,1.259,1.259,0,0,1-1.212,1.287c-.591-.023-.943-.457-.935-1.153" transform="translate(-151.117 -72.233)" fill="#474645"/>
          <path id="パス_21600" data-name="パス 21600" d="M202.4,455.862a9.547,9.547,0,0,1-6.51.509,9.37,9.37,0,0,0,4.333-2.245,9.066,9.066,0,0,0,1.294-.382,15.81,15.81,0,0,0,1.675-.718,1.516,1.516,0,0,1,.166,2.192c-.12.134-.24.269-.367.4l-.591.247" transform="translate(-137.259 -317.435)" fill="#474645"/>
          <path id="パス_21601" data-name="パス 21601" d="M201.4,82.12a3.739,3.739,0,0,0-3.151,1.826.767.767,0,0,1-1.175.276.916.916,0,0,1-.284-1.212,5.435,5.435,0,0,1,4.2-2.627c.756.068,1.168.4,1.16,1.19-.172.128-.456.539-.755.546" transform="translate(-137.81 -56.321)" fill="#474645"/>
          <path id="パス_21602" data-name="パス 21602" d="M179.966,467.135c-.03.741-.7,1.2-1.848,1.22h-.128a1.609,1.609,0,0,1,.046-2.379.68.68,0,0,0,.119.007c1.242.046,1.834.4,1.811,1.152" transform="translate(-124.366 -326.508)" fill="#474645"/>
          <path id="パス_21603" data-name="パス 21603" d="M128.519,361.371c.651,4.654,2.9,8.6,5.41,12.444,1.49,2.268,3.053,4.49,4.579,6.741a38.16,38.16,0,0,0,6.1,6.7,7.265,7.265,0,0,0,6.832,1.893,9.371,9.371,0,0,1-4.333,2.245,10.348,10.348,0,0,1-4.024-2.38,39.577,39.577,0,0,1-6.473-7.183c-2.184-3.292-4.385-6.577-6.48-9.914a31.842,31.842,0,0,1-3.607-8.462,7.847,7.847,0,0,1-.254-1.968,1.1,1.1,0,0,1,1-1.175,1.084,1.084,0,0,1,1.257,1.054" transform="translate(-88.475 -252.462)" fill="#474645"/>
          <path id="パス_21604" data-name="パス 21604" d="M119.087,205.922a1.052,1.052,0,0,1-.845-.15,1.649,1.649,0,0,1,.479-.269c.067-.121.135-.24.195-.367a1.372,1.372,0,0,1,1.062-.711,1.294,1.294,0,0,1,.023.24,1.17,1.17,0,0,1-.914,1.257" transform="translate(-82.852 -143.24)" fill="#474645"/>
          <path id="パス_21605" data-name="パス 21605" d="M117.65,213.2a1.535,1.535,0,0,1-1.182-1.474,1.238,1.238,0,0,1,.053-.382,1.26,1.26,0,0,1,1.159.516,1,1,0,0,1-.03,1.339" transform="translate(-81.609 -148.079)" fill="#474645"/>
          <path id="パス_21606" data-name="パス 21606" d="M106.106,462.911a1.632,1.632,0,0,1-1.041-.471,17.806,17.806,0,0,1,2.17.127c1.168.134,1.617-.92,1.355-1.818a170.1,170.1,0,0,0,18.7,1.564,1.609,1.609,0,0,0-.045,2.379c-.359,0-.734-.045-1.1-.068-.411-.022-.816-.045-1.227-.06-.008.053-11.322-.98-16.97-1.541-.614-.068-1.234-.046-1.841-.113" transform="translate(-73.619 -322.845)" fill="#474645"/>
          <path id="パス_21607" data-name="パス 21607" d="M106.917,494.6a4.38,4.38,0,0,1-1.617-.786.975.975,0,0,1-.21-.673.734.734,0,0,1,.084-.39,1.166,1.166,0,0,1,1.025-.306,62.37,62.37,0,0,0,14.741,2.447c.718.022,1.436.06,2.148.1.635.046,1.279.128,1.294.974a.665.665,0,0,1-.165.486,1.486,1.486,0,0,1-1.227.292c-.718-.045-1.429-.112-1.93-.157a58.283,58.283,0,0,1-11.875-1.654c-.748-.149-1.534-.142-2.266-.336" transform="translate(-73.636 -345.041)" fill="#474645"/>
          <path id="パス_21608" data-name="パス 21608" d="M104.068,461.176c.015-.651.524-1.1,1.385-1.145a8.021,8.021,0,0,1,1.526.074l.913.135c.262.9-.187,1.952-1.355,1.818a17.883,17.883,0,0,0-2.17-.127,1.052,1.052,0,0,1-.3-.756" transform="translate(-72.92 -322.336)" fill="#474645"/>
          <path id="パス_21609" data-name="パス 21609" d="M89.992,466.975a1.076,1.076,0,0,1,.89-.479,1,1,0,0,1,.846.352c-.218.053-.427.119-.644.194a1.265,1.265,0,0,1-1.092-.067" transform="translate(-63.057 -326.872)" fill="#474645"/>
          <path id="パス_21610" data-name="パス 21610" d="M88.1,459.55a1.188,1.188,0,0,1,.142.965,1.556,1.556,0,0,1-.658.591,1.554,1.554,0,0,1,.516-1.556" transform="translate(-61.343 -322.005)" fill="#474645"/>
          <path id="パス_21611" data-name="パス 21611" d="M77.817,548.853c-.039.157-.075.321-.113.479a1.559,1.559,0,0,1-.464.935,1.742,1.742,0,0,1-1.227.292.489.489,0,0,1-.1-.037,4.975,4.975,0,0,1,.218-.681,1.585,1.585,0,0,1,1.684-.987" transform="translate(-53.193 -384.573)" fill="#474645"/>
          <path id="パス_21612" data-name="パス 21612" d="M77.891,479.041a9.4,9.4,0,0,0,.583-3.734c-.149-2.035-.067-4.086-.082-6.136a5.124,5.124,0,0,1,.037-.763,1.357,1.357,0,0,1,.21-.606,1.266,1.266,0,0,0,1.092.067c.217-.075.426-.142.644-.194a1.311,1.311,0,0,1,.322.658,5.115,5.115,0,0,1,.068,1.07c.014.823.007,1.638.007,2.453a.527.527,0,0,1-.112.008c.059,1.174.09,2.35.179,3.525.008.127.015.254.023.374a8.618,8.618,0,0,1-.524,3.375,101.957,101.957,0,0,0-4.01,12.84,1.585,1.585,0,0,0-1.683.987,5.032,5.032,0,0,0-.218.681,1.356,1.356,0,0,1-.613-.83,2.977,2.977,0,0,1,.179-1.339c1.287-4.153,2.567-8.3,3.9-12.436" transform="translate(-51.704 -327.698)" fill="#474645"/>
          <path id="パス_21613" data-name="パス 21613" d="M101.621,71.825c.315,2.978,1.646,4.639,3.817,4.872.516-1.6,1.039-3.233,1.571-4.872ZM76.637,43.07c-4.588,2.192-7.85,5.575-9.069,10.61a42.231,42.231,0,0,0-.995,6.51,10.925,10.925,0,0,0,1.092,5.679,21.5,21.5,0,0,0,8.388,9.563,17.576,17.576,0,0,1,1.616,1.175,2.819,2.819,0,0,1,.891,1.526,10.688,10.688,0,0,1,.06,4.168,49.2,49.2,0,0,1,14.142,4.385c.4-1.235.823-2.388,1.16-3.562A3.566,3.566,0,0,1,97.9,80.288a44.131,44.131,0,0,0,5.059-.389c.74-.074,1.436-.277,1.444-1.242a1.06,1.06,0,0,0-.224-.194c-2.739-1.122-3.854-3.4-4.287-6.114-.27-1.684.283-2.192,1.975-2.259,1.833-.068,3.666-.2,5.559-.314a19,19,0,0,1,.876-3.967,18.607,18.607,0,0,1,2.372-3.247c-1.048-.673-1.946-1.37-2.941-1.878a4.468,4.468,0,0,1-2.522-3.749,23.477,23.477,0,0,0-1.772-6.682,15.481,15.481,0,0,1-6.7-2.079c-1.168,3.561-3.517,6.127-5.956,8.635-.15.149-.292.292-.433.441-1.707,1.706-2.784,3.659-2.44,6.18a1.164,1.164,0,0,1-.733,1.377c-.621.232-1.041-.1-1.46-.561A7.889,7.889,0,0,0,84,62.756a2.735,2.735,0,0,0-4.094,1.572,3.393,3.393,0,0,0,2.754,4.587c.553.1,1.115.15,1.661.284a1.122,1.122,0,0,1-.277,2.222c-2.731.06-6.308-1.339-6.622-5.447-.254-3.278,1.855-5.814,5.059-5.867a16.538,16.538,0,0,1,3.18.6c.575-2.342,2.14-4.078,3.8-5.777a30.911,30.911,0,0,0,3.277-3.868,22.567,22.567,0,0,0,1.684-3.419,1.144,1.144,0,0,0-.135-1.28,1.236,1.236,0,0,1,.142-1.8c.636-.554,1.153-.18,1.75.247,1.7,1.2,3.36,2.536,5.859,2.821a11.546,11.546,0,0,0-4.19-3.853,1.963,1.963,0,0,0-.719-.27c-1.826-.045-3.239-1.167-4.819-1.84a8.174,8.174,0,0,0-1.885-.607,23.487,23.487,0,0,0-13.79,2.013M56.823,97.886a11.052,11.052,0,0,0,7.714-4.774,22.865,22.865,0,0,0,3.966-8.9,18.341,18.341,0,0,0,.307-4.871,39.058,39.058,0,0,0-.965-5.118c-.315-1.5-.755-2.97-.995-4.482-.233-1.451-1.168-2.379-2.605-2.072a7.278,7.278,0,0,0-2.783,1.175,12.744,12.744,0,0,0-5.6,9.779,19.149,19.149,0,0,0,.689,5.3C57,85.9,57.728,87.822,58.32,89.783A8.551,8.551,0,0,1,57.339,97c-.128.21-.247.434-.516.883m61.3,50.209c1.444-1.923,2.753-3.951,4.056-5.978a9.925,9.925,0,0,0,1.347-7.663,8.127,8.127,0,0,1,.171-4.407,6.878,6.878,0,0,1,1.3-2.207c1.168-1.339,2.155-2.851,3.33-4.437-3.127-2.514-5.806-5.32-9.046-7.543-1.556,1.736-3.016,3.375-4.483,5.006-.718.8-1.459,1.587-2.192,2.372a2.652,2.652,0,0,0-.965,1.676,1.088,1.088,0,0,1-1.19.988c-1.818.03-3.015,1.1-4.123,2.372-.844.965-1.743,1.885-2.656,2.783-1.04,1.025-1.167,1.011-2.469.284-.127-.067-.277-.195-.4-.172-1.393.217-1.759-.824-2.149-1.766-1.608-3.935-3.217-7.871-4.78-11.829a30.075,30.075,0,0,0-3.352-6.383,18.051,18.051,0,0,0-8.553-6.757,5.366,5.366,0,0,0-5.731,1.048A16.966,16.966,0,0,0,74.025,108c-.628.808-1.144,1.07-1.758.681s-.711-1.04-.292-1.915a9.03,9.03,0,0,1,10.663-4.535,20.078,20.078,0,0,1,9.945,7.917,32.724,32.724,0,0,1,3.449,6.674c1.3,3.345,2.656,6.667,4.01,9.99.389.943.867,1.848,1.376,2.926a8.43,8.43,0,0,0,1-.748c.764-.764,1.5-1.549,2.237-2.335,1.122-1.2,2.223-2.432,3.914-2.843a60.633,60.633,0,0,0-6.075-17.734,51.652,51.652,0,0,0-5.029-7.154,14.124,14.124,0,0,0-5.545-3.786q-4.546-2.065-9.181-3.928a13.145,13.145,0,0,0-2.837-.517c-.254-.037-.523.03-.77-.014-.614-.128-1.055-.45-1.025-1.138a.979.979,0,0,1,1.13-.995,15.563,15.563,0,0,1,2.88.366,17.288,17.288,0,0,1,2.739,1q5.195,2.313,10.363,4.685a22.72,22.72,0,0,1,2.148,1.265,1.819,1.819,0,0,0-.157-2.447,15.161,15.161,0,0,0-5.231-4.459c-4.758-2.358-9.682-4.205-15.07-4.46-.051,0-.1-.015-.156-.015-2.327-.18-3.285.8-3.06,3.157.014.173.067.345.1.517a1.372,1.372,0,0,0-1.062.711c-.06.128-.128.247-.195.367a1.646,1.646,0,0,0-.479.269,1.388,1.388,0,0,1-.569-.756,4.608,4.608,0,0,1-.127-.906,6.88,6.88,0,0,1,.127-2.043,7.459,7.459,0,0,1,.906-2.222A3.2,3.2,0,0,1,73.9,82.4a11.193,11.193,0,0,1,2.267-.389c.144-1,.292-2.035.45-3.128-2.11-1.639-4.2-3.262-6.465-5.021.216,1.092.412,2.05.606,3.015a19.431,19.431,0,0,1-.254,8.672,25.888,25.888,0,0,1-2.088,5.463A20.612,20.612,0,0,1,64.56,96.54a12.276,12.276,0,0,1-7.774,3.644,10.713,10.713,0,0,1-3.165-.449,2.117,2.117,0,0,1-1.07-.8c-.479-.659-.135-1.7.613-1.669,1.108.045,1.571-.7,2.006-1.354a6.636,6.636,0,0,0,1.115-2.642,7.846,7.846,0,0,0-.218-3.03c-.486-1.983-1.174-3.921-1.72-5.9a15.18,15.18,0,0,1-.18-8.942,15.709,15.709,0,0,1,6.458-8.724A27.461,27.461,0,0,1,64.806,64.9a30.519,30.519,0,0,1-.434-3.1,26.592,26.592,0,0,1,1.946-11.434c1.886-4.661,5.5-7.557,9.922-9.585a25.4,25.4,0,0,1,15.025-1.923,19.2,19.2,0,0,1,3.98,1.579,6.343,6.343,0,0,0,1.266.524c3.59.62,5.888,2.97,7.765,5.821a21.888,21.888,0,0,1,3.1,8.942,3.916,3.916,0,0,0,2.245,3.352,15.156,15.156,0,0,1,2.566,1.684c1.3.995,1.4,1.968.442,3.314a.794.794,0,0,1-.1.12c-1.93,1.631-2.447,3.876-2.873,6.233a43.606,43.606,0,0,1-3.255,9.914,2.759,2.759,0,0,1-2.447,1.8c-2.393.232-4.789.494-7.37.764-.584,1.519-1.189,3.12-1.863,4.871.2.172.553.448.875.755,1.048.988,2.118,1.946,3.113,2.979,1.6,1.654,2.02,3.4.583,6.173,6.3,6.742,8.972,15.287,11.351,24.086a3.535,3.535,0,0,0,.629-.434c1.894-2.155,3.823-4.287,5.642-6.509a2.95,2.95,0,0,1,2.126-1.325,2.217,2.217,0,0,0,1.833-1.175c.366-.553.786-1.077,1.137-1.646.951-1.549,1.52-3.256.793-4.977-1.242-2.956-1.257-6.105-1.789-9.166-.277-1.616-.576-3.232-.8-4.856a13.069,13.069,0,0,1-.136-2.753,2.318,2.318,0,0,1,1.841-2.185,2.4,2.4,0,0,1,2.619,1.466,6.456,6.456,0,0,1,.471,1.767,13.07,13.07,0,0,0,1.489,5.08,10.032,10.032,0,0,0,5.283-2.507c2.364-2.342,4.639-4.781,6.913-7.213.809-.854,1.445-1.878,2.291-2.694a7.45,7.45,0,0,1,2.268-1.511c1.346-.554,2.379.337,2.1,1.773a6.634,6.634,0,0,1-.845,2.125c-.591.95-1.317,1.826-1.99,2.731-.292.4-.6.793-.9,1.182.082.075.165.143.247.217,1.2-1.122,2.379-2.259,3.584-3.367a13.374,13.374,0,0,1,1.654-1.377,2.115,2.115,0,0,1,2.462.067c.778.524.711,1.295.4,2.074a1.15,1.15,0,0,0-.007.366c.172.052.367.1.554.164,1.488.524,1.9,1.362,1.07,2.694a40.687,40.687,0,0,1-2.941,3.937c-.831,1.032-1.766,1.989-2.567,3.157.337-.135.689-.247,1.019-.4,1.01-.495,1.99-1.056,3.03-1.49a4.454,4.454,0,0,1,1.923-.412,1.441,1.441,0,0,1,1.273,2.282,8.654,8.654,0,0,1-2.245,2.469,36.523,36.523,0,0,1-4.745,2.828,27.579,27.579,0,0,0-7.393,5.44,33.787,33.787,0,0,1-3.973,3.4,20.7,20.7,0,0,0-4.31,4.55c-.951,1.339-1.939,2.649-3.038,4.145.785.621,1.52,1.227,2.268,1.8,1.092.847,1.309,1.6.561,2.776-.876,1.385-1.878,2.687-2.814,4.033-.531.755-1.092,1.489-1.557,2.282a3.324,3.324,0,0,0-.427,2.656A12,12,0,0,1,124.1,143.53a91.569,91.569,0,0,1-10.056,13.013,38.1,38.1,0,0,1-6.96,6.03,31.86,31.86,0,0,1-4.684,2.575c.128-.127.247-.262.367-.4a1.515,1.515,0,0,0-.166-2.192,27.976,27.976,0,0,0,5.186-3.33A59.57,59.57,0,0,0,118.128,148.1m4.848-58.97c-.112-.255-.464-.4-1.017-.86a13.051,13.051,0,0,0-.128,2.252c.33,2.432.771,4.856,1.092,7.288a39.617,39.617,0,0,0,1.587,7.49,7.152,7.152,0,0,1-1.242,6.7c-.6.809-1.19,1.623-1.812,2.469,1.669,1.407,3.226,2.716,4.857,4.1,1.362-1.84,2.626-3.568,3.914-5.289a16.288,16.288,0,0,1,2.985-3.068,59.542,59.542,0,0,0,5.448-4.729,22.691,22.691,0,0,1,5.792-4.243c1.915-.973,3.749-2.11,5.59-3.225a2.909,2.909,0,0,0,1.451-1.714c-.837.351-1.406.561-1.946.823-1.8.883-3.561,1.811-5.372,2.656a5.575,5.575,0,0,1-1.885.419,1.042,1.042,0,0,1-.838-.479,1.291,1.291,0,0,1,.187-.965,5.021,5.021,0,0,1,.733-.778c2.26-2.515,4.526-5.021,6.771-7.551A10.57,10.57,0,0,0,150,89.094a2.665,2.665,0,0,0-2.11.854c-2.185,2.372-4.474,4.654-6.726,6.966-.42.435-.905.786-1.452.232-.524-.538-.18-1.055.224-1.474.464-.479.972-.913,1.466-1.362a37.387,37.387,0,0,0,5.889-6.465c.359-.524.621-1.107.928-1.661-.1-.083-.21-.165-.308-.247-.493.418-.995.822-1.481,1.242-2.373,2.035-4.737,4.078-7.124,6.091a4.264,4.264,0,0,1-1.316.771.934.934,0,0,1-1.265-1.16,3.721,3.721,0,0,1,.614-1.228c.779-1.077,1.594-2.133,2.4-3.188,1-1.3,2.028-2.581,3.016-3.9a2.079,2.079,0,0,0,.524-1.8c-.884.935-1.579,1.661-2.268,2.4q-3.761,4.063-7.512,8.126a13.754,13.754,0,0,1-6.547,3.531c-1.152.337-1.661-.015-2.163-1.077a15.5,15.5,0,0,1-1.444-5.148,5.072,5.072,0,0,0-.374-1.481" transform="translate(-36.667 -26.967)" fill="#474645"/>
          <path id="パス_21614" data-name="パス 21614" d="M37.169,558.523a1.659,1.659,0,0,0-1.174,1.1h.592a1.27,1.27,0,0,0,.582-1.1" transform="translate(-25.222 -391.355)" fill="#474645"/>
          <path id="パス_21615" data-name="パス 21615" d="M35.869,562.21c-.015.047-.043.091-.054.139a1.093,1.093,0,0,0,.646-.139Z" transform="translate(-25.095 -393.939)" fill="#474645"/>
          <path id="パス_21616" data-name="パス 21616" d="M11.947,315.278a2.211,2.211,0,0,0,0-.441c-.022-.2-.06-.4-.1-.606q-4.209-21.012-8.411-42.037c-.613-3.068-1.362-6.135-1.032-9.286.412-4,1.983-7.3,6.091-8.807.718-.27,1.437-.538,2.155-.8q5.343-1.952,10.685-3.9c.367-.134.748-.239,1.362-.441-.344,1.489-.674,2.672-.883,3.884-.831,4.894-1.691,9.787-2.394,14.711a50.2,50.2,0,0,0-.666,8.252c.112,4.512,2.409,8.06,5.732,10.977a2.247,2.247,0,0,0,1.369.531.841.841,0,0,0,.382-.1,1.555,1.555,0,0,1,.516-1.556.552.552,0,0,0-.067-.134c-.21-.321-.629-.509-.935-.779-3.27-2.949-5.245-6.57-4.722-11.007.748-6.458,1.63-12.923,2.851-19.305,1.519-8,3.374-15.931,5.223-23.862.9-3.883,2.005-7.73,3.209-11.531a11.843,11.843,0,0,1,3.465-5.537,2.96,2.96,0,0,0,.262-.27,1.535,1.535,0,0,1-1.182-1.474,1.238,1.238,0,0,1,.053-.382,1.333,1.333,0,0,0-.487.195,4.846,4.846,0,0,0-1.2,1.145,24.788,24.788,0,0,0-4.295,9.278c-1.4,5.672-2.694,11.367-4.012,17.053-.561,2.387-1.062,4.782-1.587,7.131-.74.247-1.369.448-1.99.674q-5.915,2.155-11.83,4.324c-1.055.389-2.1.816-3.143,1.235a7.754,7.754,0,0,0-3.457,2.731A13.074,13.074,0,0,0,.02,263.708a63.866,63.866,0,0,0,1.017,7.909c2.274,11.875,4.625,23.727,6.951,35.595.517,2.663,1.025,5.327,1.572,7.991a1.684,1.684,0,0,0,.744,1.178h.469a1.66,1.66,0,0,1,1.174-1.1" transform="translate(0 -148.11)" fill="#474645"/>
          <path id="パス_21617" data-name="パス 21617" d="M34.9,562.21h-.469a1.067,1.067,0,0,0,.415.139c.011-.049.039-.092.054-.139" transform="translate(-24.124 -393.939)" fill="#474645"/>
          <path id="パス_21618" data-name="パス 21618" d="M179.538,467.315c-2.439,0-4.728-.169-4.769-.172a1.123,1.123,0,0,1,.18-2.238c2.929.236,7.741.271,8.925-.207a1.123,1.123,0,0,1,.838,2.083,17.25,17.25,0,0,1-5.174.534" transform="translate(-121.737 -325.555)" fill="#474645"/>
        </g>
      </g>
      <rect id="長方形_8659" data-name="長方形 8659" width="320" height="220" transform="translate(811.848 14351.922)" fill="none"/>
    </g>
  </g>
</svg>
