<svg xmlns="http://www.w3.org/2000/svg" xmlns:xlink="http://www.w3.org/1999/xlink" width="360" height="360" viewBox="0 0 360 360">
  <defs>
    <clipPath id="clip-path">
      <rect id="長方形_8772" data-name="長方形 8772" width="290.258" height="200.259" fill="none"/>
    </clipPath>
  </defs>
  <g id="グループ_19045" data-name="グループ 19045" transform="translate(-960 -11231)">
    <g id="長方形_6866" data-name="長方形 6866" transform="translate(960 11231)" fill="none" stroke="#4b3928" stroke-width="1">
      <rect width="360" height="360" rx="16" stroke="none"/>
      <rect x="0.5" y="0.5" width="359" height="359" rx="15.5" fill="none"/>
    </g>
    <text id="_03" data-name="03" transform="translate(1140 11284)" fill="#3a3a3a" font-size="24" font-family="NotoSansJP-Bold, Noto Sans JP" font-weight="700"><tspan x="-14.16" y="0">03</tspan></text>
    <g id="グループ_18898" data-name="グループ 18898" transform="translate(998.307 11340.371)">
      <g id="グループ_17879" data-name="グループ 17879" clip-path="url(#clip-path)">
        <path id="パス_26857" data-name="パス 26857" d="M289.251,196.836c.027-.374.032-.712.04-.814a20.876,20.876,0,0,0,.07-2.333,3.455,3.455,0,0,0-.284-1.583.133.133,0,0,1,.23-.134,5.384,5.384,0,0,1,.321,2.754q-.033,1.041-.135,2.078a.74.74,0,0,1-.156.029.794.794,0,0,1-.086,0" fill="#373635"/>
        <path id="パス_26858" data-name="パス 26858" d="M280.283,155.21c.6,1.059,1.215,2.11,1.766,3.193a73.354,73.354,0,0,1,4.622,10.626,75.593,75.593,0,0,1,3.134,13.2,57.449,57.449,0,0,1,.446,8.386c-.019,1.62-.064,3.243-.1,4.864a4.12,4.12,0,0,1-.049.658.867.867,0,0,1-.607.664q.1-1.036.135-2.077a5.4,5.4,0,0,0-.32-2.755.134.134,0,0,0-.231.135,3.449,3.449,0,0,1,.285,1.582,21.369,21.369,0,0,1-.07,2.333c-.008.1-.014.441-.041.814a.871.871,0,0,1-.763-.58,3.119,3.119,0,0,1-.1-.868c.008-1,.027-1.992.064-2.986a64.426,64.426,0,0,0-.36-9.712,58.566,58.566,0,0,0-1.4-7.265,65.509,65.509,0,0,0-4.784-13.4,51.69,51.69,0,0,0-2.639-5.1c-.178-.279-.339-.569-.535-.836-.589-.795-.6-.8-.543-1.636a7.306,7.306,0,0,1,.655,1.338c.057.164.318.094.259-.07a7.792,7.792,0,0,0-.653-1.351l.247-.148a1.527,1.527,0,0,1,1.58.986" fill="#373635"/>
        <path id="パス_26859" data-name="パス 26859" d="M218.546,152.587l-.032.1c.013-.021.037-.04.04-.062a.19.19,0,0,0-.008-.04m5.3,47.079a3.251,3.251,0,0,1-.107-.427q-1.588-6.663-3.177-13.325c-.282-1.182-.551-2.367-.825-3.552-.024-.108-.059-.213-.081-.32-.223-1.091-.056-1.352,1.024-1.637a1.765,1.765,0,0,0,.221-.1,5.424,5.424,0,0,0-.82-3.762c-.951-1.449-1.841-2.935-2.79-4.383q-2.575-3.927-5.192-7.829a22.79,22.79,0,0,0-1.432-1.825c-1.505-1.817-3.024-3.623-4.529-5.436a6,6,0,0,1-1.222-2.083,6.4,6.4,0,0,1-.272-1.18,2.588,2.588,0,0,1,3.343-2.7,3.924,3.924,0,0,1,1.338.749c.492.444.968.909,1.428,1.385.408.421.784.875,1.179,1.322.221-.172.062-.331,0-.468-.731-1.612-1.467-3.217-2.2-4.827a15.406,15.406,0,0,1-1.113-3.464,3.581,3.581,0,0,1,.11-1.854,1.987,1.987,0,0,1,2.29-1.465,2.994,2.994,0,0,1,2.15,1.215,12.9,12.9,0,0,1,.822,1.309q1.878,3.316,3.744,6.643c.164.288.331.575.519.847.037.053.185.029.279.043a.119.119,0,0,0,.016.037l.008-.029c-.621-2.118-1.263-4.23-1.849-6.359-.314-1.134-.556-2.29-.785-3.445a9.9,9.9,0,0,1-.2-1.865,2.427,2.427,0,0,1,2.47-2.443,1.569,1.569,0,0,1,.744.172,4.145,4.145,0,0,1,2.035,1.948c.478,1.156.932,2.322,1.389,3.486a3.55,3.55,0,0,0,.476.992c.005-.237.019-.471.013-.707-.01-.85-.04-1.7-.043-2.543a7.343,7.343,0,0,1,.46-2.6,2.6,2.6,0,0,1,2-1.863.958.958,0,0,0,.207-.072.462.462,0,0,0,.091-.07c.145-.371.28-.75.441-1.116a3.1,3.1,0,0,1,.349-.564,1.706,1.706,0,0,1,2.9-.2,8.551,8.551,0,0,1,1.736,2.674c.349.852.629,1.73.938,2.6.086.239.166.481.25.718.284-.011.161-.21.185-.32a1.329,1.329,0,0,0,.005-.328,9.73,9.73,0,0,1,.258-2.962,4.518,4.518,0,0,1,.525-1.2,1.791,1.791,0,0,1,2.338-.637,3.66,3.66,0,0,1,2.139,2.521,21.029,21.029,0,0,1,.736,4.241c.145,2.427.264,4.856.392,7.286.011.183.019.368.027.551a1.338,1.338,0,0,0,.742,1.26,3.262,3.262,0,0,1,.473.36l.551,1.218a9.924,9.924,0,0,1-.5,4.837c-.086.283-.193.556-.29.833-.572,1.634-1.166,3.258-1.7,4.9a22.058,22.058,0,0,0-.615,2.457c-.173.828-.3,1.666-.417,2.505a9.72,9.72,0,0,1-1.427,4.023c-.36.556-.709,1.12-1.056,1.682-.191.309-.368.623-.643,1.091a3.251,3.251,0,0,0,2.038-.876,1,1,0,0,1,1.446.167q-.448.173-.893.352a.144.144,0,0,0,0,.266l-.441,1.51a4.724,4.724,0,0,0-.7.135c-2.126.725-4.241,1.475-6.367,2.2-1.883.64-3.776,1.245-5.657,1.884-.588.2-1.153.473-1.652.68a1.41,1.41,0,0,0-.035,1.164q1.08,5.139,2.472,10.2c.476,1.739.879,3.5,1.3,5.251a3.7,3.7,0,0,1,.115.874.927.927,0,0,1-.027.22c-.145,0-.293.011-.438.019.065-.083.035-.232-.094-.215-.376.048-.685.242-1.075.268a.071.071,0,0,0-.024.006.193.193,0,0,1-.019-.038M238.7,156.3a5.614,5.614,0,0,0,.094-2.413c-.053-.28-.121-.578-.454-.691a1.626,1.626,0,0,0-.989.838,20.819,20.819,0,0,0-1.244,2.207c-.518,1.139-.984,2.3-1.422,3.475a8.118,8.118,0,0,0-.793,2.513,1.091,1.091,0,0,1-1.757.54,2.268,2.268,0,0,1-.457-.742,10.948,10.948,0,0,1-.4-1.378c-.451-1.936-.889-3.876-1.336-5.814-.881-3.84-1.755-7.683-2.658-11.518-.22-.927-.526-1.838-.83-2.747a2.154,2.154,0,0,0-1.048-1.354,1.346,1.346,0,0,0-.274.226,1.412,1.412,0,0,0-.25.483,10.33,10.33,0,0,0-.368,2.056,28.333,28.333,0,0,0,.2,4.08c.385,2.733.877,5.453,1.344,8.175a14.024,14.024,0,0,0,.406,1.489,8.534,8.534,0,0,1,.258.844.865.865,0,0,1-.489.908.789.789,0,0,1-.994-.242,2.959,2.959,0,0,1-.678-1.244,13.737,13.737,0,0,0-.516-1.685c-.266-.766-.567-1.519-.83-2.284-.822-2.4-1.618-4.816-2.454-7.216-.387-1.11-.838-2.2-1.276-3.292a2.114,2.114,0,0,0-1.038-1.1.586.586,0,0,0-.908.553,8.184,8.184,0,0,0,.142,1.425c.535,2.674,1.245,5.3,2.005,7.922.75,2.583,1.454,5.176,2.169,7.767a4.032,4.032,0,0,1,.185,1.081,1.069,1.069,0,0,1-.714,1.024.92.92,0,0,1-1.118-.482c-.124-.182-.226-.381-.334-.575-.483-.868-.962-1.738-1.448-2.607q-2.859-5.11-5.725-10.22a14.233,14.233,0,0,0-.886-1.4,1.209,1.209,0,0,0-1.242-.565,1.612,1.612,0,0,0-.185,1.374,14.5,14.5,0,0,0,1.12,3.343q2.524,5.411,5.034,10.823a7.673,7.673,0,0,1,.355.806.949.949,0,0,1-.328,1.179.963.963,0,0,1-1.29-.2c-.277-.3-.516-.623-.771-.938-1.556-1.916-3.1-3.841-4.671-5.749a18.618,18.618,0,0,0-1.374-1.437,3.708,3.708,0,0,0-.795-.589.765.765,0,0,0-.839-.04.865.865,0,0,0-.4.954,4.648,4.648,0,0,0,.393,1.142,8.31,8.31,0,0,0,.889,1.26c1.489,1.782,2.994,3.548,4.486,5.33a22.239,22.239,0,0,1,1.437,1.819q2.831,4.221,5.612,8.479c.846,1.3,1.65,2.618,2.448,3.943a5.984,5.984,0,0,1,1.011,3.338,1.568,1.568,0,0,0,.107.389c1.65-.4,3.222-1.01,4.824-1.516a43.956,43.956,0,0,0,4.8-1.795,1.783,1.783,0,0,1,.22-2.1c.5-.777,1-1.549,1.492-2.325a7.733,7.733,0,0,0,1.1-3.1c.084-.583.189-1.164.274-1.746a23.182,23.182,0,0,1,1.14-4.491c.481-1.314.951-2.631,1.4-3.959.247-.731.459-1.478.639-2.228m-1.569-4.652c-.046-.443-.1-.809-.116-1.174-.067-1.436-.107-2.87-.182-4.3-.067-1.325-.11-2.653-.269-3.964a31.484,31.484,0,0,0-.645-3.244,1.756,1.756,0,0,0-1.266-1.437,1.729,1.729,0,0,0-.266.467,9.406,9.406,0,0,0-.255,1.739c.005,1.655.056,3.311.126,4.966.089,2.021.215,4.042.317,6.066a3.849,3.849,0,0,1-.021.879.833.833,0,0,1-1.269.591,1.774,1.774,0,0,1-.927-1.177c-.064-.36-.129-.723-.2-1.086-.371-1.989-.712-3.983-1.124-5.964a28.163,28.163,0,0,0-1.29-4.445,9.263,9.263,0,0,0-1.448-2.59,4.227,4.227,0,0,0-.495-.436c-.314.546-.583,1.011-.846,1.468a6.463,6.463,0,0,1,1.494,2.948c.07.247.148.494.2.744q1.206,5.217,2.4,10.433c.511,2.223,1.016,4.445,1.529,6.668.038.164.014.379.318.47a3.234,3.234,0,0,0,.239-.422c.282-.68.548-1.365.827-2.045a12.857,12.857,0,0,1,3.161-5.152" fill="#373635"/>
        <path id="パス_26860" data-name="パス 26860" d="M225.493,199.626a.81.81,0,0,1-.121.271c-.451.019-.9.041-1.352.065a.976.976,0,0,1-.158-.258.071.071,0,0,1,.024-.006c.39-.026.7-.22,1.075-.268.129-.017.159.131.094.215.145-.009.293-.014.438-.019" fill="#373635"/>
        <path id="パス_26861" data-name="パス 26861" d="M283.787,119.241a21.682,21.682,0,0,1,.85,10.468,13.364,13.364,0,0,1-1.449,4.039,32.811,32.811,0,0,1-3.386,5.039c-1.029,1.3-2.078,2.586-3.1,3.886-.32.406-.586.849-.9,1.256a1.714,1.714,0,0,0-.253,1.7c.231,0,.444-.01.653,0a.986.986,0,0,1,1.078.89c.3,1.292.583,2.585.881,3.878.148.645.3,1.293.479,1.929a2.367,2.367,0,0,1,.07,1.9l-.247.148c-.221-.374-.463-.737-.7-1.1a.142.142,0,0,0-.252.038l-1.062-.275a3.321,3.321,0,0,0,.465-.325c-.408-1.707-.811-3.375-1.284-5.052a3.694,3.694,0,0,0-.5.056c-1.177.293-2.359.578-3.531.9a75.659,75.659,0,0,0-17.154,7.4l-.79-1.406.454-.234a10.435,10.435,0,0,0-.492-2.284c-.156-.718-.349-1.427-.54-2.19-.234-.03-.484-.078-.734-.1-2.1-.134-4.192-.247-6.288-.408a7.9,7.9,0,0,1-1.723-.347,2.067,2.067,0,0,1-.419-.18,1.761,1.761,0,0,1-.89-1.54c-.132-2.1-.29-4.19-.446-6.286-.118-1.58-.282-3.157-.352-4.738a2.1,2.1,0,0,0-.823-1.588c-1.047-.927-2.058-1.9-3.074-2.862a6.232,6.232,0,0,1-.812-.9,1.447,1.447,0,0,1,.14-2,5.04,5.04,0,0,1,.943-.761c1.406-.876,2.828-1.728,4.247-2.586.314-.19.639-.36,1-.561.239-1.03.481-2.067.72-3.1a30.05,30.05,0,0,1,1.908-5.873,15.6,15.6,0,0,1,2.177-3.305.926.926,0,0,1,.836-.32.953.953,0,0,1,.272.073c.432.18.817.621.7,1.01a2.31,2.31,0,0,0,.279,1.583,9.355,9.355,0,0,0,1.347,2.4,4.146,4.146,0,0,0,.392.365c.1-.5.175-.884.248-1.271a5.988,5.988,0,0,0,.134-.873c.013-1.215.817-1.717,1.817-2.048a.9.9,0,0,1,1.109.489,17.784,17.784,0,0,0,3.591,5.254c1.094,1.2,2.153,2.424,3.225,3.641a6.1,6.1,0,0,1,1.454,2.817,6.007,6.007,0,0,0,.261.752c.327-.1.6-.182.873-.279a4.872,4.872,0,0,1,2.4-.175,4.042,4.042,0,0,1,2.674,1.806,6.326,6.326,0,0,1,.954,5.066,6.95,6.95,0,0,1-1.911,3.668c-.153.157-.288.326-.468.533.8,1.943,1.449,3.931,2.261,5.888a8.891,8.891,0,0,0,3-.392,1.14,1.14,0,0,0,.516-.374c1.486-1.83,2.985-3.652,4.423-5.523a38.393,38.393,0,0,0,2.242-3.284,12.1,12.1,0,0,0,1.814-5.955,23.61,23.61,0,0,0-.718-7.12,8.337,8.337,0,0,0-3.1-4.708,7.207,7.207,0,0,0-2.085-1.416.639.639,0,0,1-.39-.731,4.106,4.106,0,0,0-1.526-3.615,11.154,11.154,0,0,0-3.384-2.451c-.636-.285-1.276-.57-1.91-.868a8.538,8.538,0,0,0-3.532-.792,23.657,23.657,0,0,0-8.285,1.1,21.485,21.485,0,0,0-7.77,4.534,3.223,3.223,0,0,1-.328.29.9.9,0,0,1-.513.172.821.821,0,0,1-.511-.188.859.859,0,0,1-.25-1,1.9,1.9,0,0,1,.358-.554,8.58,8.58,0,0,1,.975-.892,24.147,24.147,0,0,1,10.337-4.765,26.176,26.176,0,0,1,7.371-.363,6.178,6.178,0,0,1,1.406.277,18.266,18.266,0,0,1,6.815,3.76,8.54,8.54,0,0,1,2.021,2.6,5.513,5.513,0,0,1,.481,1.462,1.626,1.626,0,0,0,.664,1.091c.425.353.841.715,1.271,1.065a9.965,9.965,0,0,1,3.3,4.743m-10.029,26.843c-.086-.417-.172-.841-.272-1.317-.263.013-.478.019-.69.038-.514.04-1.027.123-1.54.123a1.853,1.853,0,0,1-1.83-1.182c-.215-.506-.374-1.038-.565-1.554-.406-1.1-.812-2.209-1.231-3.308a4.3,4.3,0,0,0-.338-.594,7.441,7.441,0,0,1-.764.228.878.878,0,0,1-1.075-.548.9.9,0,0,1,.5-1.1c.158-.094.333-.153.5-.236a5.481,5.481,0,0,0,3.133-5.6,4.072,4.072,0,0,0-.642-1.859,2.524,2.524,0,0,0-3.029-1.226.866.866,0,0,0-.785.667.876.876,0,0,1-.672.661,2.475,2.475,0,0,0-.588.285.869.869,0,0,1-1.338-.755c-.016-.366.01-.737-.006-1.1a5.509,5.509,0,0,0-1.271-3.456c-.766-.895-1.505-1.817-2.3-2.685A38.777,38.777,0,0,1,255,116.538c-.1-.154-.179-.331-.475-.28-.132,1-.271,2.016-.4,3.034a5.609,5.609,0,0,1-.086.766,5.723,5.723,0,0,1-.339.771c.285.5.586.965.817,1.462a.872.872,0,0,1-.349,1.234.905.905,0,0,1-1.215-.435c-.145-.213-.263-.444-.4-.661a1.884,1.884,0,0,0-2.083-.9c-.18.033-.352.1-.532.137-.734.159-1.209-.04-1.363-.562s.164-.967.879-1.16a8.058,8.058,0,0,1,1.08-.2c.277-.038.562-.038.89-.059a1.663,1.663,0,0,0-.131-.371,17.538,17.538,0,0,1-2.113-3.615c-.048-.113-.177-.19-.317-.338-.22.387-.419.693-.581,1.021a18.78,18.78,0,0,0-1.515,4.02c-.382,1.613-.766,3.223-1.105,4.843a2,2,0,0,1-1.215,1.57,28.628,28.628,0,0,0-4.563,2.685c-.234.161-.446.354-.736.591.292.3.532.572.795.817,1.048.981,2.094,1.967,3.164,2.927a2.078,2.078,0,0,1,.725,1.314c.054.387.156.768.242,1.177.51,0,.951,0,1.392,0,1.362-.005,2.725-.019,4.087-.021.817,0,1.207.4,1.191,1.236a3.4,3.4,0,0,1-.118.871,25.628,25.628,0,0,1-.828,2.628,6.7,6.7,0,0,1-5.1,4.461,7.478,7.478,0,0,0,.175,1.736,3.133,3.133,0,0,0,1.507.393q2.093.117,4.19.231c.882.045,1.766.083,2.647.142.253.016.586.016.737.167.424.438.954.86.962,1.545a13.061,13.061,0,0,0,.706,3.225,3.052,3.052,0,0,0,.269.511c.411-.2.774-.363,1.132-.54,1.451-.723,2.881-1.487,4.348-2.167a76.832,76.832,0,0,1,11.379-4.2,1.831,1.831,0,0,0,1.016-.457m-29.173-2.462c2.209-.487,3.9-2.674,4.152-5.41a7.944,7.944,0,0,0-2.348-.134,7,7,0,0,0-2.325.212c.048.9.04,1.79.158,2.658a8.506,8.506,0,0,0,.363,2.674" fill="#373635"/>
        <path id="パス_26862" data-name="パス 26862" d="M283.449,186.882c-.016.089-.045.269-.08.449q-.745,3.9-1.5,7.8a4.217,4.217,0,0,1-.2.744.97.97,0,0,1-1.272.567.914.914,0,0,1-.527-1.171q.7-3.229,1.374-6.469c.129-.61.25-1.223.376-1.836a3.6,3.6,0,0,1,.134-.532.866.866,0,0,1,1.057-.567.933.933,0,0,1,.631,1.019" fill="#373635"/>
        <path id="パス_26863" data-name="パス 26863" d="M283.132,171.838a.848.848,0,0,1-.366.957.837.837,0,0,1-1.021-.1,3.834,3.834,0,0,1-.5-.723c-.529-.927-1.075-1.849-1.562-2.8a5.54,5.54,0,0,0-1.9-2.1,9.525,9.525,0,0,0-7.353-1.572,6.384,6.384,0,0,0-1.645.621,9.819,9.819,0,0,0-4.993,5.643,46.528,46.528,0,0,0-1.511,6.109q-1.4,6.873-2.8,13.746c-.268,1.336-.518,2.677-.79,4.01a4.374,4.374,0,0,1-.29.946.855.855,0,0,1-1.005.486.967.967,0,0,1-.659-1c.027-.137.07-.352.119-.567.631-2.841,1.255-5.681,1.9-8.516.8-3.521,1.51-7.058,2.15-10.611a32.583,32.583,0,0,1,1.306-5.246,11.487,11.487,0,0,1,7.3-7.184,6.521,6.521,0,0,1,2.5-.362,14.519,14.519,0,0,1,4.012.7,11.134,11.134,0,0,1,3.929,2.408,3.4,3.4,0,0,1,.618.776c.788,1.288,1.559,2.586,2.333,3.884a2.5,2.5,0,0,1,.226.5" fill="#373635"/>
        <path id="パス_26864" data-name="パス 26864" d="M279.109,155.723c.059.164-.2.234-.258.07a7.417,7.417,0,0,0-.656-1.339.045.045,0,0,0,0-.021.065.065,0,0,0-.022-.008c-.206-.344-.432-.683-.655-1.019a.129.129,0,0,1-.022-.1.143.143,0,0,1,.253-.038c.242.363.483.726.7,1.1a7.729,7.729,0,0,1,.653,1.352" fill="#373635"/>
        <path id="パス_26865" data-name="パス 26865" d="M278.176,154.425c-.3-.148-.543.043-.8.158a54.118,54.118,0,0,0-11.577,7.055c-2.368,1.876-4.7,3.8-7.044,5.708-.487.393-.976.782-1.473,1.164a5.413,5.413,0,0,1-.739.486,1.246,1.246,0,0,1-1.9-.653c-.142-.3-.245-.615-.365-.924q-1.536-3.846-3.075-7.7c-.15-.373-.328-.736-.516-1.163-.323.164-.285.53-.5.688a5.177,5.177,0,0,0-.634.43,1.909,1.909,0,0,0-.385.658c-.309.828-.612,1.659-.878,2.5-.963,3.061-1.637,6.195-2.4,9.3-.379,1.54-.784,3.069-1.158,4.609-.1.424-.143.865-.213,1.3a1.2,1.2,0,0,1-.07.43,9.8,9.8,0,0,0-.889,2.943c-.376,1.5-.68,3.018-1.04,4.523a2.737,2.737,0,0,0,.178,1.816c.919,2.129,1.784,4.284,2.66,6.432a6.74,6.74,0,0,1,.381,1.15,1.415,1.415,0,0,1-.051.75.863.863,0,0,1-1.515.22,1.12,1.12,0,0,1-.207-.384,57.2,57.2,0,0,0-2.785-7.326c-1.593-3.763-3.281-7.488-4.931-11.229a3.624,3.624,0,0,0-.207-.349l.441-1.511a.115.115,0,0,0,.072-.007q.463-.186.928-.363a.885.885,0,0,1,.021.19,4.7,4.7,0,0,0,.535,1.9c.924,2.126,1.876,4.241,2.822,6.356a2.014,2.014,0,0,0,.26.352.932.932,0,0,0,.146-.215q.645-2.625,1.281-5.252a1.408,1.408,0,0,0-.166-.953c-.39-.834-.755-1.678-1.139-2.516-.1-.226-.237-.441-.361-.667-.228.011-.411.006-.591.03-.29.041-.578.116-.871.145a1.251,1.251,0,0,1-.287,0,4.236,4.236,0,0,1,1.15-.344c.172-.016.172-.285,0-.269a5.894,5.894,0,0,0-1.347.414l-.193.07a.814.814,0,0,1-.347-.362.9.9,0,0,1,.261-1.089,3.818,3.818,0,0,1,.384-.3,3.539,3.539,0,0,1,.089-2.341,15.782,15.782,0,0,1,.608-1.54,20.231,20.231,0,0,0,1.306-3.859c.5-2.112,1.026-4.22,1.537-6.329.4-1.645.8-3.287,1.177-4.937a5.921,5.921,0,0,0,.113-1.312.47.47,0,0,0-.683-.47,6.371,6.371,0,0,0-1.158.61c-.242.156-.409.438-.656.581a3.435,3.435,0,0,1-.828.244l-.551-1.217c.229-.258.433-.511.656-.742a4.235,4.235,0,0,1,2.6-1.327,2.256,2.256,0,0,1,.506,0,2.066,2.066,0,0,1,1.9,2.01,7.6,7.6,0,0,1-.172,2.08c-.691,2.94-1.435,5.867-2.158,8.8-.1.393-.21.782-.3,1.177a29.77,29.77,0,0,1-1.879,5.767,5.629,5.629,0,0,0-.508,2.529,4.5,4.5,0,0,0,.541.006,1.087,1.087,0,0,1,1.2.769c.188.44.377.878.573,1.316.088.194.193.382.365.718.143-.438.258-.728.333-1.027.815-3.289,1.6-6.584,2.443-9.866.347-1.354.793-2.682,1.215-4.017a7.449,7.449,0,0,1,.47-1.118,2.025,2.025,0,0,1,2.22-1.3,2.643,2.643,0,0,1,.234-.718,3,3,0,0,1,.58-.473c.084-.067.189-.145.215-.236.194-.648.745-.871,1.28-1.129.446-.215.884-.444,1.333-.675l.79,1.406q-.5.274-.989.556a11.212,11.212,0,0,0-1.271.968,63.688,63.688,0,0,0,3.993,9.537,3.571,3.571,0,0,0,1.18-.763q2.818-2.229,5.62-4.469a71.571,71.571,0,0,1,13.469-8.8l1.062.275a.129.129,0,0,0,.022.1c.223.336.448.675.655,1.019" fill="#373635"/>
        <path id="パス_26866" data-name="パス 26866" d="M251.213,125.1a2.891,2.891,0,0,1,.535,1.777,8.612,8.612,0,0,1-.285,1.037.861.861,0,0,1-.954.572.85.85,0,0,1-.683-.973c.016-.293.081-.58.089-.87a.561.561,0,0,0-.395-.586.7.7,0,0,0-.7.422c-.048.137-.04.29-.075.432a.766.766,0,0,1-.675.629.825.825,0,0,1-.927-.438,1.591,1.591,0,0,1-.161-.833,2.586,2.586,0,0,1,1.989-1.973,2.118,2.118,0,0,1,2.241.8" fill="#373635"/>
        <path id="パス_26867" data-name="パス 26867" d="M240.28,173.9c.172-.016.172.253,0,.269a4.247,4.247,0,0,0-1.15.344,1.05,1.05,0,0,1-.39-.129l.194-.07a5.836,5.836,0,0,1,1.346-.414" fill="#373635"/>
        <path id="パス_26868" data-name="パス 26868" d="M237.48,175.143q-.463.177-.927.363a.125.125,0,0,1-.072.008.144.144,0,0,1,0-.266c.295-.118.594-.237.892-.352a.759.759,0,0,1,.1.247" fill="#373635"/>
        <path id="パス_26869" data-name="パス 26869" d="M237.238,186.78a.827.827,0,0,1-.2,1.005,2.634,2.634,0,0,1-.771.409q-4.569,1.483-9.141,2.94a6.21,6.21,0,0,1-.666.15.943.943,0,0,1-1.024-.777.885.885,0,0,1,.7-.98c.852-.231,1.728-.377,2.561-.651,2.309-.757,4.6-1.564,6.9-2.346a3.952,3.952,0,0,1,.847-.223.748.748,0,0,1,.8.473" fill="#373635"/>
        <path id="パス_26870" data-name="パス 26870" d="M224.021,199.962c.451-.024.9-.046,1.352-.065a.824.824,0,0,1-.575.353.833.833,0,0,1-.777-.288" fill="#373635"/>
        <path id="パス_26871" data-name="パス 26871" d="M39.494,119.028a6.939,6.939,0,0,0-.65-1.3c-.094-.145-.325-.011-.231.134a6.818,6.818,0,0,1,.642,1.288.7.7,0,0,1-.656-.1,4.171,4.171,0,0,1-.742-.654,15.651,15.651,0,0,0-7.412-4.592,23.655,23.655,0,0,0-4.646-.922,27.205,27.205,0,0,0-3.523-.22,11.634,11.634,0,0,0-7.316,2.709A12.588,12.588,0,0,0,12.8,118a1.356,1.356,0,0,1-.938.677c-.183.029-.363.07-.543.107a4.68,4.68,0,0,0-2.741,1.541,21.364,21.364,0,0,0-1.591,2.112A30.288,30.288,0,0,0,2.81,132.957a50.95,50.95,0,0,0-1.08,10.419,12.3,12.3,0,0,0,3.007,7.993,9.483,9.483,0,0,0,5.128,3.263,22.944,22.944,0,0,0,3.034.575,27.842,27.842,0,0,0,6.5.137,12.169,12.169,0,0,0,6.319-2.381,1.857,1.857,0,0,1,.677-.344.087.087,0,0,1,.027-.006,3.144,3.144,0,0,1-.443.86c-.1.143.131.274.231.134a3.3,3.3,0,0,0,.5-1.012.76.76,0,0,1,.546.362.776.776,0,0,1,.005.93,2.314,2.314,0,0,1-.454.473,10.218,10.218,0,0,1-2.647,1.58,16.876,16.876,0,0,1-4.929,1.15c-.255.019-.508.054-.812.086-.078.24-.164.476-.231.715a6.7,6.7,0,0,1-1.166,2.239,2.548,2.548,0,0,1-.277.314,1.039,1.039,0,0,1-.613.288,1.174,1.174,0,0,0-.725.454,31.539,31.539,0,0,0-6,8.549A44.326,44.326,0,0,0,5.9,179.6c-.511,2.336-.858,4.709-1.231,7.071-.221,1.382-.355,2.776-.522,4.166a28.9,28.9,0,0,0-.123,5.077,4.03,4.03,0,0,1,.021.548.872.872,0,0,1-.658.795.788.788,0,0,1-.57-.075.726.726,0,0,1-.352-.368,2.844,2.844,0,0,1-.242-1.059c0-1.4-.045-2.806.081-4.2a97.561,97.561,0,0,1,1.9-12.44A46.186,46.186,0,0,1,9.5,165.828a26.173,26.173,0,0,1,3.524-4.666q.528-.564,1.04-1.147a1.634,1.634,0,0,1,1.005-.627.957.957,0,0,0,.47-.244,3.49,3.49,0,0,0,.892-1.871,10.85,10.85,0,0,0-1.926-.183,26.33,26.33,0,0,1-4.806-.668,11.48,11.48,0,0,1-6.415-4.053,13.932,13.932,0,0,1-3.147-6.837,14.87,14.87,0,0,1-.126-1.65,48.057,48.057,0,0,1,.769-9.014A41.51,41.51,0,0,1,2.9,126.76a32.819,32.819,0,0,1,3.222-6.155c.041-.061.086-.118.129-.18a7.474,7.474,0,0,1,5.152-3.44,12.614,12.614,0,0,1,2.612-3.026,12.313,12.313,0,0,1,4.117-2.3,14.118,14.118,0,0,1,6.1-.656c1.428.164,2.868.239,4.276.5a22.132,22.132,0,0,1,6.727,2.411,12.63,12.63,0,0,1,2.559,1.918c.559.533,1.109,1.078,1.642,1.64a1.729,1.729,0,0,1,.389.65.763.763,0,0,1-.293.884.2.2,0,0,1-.032.022" fill="#373635"/>
        <path id="パス_26872" data-name="パス 26872" d="M63.061,198.213a2.266,2.266,0,0,1-.274.708.774.774,0,0,1-.876.307,1.041,1.041,0,0,1-.422-.258,1.164,1.164,0,0,0,.468-.481c.075-.156-.156-.29-.231-.134a.914.914,0,0,1-.387.379.63.63,0,0,1-.04-.213,3.605,3.605,0,0,1,.091-.983c.349-1.467.69-2.938,1.091-4.394.827-3.018,1.593-6.05,2.23-9.117.076-.357.13-.719.183-1.031-.239-.47-.664-.548-1.029-.685-1.07-.4-2.147-.777-3.228-1.143-2.475-.838-4.953-1.663-7.428-2.494-.382-.126-.763-.25-1.244-.4-.119.212-.2.333-.256.462-1.946,4.456-4.034,8.847-5.772,13.389-.382.994-.729,2.005-1.091,3.007-.027.07-.046.142-.073.21a.893.893,0,0,1-1.027.637.962.962,0,0,1-.728-1.084,5.041,5.041,0,0,1,.325-1.05q1.407-3.423,2.833-6.837c.156-.371.312-.742.486-1.161a2.375,2.375,0,0,1-.532-1.277,26.831,26.831,0,0,0-3.4-8.7c-.653-1.111-1.392-2.172-2.139-3.223-1.064-1.5-2.166-2.978-3.26-4.461l-.008-.011c.1.051.253-.062.174-.183a5.151,5.151,0,0,0-1.185-1.295v0a.786.786,0,0,1,.178-.559.853.853,0,0,1,1.08-.274,2.129,2.129,0,0,1,.454.306,1.944,1.944,0,0,1,.283.339c1.73,2.43,3.469,4.853,5.181,7.3.484.693.881,1.446,1.325,2.168.11.18.244.345.433.6.25-.564.451-1.029.658-1.5.457-1.04.486-1.064,1.637-1.225a2.506,2.506,0,0,0-.057-1.282,3.589,3.589,0,0,0-.223-.626,32.792,32.792,0,0,1-2-6.3c-.647-2.647-1.328-5.286-1.956-7.936a7.173,7.173,0,0,1-.194-1.857,2.083,2.083,0,0,1,1.067-1.865,2.274,2.274,0,0,1,1.776-.1,4.16,4.16,0,0,1,1.863,1.142l.438.479c.868-.213,1.075-.8,1.1-1.572.054-1.7.14-3.389.226-5.08a26.019,26.019,0,0,1,.645-4.923,9.2,9.2,0,0,1,.271-.957,3.378,3.378,0,0,1,1.271-1.626,1.9,1.9,0,0,1,3.153,1.011,12.107,12.107,0,0,1,.36,1.945,3.247,3.247,0,0,0,.2.965c.124-.33.258-.658.371-.991a10.481,10.481,0,0,1,1.607-3.131,5.358,5.358,0,0,1,.656-.745,1.55,1.55,0,0,1,2.416.186,6.94,6.94,0,0,1,.672,1.134,3.534,3.534,0,0,1,.19.529,4.042,4.042,0,0,0,.409.162,2.418,2.418,0,0,1,1.655,1.644,7.17,7.17,0,0,1,.46,2.6c-.011.584,0,1.167,0,1.758.349-.054.325-.328.4-.508.328-.779.627-1.572.952-2.354a3.869,3.869,0,0,1,1.873-1.949,1.871,1.871,0,0,1,.728-.225,2.294,2.294,0,0,1,2.419,2.206A9.845,9.845,0,0,1,70,147.87c-.549,2.255-1.153,4.494-1.739,6.738a1.855,1.855,0,0,0-.132.981c.205-.347.355-.589.5-.836q1.5-2.645,2.986-5.292c.22-.384.448-.76.685-1.134a2.916,2.916,0,0,1,1.972-1.3,1.9,1.9,0,0,1,2.244,1.167,3.076,3.076,0,0,1,.14,2.061,27.386,27.386,0,0,1-.919,2.83c-.451,1.126-.991,2.217-1.494,3.324-.119.264-.231.53-.352.809.282.113.349-.1.457-.207.473-.465.908-.97,1.411-1.4a4.687,4.687,0,0,1,1.206-.753,2.43,2.43,0,0,1,3.295,2.69,5.073,5.073,0,0,1-.828,2.032q-.414.585-.873,1.14c-1.247,1.5-2.494,3-3.757,4.493a24.354,24.354,0,0,0-1.876,2.591c-1.137,1.766-2.338,3.491-3.5,5.24-.933,1.414-1.833,2.852-2.769,4.263a5.2,5.2,0,0,0-1.042,3.768.388.388,0,0,0,.129.086c1.048.311,1.228.586.972,1.682-.5,2.153-1.029,4.3-1.537,6.444q-1.059,4.459-2.115,8.921m15.391-40.665a.768.768,0,0,0-.5-1.064,1.914,1.914,0,0,0-1.221.7c-.588.61-1.182,1.217-1.72,1.87-1.311,1.591-2.588,3.212-3.883,4.816a5.606,5.606,0,0,1-.666.734.9.9,0,0,1-1.127.04.834.834,0,0,1-.343-.97,5.8,5.8,0,0,1,.371-.92q2.237-4.8,4.48-9.61a12.788,12.788,0,0,0,1.013-2.913,4.308,4.308,0,0,0,.077-.981c-.007-.338-.322-.473-.647-.328a1.747,1.747,0,0,0-.761.772c-.475.79-.946,1.58-1.394,2.383q-2.778,4.966-5.542,9.941a5,5,0,0,1-.524.841.855.855,0,0,1-1.346.006,1.2,1.2,0,0,1-.283-1.228c.242-.925.473-1.854.734-2.776.717-2.551,1.486-5.088,2.163-7.649.436-1.634.75-3.3,1.108-4.953a2.29,2.29,0,0,0,.027-.656.466.466,0,0,0-.6-.322,1.753,1.753,0,0,0-1,.983c-.365.882-.773,1.755-1.05,2.669-.9,3-2,5.929-3.064,8.871a12.846,12.846,0,0,0-.419,1.368,3.147,3.147,0,0,1-.729,1.344.765.765,0,0,1-.911.175.783.783,0,0,1-.513-.779,3.677,3.677,0,0,1,.175-.743c.147-.531.344-1.053.441-1.593.373-2.1.7-4.211,1.072-6.316a21.83,21.83,0,0,0,.282-4.842,8,8,0,0,0-.32-1.616,2.054,2.054,0,0,0-.357-.537,1.861,1.861,0,0,0-.887,1.147,21.37,21.37,0,0,0-.653,2.107q-1.572,6.72-3.112,13.449c-.25,1.077-.484,2.155-.764,3.224a3.929,3.929,0,0,1-.483,1.1.912.912,0,0,1-1.075.36.924.924,0,0,1-.782-.817,2.592,2.592,0,0,0-.121-.645c-.715-1.777-1.406-3.564-2.18-5.313a9.492,9.492,0,0,0-1.161-1.736c-.107-.143-.352-.183-.545-.277a2.538,2.538,0,0,0-.3,1.782c.153.792.32,1.588.551,2.362.285.951.613,1.892.97,2.816a25.51,25.51,0,0,1,1.645,6.4,9.451,9.451,0,0,0,1.736,4.362c.1.153.212.3.309.457.231.376.449.76.683,1.134.276.44,0,.922.046,1.343a63.546,63.546,0,0,0,8.352,2.811,4.633,4.633,0,0,0,.089-.516,5.926,5.926,0,0,1,.868-2.6c.465-.795.932-1.588,1.435-2.362,1.12-1.731,2.29-3.432,3.394-5.173a56.851,56.851,0,0,1,6.02-8.033c.621-.677,1.188-1.408,1.771-2.12a6.975,6.975,0,0,0,.661-.885,5.6,5.6,0,0,0,.5-1.1M59.92,143.054c-.151-.29-.256-.526-.387-.747a3.364,3.364,0,0,0-.347-.4c-.148.167-.25.272-.341.385a9.489,9.489,0,0,0-1.548,3.154,46.43,46.43,0,0,0-1.551,6.663c-.142.873-.293,1.744-.433,2.617a1.449,1.449,0,0,1-.819,1.107.878.878,0,0,1-1.374-.706,6.082,6.082,0,0,1,0-.885c.1-1.91.223-3.824.312-5.737.056-1.287.08-2.577.1-3.865a3.516,3.516,0,0,0-.43-1.892c-.782.476-.868.57-1.086,1.363a21.107,21.107,0,0,0-.7,4.689c-.094,2.169-.183,4.338-.28,6.566a10.241,10.241,0,0,1,2.462,3.819c.317.744.608,1.5.919,2.249.081.193.2.374.384.723.2-.771.366-1.368.5-1.97.89-3.953,1.75-7.909,2.666-11.854.431-1.849.705-3.768,1.952-5.279m-6.512,33.7c.04-.091.07-.132.062-.148-.2-.349-.377-.712-.6-1.042a11.223,11.223,0,0,1-2.04-5.3,21.344,21.344,0,0,0-1.435-5.652c-.336-.858-.626-1.731-.927-2.6a10.426,10.426,0,0,1-.8-4.953,12.889,12.889,0,0,1-1.121-.82,2.909,2.909,0,0,0-1.15-.631.358.358,0,0,0-.465.336,6.593,6.593,0,0,0,.118,1.309c.487,2.115,1,4.224,1.508,6.334a40.107,40.107,0,0,0,2.507,8.218,3.79,3.79,0,0,1,.258,2.384,4.2,4.2,0,0,1,.447.487.866.866,0,0,1-.253,1.244.942.942,0,0,1-.417.134,3.187,3.187,0,0,1-.656-.062c-.284-.032-.569-.072-.9-.115-.46,1.008-.9,1.975-1.315,2.891.519,1.479,1.011,2.887,1.505,4.295.078.008.153.019.231.027.817-2.193,2.15-4.173,2.537-6.544a.8.8,0,0,1,.5-.612.95.95,0,0,1,.812.034,3.747,3.747,0,0,1,.422.35,2.141,2.141,0,0,0,1.177.435" fill="#373635"/>
        <path id="パス_26873" data-name="パス 26873" d="M38.648,120.942a7.826,7.826,0,0,1,.7-1.255c.021-.029.043-.059.067-.086.1.3.183.607.263.919a.134.134,0,0,0,.259-.07c-.092-.357-.189-.707-.3-1.048.371-.261.811-.148,1.188.277,2.289,2.593,3.375,5.748,4.186,9.019a20.867,20.867,0,0,1,.334,2.739c.035.292.051.588.08.881a1.761,1.761,0,0,0,.643,1.239c.661.529,1.3,1.086,1.989,1.577a4.806,4.806,0,0,1,1.109,1.062,1.1,1.1,0,0,1,.057,1.427c-.183.271-.433.5-.645.755-.548.645-1.091,1.3-1.637,1.943a1.465,1.465,0,0,0-.357,1.132,16.834,16.834,0,0,1-.814,6.208,33.4,33.4,0,0,1-1.648,4.8,5.8,5.8,0,0,1-.446.887,2.078,2.078,0,0,1-.562.588,2.057,2.057,0,0,1-.765.312,8.71,8.71,0,0,1-2.752.067c-1.062-.127-2.118-.282-3.177-.42-.178-.024-.36-.024-.581-.04a6.473,6.473,0,0,0-.26.613,23.791,23.791,0,0,0-.9,4.545c-.183,1.865-.309,3.737-.459,5.614a4.938,4.938,0,0,1,.62.336.885.885,0,0,1,.352.983,14.14,14.14,0,0,0-1.529-.712.106.106,0,0,0-.094,0l-1.368-.185c.089-.009.177-.019.266-.03a56.61,56.61,0,0,1,1.529-11.333,3.839,3.839,0,0,1-.327-.6.872.872,0,0,1,.833-1.233,1.662,1.662,0,0,1,.33.019c1.169.15,2.341.274,3.505.462a9.008,9.008,0,0,0,3.768.03,5.776,5.776,0,0,0,.8-1.718c-.167-.091-.309-.18-.465-.25a5.675,5.675,0,0,1-2.617-2.448,9,9,0,0,1-1.162-4.443,2.856,2.856,0,0,1,.068-.658,1.02,1.02,0,0,1,.905-.844,5.863,5.863,0,0,1,.992-.008,13.79,13.79,0,0,0,4.05-.253,4.71,4.71,0,0,1,1.575-3.429c.357-.419.72-.836,1.123-1.3-.166-.162-.306-.317-.465-.452-.739-.61-1.486-1.207-2.219-1.819a2.666,2.666,0,0,1-.965-1.809c-.116-1.024-.218-2.05-.334-3.074a8.583,8.583,0,0,0-.158-1.091,26.1,26.1,0,0,0-2.072-5.582,3.122,3.122,0,0,0-1-1.323,3.143,3.143,0,0,0-.285.355,14.894,14.894,0,0,1-3.271,3.862c-.36.317-.72.632-1.086.943a3.061,3.061,0,0,1-.432.342.894.894,0,0,1-1.2-.143l-.005-.008a5.993,5.993,0,0,0,2.534-1.8c.113-.129-.075-.32-.188-.188a5.787,5.787,0,0,1-2.484,1.754.859.859,0,0,1,.272-.945c.182-.18.4-.323.6-.492.643-.551,1.307-1.083,1.917-1.669a9.855,9.855,0,0,0,2.131-2.935m6.036,23.572a3.913,3.913,0,0,0,.008-.8c-.755.033-1.446.049-2.134.094a7.792,7.792,0,0,0-2.031.116c0,2.381,1.134,4.2,3.036,4.835a29.952,29.952,0,0,0,1.121-4.241" fill="#373635"/>
        <path id="パス_26874" data-name="パス 26874" d="M36.4,125.416a6,6,0,0,1-2.534,1.8.882.882,0,0,1-.137-.234,5.8,5.8,0,0,0,2.483-1.755c.113-.132.3.059.188.188" fill="#373635"/>
        <path id="パス_26875" data-name="パス 26875" d="M61.725,198.354c.075-.156.306-.021.231.135a1.158,1.158,0,0,1-.467.48.606.606,0,0,1-.151-.236.908.908,0,0,0,.387-.379" fill="#373635"/>
        <path id="パス_26876" data-name="パス 26876" d="M30.733,126.819a.14.14,0,0,0-.18.054l-.406-.3c.1-.134.2-.274.3-.411a13.643,13.643,0,0,0,2.077-4.486,5.742,5.742,0,0,1,.441-1.241.794.794,0,0,1,1.3-.186.935.935,0,0,1,.239.476,1.57,1.57,0,0,1-.054.653,18.988,18.988,0,0,1-2.129,5.069q-.232.363-.478.717a4.053,4.053,0,0,1-1.115-.341" fill="#373635"/>
        <path id="パス_26877" data-name="パス 26877" d="M35.186,165.949a.734.734,0,0,1-.126.231,13.921,13.921,0,0,0-1.473-.685.147.147,0,0,1-.024-.258.106.106,0,0,1,.094,0,14.32,14.32,0,0,1,1.529.712" fill="#373635"/>
        <path id="パス_26878" data-name="パス 26878" d="M33.563,165.237a.147.147,0,0,0,.024.258,14.331,14.331,0,0,1,1.473.685.893.893,0,0,1-.4.288,5.387,5.387,0,0,1-1.5.328,16.483,16.483,0,0,1-4.4-.239,33.6,33.6,0,0,1-8.186-2.613A8.009,8.009,0,0,1,18,162.079a2.726,2.726,0,0,1-.344-.43.834.834,0,0,1,.14-1.1c.018-.017.04-.033.059-.049a.9.9,0,0,1,1.064.035,3.231,3.231,0,0,1,.465.47,5.745,5.745,0,0,0,2.034,1.484,30.055,30.055,0,0,0,8.67,2.5,8.864,8.864,0,0,0,2.107.065Z" fill="#373635"/>
        <path id="パス_26879" data-name="パス 26879" d="M31.687,127.4a4.42,4.42,0,0,1-1.089-.35.113.113,0,0,1-.045-.177.141.141,0,0,1,.18-.054,4.09,4.09,0,0,0,1.115.342c-.053.08-.107.158-.161.239" fill="#373635"/>
        <path id="パス_26880" data-name="パス 26880" d="M28.451,152.277a.817.817,0,0,1-.986.28,4.236,4.236,0,0,1-.67-.4,2.106,2.106,0,0,0-.6-1.672c-.118-.129-.307.062-.188.188a1.843,1.843,0,0,1,.535,1.277,7.292,7.292,0,0,1-1.672-2.161,17.439,17.439,0,0,1-1.4-4.174c-.1-.389-.176-.785-.27-1.206-.264-.057-.511-.113-.758-.159a4,4,0,0,1-1.976-.924,7.464,7.464,0,0,1-2.673-4.806,5.358,5.358,0,0,1,.385-2.808,4.182,4.182,0,0,1,5.911-2.056c.288.153.559.339.9.543a3.145,3.145,0,0,0,.2-.659,2.861,2.861,0,0,1,.742-1.684c.685-.82,1.379-1.632,2.042-2.468.742-.932,1.487-1.865,2.191-2.824l.406.3a.113.113,0,0,0,.045.178,4.41,4.41,0,0,0,1.09.349c-.708,1.016-1.463,1.989-2.262,2.938-.639.76-1.257,1.54-1.918,2.281a2.757,2.757,0,0,0-.71,1.694c-.04.55-.054,1.1-.107,1.652a1.325,1.325,0,0,1-1.355,1.18,1.079,1.079,0,0,1-.852-.446,3.632,3.632,0,0,1-.33-.573,2.232,2.232,0,0,0-2.271-1.249,2.308,2.308,0,0,0-2.086,1.4,3.657,3.657,0,0,0-.276,2.263,5.487,5.487,0,0,0,2.144,3.491,2.619,2.619,0,0,0,2.094.476c.29-.043.572-.143.863-.188a.848.848,0,0,1,.865.363.712.712,0,0,1,.013.924,2.1,2.1,0,0,0-.306,1.973,11.738,11.738,0,0,0,1.008,3.141,5.875,5.875,0,0,0,1.83,2.172,2.377,2.377,0,0,1,.344.274.878.878,0,0,1,.075,1.115" fill="#373635"/>
        <path id="パス_26881" data-name="パス 26881" d="M39.255,119.152a6.81,6.81,0,0,0-.642-1.287c-.094-.146.137-.28.231-.135a6.969,6.969,0,0,1,.65,1.3.924.924,0,0,1-.239.124" fill="#373635"/>
        <path id="パス_26882" data-name="パス 26882" d="M26.191,150.491a2.11,2.11,0,0,1,.6,1.671,2.825,2.825,0,0,1-.25-.2l-.008-.008A1.838,1.838,0,0,0,26,150.679c-.118-.126.07-.317.188-.188" fill="#373635"/>
        <path id="パス_26883" data-name="パス 26883" d="M39.933,120.45a.134.134,0,0,1-.258.07c-.081-.312-.164-.618-.263-.919a.948.948,0,0,1,.217-.2c.116.341.212.69.3,1.048" fill="#373635"/>
        <path id="パス_26884" data-name="パス 26884" d="M25.982,153.474a3.158,3.158,0,0,0,.443-.86.827.827,0,0,1,.291-.019,3.306,3.306,0,0,1-.5,1.013c-.1.14-.333.008-.231-.134" fill="#373635"/>
        <path id="パス_26885" data-name="パス 26885" d="M42.593,133.726a1.426,1.426,0,0,1-.051.543.865.865,0,0,1-.809.639.818.818,0,0,1-.771-.532c-.118-.309-.161-.647-.3-.946a.678.678,0,0,0-.414-.3.446.446,0,0,0-.524.433c-.04.328-.027.664-.08.989a.84.84,0,0,1-.841.728.829.829,0,0,1-.815-.628,5.836,5.836,0,0,1-.115-.8c.037-.293.056-.516.1-.731a2.29,2.29,0,0,1,4.4-.36,5.12,5.12,0,0,1,.223.965" fill="#373635"/>
        <path id="パス_26886" data-name="パス 26886" d="M39.677,127.464a.838.838,0,0,1,.4.946.727.727,0,0,1-.809.6,2.6,2.6,0,0,0-2.313,1.014,3.121,3.121,0,0,1-.312.308.864.864,0,0,1-1.116.006.831.831,0,0,1-.177-1.094,1.727,1.727,0,0,1,.253-.36,6.558,6.558,0,0,1,2.588-1.623,3.825,3.825,0,0,1,.647-.092,6.18,6.18,0,0,1,.839.3" fill="#373635"/>
        <path id="パス_26887" data-name="パス 26887" d="M37.5,167.986c.078.121-.07.234-.175.183-.059-.081-.12-.159-.182-.234-.006-.006-.008-.011-.014-.016a4.208,4.208,0,0,0-.443-.535c-.062-.078-.124-.156-.183-.234a.92.92,0,0,1-.188-.459,5.117,5.117,0,0,1,1.185,1.295" fill="#373635"/>
        <path id="パス_26888" data-name="パス 26888" d="M36.686,167.384a4.278,4.278,0,0,1,.443.535c-.145-.18-.3-.355-.443-.535" fill="#373635"/>
        <path id="パス_26889" data-name="パス 26889" d="M34.141,194.821a.843.843,0,0,1-.658,1,.866.866,0,0,1-1.027-.624,5.664,5.664,0,0,1-.164-.637q-1.427-6.014-2.846-12.029a28.831,28.831,0,0,0-1.6-4.7,10.381,10.381,0,0,0-3.214-4.147,6.651,6.651,0,0,0-6.036-1.233,9.213,9.213,0,0,0-2.532,1.072,19.97,19.97,0,0,0-4.3,3.771,1.54,1.54,0,0,0-.49,1.08,1.108,1.108,0,0,1-.043.328.885.885,0,0,1-.884.688.9.9,0,0,1-.819-.882,2.045,2.045,0,0,1,.247-1.279,6.091,6.091,0,0,1,.634-.9,28.746,28.746,0,0,1,3.577-3.443,10.847,10.847,0,0,1,4.528-2.19c.645-.132,1.307-.188,1.96-.279a8.507,8.507,0,0,1,5.044,1.744,12.365,12.365,0,0,1,4.085,5.383,40.789,40.789,0,0,1,1.771,5.684c.839,3.507,1.7,7.006,2.553,10.508a7.477,7.477,0,0,1,.215,1.08" fill="#373635"/>
        <path id="パス_26890" data-name="パス 26890" d="M14.358,196.086a.833.833,0,0,1-.427,1.021.87.87,0,0,1-1.078-.274,2.256,2.256,0,0,1-.277-.473c-.586-1.341-1.193-2.677-1.739-4.034a14.471,14.471,0,0,1-.467-1.736,5.584,5.584,0,0,1,.177-.825.855.855,0,0,1,.873-.535.881.881,0,0,1,.742.712,1.027,1.027,0,0,1,.022.218,6.477,6.477,0,0,0,.854,3.15c.35.725.707,1.448,1.056,2.174a4.091,4.091,0,0,1,.264.6" fill="#373635"/>
        <path id="パス_26891" data-name="パス 26891" d="M201.734,197.572a1.682,1.682,0,0,1,.37,1.111.772.772,0,0,1-.245-.108,1.512,1.512,0,0,0-.293-.836c-.1-.115.067-.284.168-.167" fill="#373635"/>
        <path id="パス_26892" data-name="パス 26892" d="M194.567,181.328a.118.118,0,0,1-.088.2.111.111,0,0,1-.079-.033c-.134-.129-.277-.251-.425-.368a1.3,1.3,0,0,1,.2-.138c.136.11.267.222.389.339" fill="#373635"/>
        <path id="パス_26893" data-name="パス 26893" d="M202.476,198.675a.654.654,0,0,1-.372.007,1.68,1.68,0,0,0-.371-1.11c-.1-.117-.267.052-.166.167a1.518,1.518,0,0,1,.291.836,1.033,1.033,0,0,1-.347-.392,4.975,4.975,0,0,1-.217-.547,36.557,36.557,0,0,0-2.63-5.807c-.717-1.245-1.5-2.458-2.337-3.629a16.357,16.357,0,0,0-1.657-1.8,1.273,1.273,0,0,0-1.068-.366,65.7,65.7,0,0,0-9.816,1.338,3.609,3.609,0,0,0-1.381.473c-.375.261-.75.065-1.111-.122a4.137,4.137,0,0,0-1.187,1.039,22.224,22.224,0,0,0-2.847,4.112c-.1.2-.206.389-.306.588l-1.219-.665c.036-.067.074-.134.11-.2A28.287,28.287,0,0,1,179,187.868a15.794,15.794,0,0,1,1.293-1.345,9.753,9.753,0,0,1,1-.714v-1.3a1.168,1.168,0,0,0-.891-.267,18.444,18.444,0,0,1-5.6-1.367,8.375,8.375,0,0,1-4.766-4.687,14.656,14.656,0,0,1-.872-2.7,6.494,6.494,0,0,1,.368-3.66c.155-.394.3-.793.447-1.189-.3-.576-.593-1.123-.874-1.675a4.058,4.058,0,0,1-.289-.621.874.874,0,0,1,.482-1.147c.26-.133.545-.222.817-.332.638-.256,1.273-.513,1.861-.747l1.141.575a.41.41,0,0,0-.047.146c-.084.58-.526.781-1,.968-.449.179-.891.382-1.4.6a6.981,6.981,0,0,0,.721,1.543,1.012,1.012,0,0,1,.012,1.412,2.7,2.7,0,0,0-.277.626c-.081.2-.26.384-.119.659.848.187,1.712.358,2.568.569,1.524.377,3.046.76,4.56,1.173,1.075.293,1.3.754.941,1.825a7.969,7.969,0,0,1-.411,1,6.257,6.257,0,0,1-3.934,3.717c.146.361.468.411.728.516a16.8,16.8,0,0,0,7.97,1.25c.487-.044.972-.139,1.459-.173a.762.762,0,0,1,.832.944.7.7,0,0,1-.514.547c-.411.1-.834.148-1.251.218-.349.057-.729-.022-1.019.243a2.507,2.507,0,0,0,.008,1.57,23.607,23.607,0,0,0,3.37-.486c1.133-.162,2.258-.386,3.388-.561s2.255-.32,3.433-.485c.019-.358.021-.681.054-1,.056-.485.1-.975.2-1.453a1.49,1.49,0,0,1,.59-.931c.148.117.292.238.426.367a.106.106,0,0,0,.079.034l.649.786c-.117.091-.229.2-.37.31v1.838a15.5,15.5,0,0,1,2.795,3.021,30.081,30.081,0,0,1,2.776,4.4c.826,1.637,1.622,3.287,2.413,4.94a3.481,3.481,0,0,1,.286.932.782.782,0,0,1-.552.922m-25.9-20.962a4.63,4.63,0,0,0,.862-1.854c-.186-.071-.332-.138-.485-.191a35.5,35.5,0,0,0-5.143-1.261,2.143,2.143,0,0,0-1.146.033,3.4,3.4,0,0,0,.3,1.921,8.929,8.929,0,0,0,1.682,3.153,4.866,4.866,0,0,0,2.6-.511,3.82,3.82,0,0,0,1.324-1.29" fill="#373635"/>
        <path id="パス_26894" data-name="パス 26894" d="M205.821,166.758a15.1,15.1,0,0,1-.249,5.365,8.553,8.553,0,0,1-2.19,3.995,27.049,27.049,0,0,1-5.556,4.5c-.87.521-1.723,1.07-2.578,1.615-.041.026-.079.055-.12.084l-.649-.787a.118.118,0,0,0,.088-.2c-.122-.117-.253-.23-.389-.339a.733.733,0,0,1,.076-.046c1-.554,1.964-1.177,2.95-1.76a23.459,23.459,0,0,0,5.206-4.3,6.939,6.939,0,0,0,1.583-2.792,13.09,13.09,0,0,0,.3-5.354,9.275,9.275,0,0,0-.879-3,5.662,5.662,0,0,0-2.377-2.668,1.159,1.159,0,0,1-.709-1.154,4.573,4.573,0,0,0-.705-2.322c-.253-.42-.523-.831-.788-1.245a5.574,5.574,0,0,0-2.7-2.2c-.758-.3-1.534-.564-2.315-.8a20.9,20.9,0,0,1-3.208-1.209,5.6,5.6,0,0,1-2.544-2.372c-.086-.157-.189-.306-.3-.485a1.873,1.873,0,0,0-.231.27,4.943,4.943,0,0,0-.75,2.506.779.779,0,0,1-.672.848,1.941,1.941,0,0,1-.676.029c-.322-.036-.642-.11-.962-.177a9.212,9.212,0,0,1-4.2-1.784,2.025,2.025,0,0,0-.406-.208,4.219,4.219,0,0,0-.086,2.291c.167.7-.3,1.146-1.006,1.037a1.242,1.242,0,0,0-.664-.039,4.156,4.156,0,0,0-1.873,1.212,5.115,5.115,0,0,0-1.044,1.98,3.26,3.26,0,0,0-.045.53,8.45,8.45,0,0,1,.731-.709c.468-.354.946-.7,1.443-1.006a1.372,1.372,0,0,1,1.141-.108.783.783,0,0,1,.514,1.224,1.71,1.71,0,0,0-.255,1.392,8.712,8.712,0,0,0,.353,1.508l-1.321.456a10.63,10.63,0,0,1-.466-1.952c-.019-.146-.057-.291-.11-.552a5.212,5.212,0,0,0-.508.428,6.908,6.908,0,0,0-1.415,2.448c-.463,1.4-.9,2.805-1.359,4.205-.182.549-.215,1.173-.757,1.551a.073.073,0,0,0-.029.033l-1.142-.576c.494-1.579.963-3.108,1.455-4.632a2.6,2.6,0,0,0,.093-1.331,7.2,7.2,0,0,1,.891-4.923,5.359,5.359,0,0,1,2.726-2.444c.3-.119.6-.253.944-.4.052-.449.074-.9.164-1.349a15.1,15.1,0,0,1,.43-1.6,1.869,1.869,0,0,1,.361-.578.973.973,0,0,1,1.7.153,3.212,3.212,0,0,0,1.694,1.562,6.166,6.166,0,0,0,2.711.717c.447-1,.817-1.911,1.259-2.783a4.662,4.662,0,0,1,.839-1.073,1.541,1.541,0,0,1,.673-.37.93.93,0,0,1,1.226.671,1.541,1.541,0,0,1,.086.382,3.056,3.056,0,0,0,1.808,2.516,20.026,20.026,0,0,0,2.353.972c.612.222,1.247.394,1.88.556a8.867,8.867,0,0,1,6.142,5.6,6.884,6.884,0,0,1,.416,1.406,1.413,1.413,0,0,0,.513.906,9.632,9.632,0,0,1,3.488,6.7" fill="#373635"/>
        <path id="パス_26895" data-name="パス 26895" d="M194.168,172.628a4.81,4.81,0,0,1-1.466,4.921,3.855,3.855,0,0,1-1.279.819,2.647,2.647,0,0,1-.169-.571c-.027-.153-.256-.088-.23.062a2.7,2.7,0,0,0,.175.588,4.166,4.166,0,0,1-2.8-.2,2.1,2.1,0,0,1-.755-.6.641.641,0,0,1,0-.821.693.693,0,0,1,.774-.289,3.605,3.605,0,0,1,.528.248,2.493,2.493,0,0,0,3.208-.865,3.715,3.715,0,0,0,.65-2.417,2.04,2.04,0,0,0-3.264-1.541,11.173,11.173,0,0,1-1.368.748.791.791,0,0,1-.911-.165,1.048,1.048,0,0,1-.361-.877,3.245,3.245,0,0,0-.816-2.152,17.676,17.676,0,0,1-3.209-6.57,5.486,5.486,0,0,0-.158-.568,4.766,4.766,0,0,0-.293-.528c-.177.783-.315,1.419-.463,2.054a3.627,3.627,0,0,1-.213.75.778.778,0,0,1-1.235.287,4.171,4.171,0,0,1-.612-.633,12.145,12.145,0,0,1-2.145-3.784l1.321-.456a7.571,7.571,0,0,0,1.214,2.255,2.2,2.2,0,0,0,.315.272,4.423,4.423,0,0,0,.177-.411c.153-.568.284-1.142.449-1.708a5.543,5.543,0,0,1,.37-1.01.877.877,0,0,1,1.4-.3,1.367,1.367,0,0,1,.466.733c.294.937.575,1.878.864,2.815a14.95,14.95,0,0,0,2.315,4.952A16.618,16.618,0,0,1,187.7,169.1c.306.489.54,1.024.817,1.562.456-.156.91-.325,1.371-.466a3.419,3.419,0,0,1,4.281,2.432" fill="#373635"/>
        <path id="パス_26896" data-name="パス 26896" d="M191.423,178.368a1.821,1.821,0,0,1-.225.079,2.705,2.705,0,0,1-.174-.587c-.026-.151.2-.216.23-.063a2.647,2.647,0,0,0,.169.571" fill="#373635"/>
        <path id="パス_26897" data-name="パス 26897" d="M177.764,165.726a2.308,2.308,0,0,1,.831,1.909,1.25,1.25,0,0,1-.069.385.747.747,0,0,1-.829.542.732.732,0,0,1-.638-.648c-.047-.255-.055-.521-.126-.767a.349.349,0,0,0-.624-.1c-.1.126-.162.284-.265.408a.679.679,0,0,1-.709.23.687.687,0,0,1-.574-.6,1.123,1.123,0,0,1,.093-.662,2.1,2.1,0,0,1,1.728-1.12,1.7,1.7,0,0,1,1.182.413" fill="#373635"/>
        <path id="パス_26898" data-name="パス 26898" d="M175.735,192.8l1.219.664c-.71,1.371-1.379,2.766-2.071,4.147a4.436,4.436,0,0,1-.316.609.815.815,0,0,1-.654.363.6.6,0,0,1-.511-.277c-.242-.37-.662-.537-.872-.9-.249-.423-.45-.874-.662-1.316-.3-.619-.578-1.247-.882-1.864-.157-.318-.351-.621-.547-.965a4.341,4.341,0,0,0-.58.163c-1.536.652-3.065,1.318-4.6,1.968-1.235.521-2.475,1.027-3.77,1.562-.234.392-.045.839.031,1.281.046.256.163.5.208.752a.645.645,0,0,1,0,.227c-.468,0-.939-.005-1.41-.005a.174.174,0,0,0-.036.005,2.328,2.328,0,0,1-.1-.413c-.089-.55-.17-1.1-.234-1.653-.11-.937-.017-1.1.821-1.545a1.883,1.883,0,0,0,.2-.163,3.484,3.484,0,0,0-.435-.215,10.825,10.825,0,0,1-2.064-.9,6.1,6.1,0,0,1-2.936-4,16.318,16.318,0,0,1-.287-2.334,3.2,3.2,0,0,1,.07-.877c.215-1.144.616-1.519,1.8-1.729a1.776,1.776,0,0,0,.225-.091c.04-.258.067-.547.134-.827a1.89,1.89,0,0,1,2.026-1.624c.224,0,.451,0,.659,0,.9-1.593,1.433-1.808,3.062-1.23.124-.157.258-.334.394-.506a1.935,1.935,0,0,1,2.7-.483,3.431,3.431,0,0,1,1.255,1.355c.255.492.463,1.01.68,1.521.139.33.258.669.4,1.052.291,0,.578,0,.865,0A2.5,2.5,0,0,1,171.961,187a6.015,6.015,0,0,1-1.491,3.756c-.243.3-.518.573-.888.979.277-.057.4-.076.511-.107.855-.249,1.166-.089,1.541.7.563,1.183,1.156,2.348,1.741,3.519a3.991,3.991,0,0,0,.246.38c.266.05.313-.134.387-.268q.872-1.576,1.727-3.16m-5.439-4.766a3.327,3.327,0,0,0,.115-1.061.9.9,0,0,0-.714-.836.623.623,0,0,0-.865.4.508.508,0,0,1-.117.155.745.745,0,0,1-1.259-.3,3.176,3.176,0,0,1-.065-.482,8.985,8.985,0,0,0-1-2.955,2.535,2.535,0,0,0-.827-.956.5.5,0,0,0-.795.234,1.72,1.72,0,0,0-.068.963.71.71,0,0,1-.319.765.843.843,0,0,1-1.006-.091,6.866,6.866,0,0,1-.559-.547,1.011,1.011,0,0,0-.741-.395.719.719,0,0,0-.358.667c-.029.325-.016.657-.067.977a.78.78,0,0,1-1.331.485,3.769,3.769,0,0,1-.341-.351c-.192-.2-.413-.359-.693-.239s-.32.4-.325.662c-.009.327,0,.654.007.979a4.821,4.821,0,0,1,.015.588.735.735,0,0,1-.913.647,6.693,6.693,0,0,1-.623-.274,3.289,3.289,0,0,0-.5-.094,3.462,3.462,0,0,0-.184.8,12.119,12.119,0,0,0,.153,2.045,4.5,4.5,0,0,0,2.5,3.321,15.308,15.308,0,0,0,1.825.695c1.022.341.855.078,1.323,1.192a33.175,33.175,0,0,0,5.846-2.664c-.086-.124-.144-.2-.194-.284a.926.926,0,0,1,.106-1.314,6.777,6.777,0,0,1,.518-.449,4.616,4.616,0,0,0,1.457-2.279" fill="#373635"/>
        <path id="パス_26899" data-name="パス 26899" d="M161.732,199.213a.6.6,0,0,1-.065.242c-.427-.005-.852-.008-1.28-.008a.546.546,0,0,1-.043-.083,1.549,1.549,0,0,1-.057-.151.154.154,0,0,1,.035-.005c.471,0,.942,0,1.41.005" fill="#373635"/>
        <path id="パス_26900" data-name="パス 26900" d="M160.387,199.447c.428,0,.853,0,1.28.007a.72.72,0,0,1-1.28-.007" fill="#373635"/>
        <path id="パス_26901" data-name="パス 26901" d="M115.9,162.171a2.661,2.661,0,0,0,.114,1.324.989.989,0,0,1-.1.064.751.751,0,0,1-.906-.129.7.7,0,0,1-.14-.817,3.044,3.044,0,0,1,.308-.5,3.3,3.3,0,0,0,.594-2.133,6.458,6.458,0,0,0-1.791-4.348c-.27-.285-.561-.547-.832-.834a5.965,5.965,0,0,1-.42-.528c-.076-.1-.119-.251-.218-.308a20.313,20.313,0,0,0-5.224-2.432c-1.046-.256-2.09-.545-3.151-.736a10.9,10.9,0,0,0-6.072.645,8.172,8.172,0,0,0-2.537,1.661c-.929.874-1.787,1.82-2.683,2.73a2.185,2.185,0,0,0-.459.96c-.193.626-.339.765-.974.715a1.525,1.525,0,0,0-1,.291,4.232,4.232,0,0,0-1.156,1.192,12.778,12.778,0,0,0-2.236,5.805,13.934,13.934,0,0,0,.019,4.3,12.32,12.32,0,0,0,.612,2.167,14.434,14.434,0,0,0,6.691,7.441,6.374,6.374,0,0,0,1,.4,1.128,1.128,0,0,1,.633.567,5.189,5.189,0,0,1,.772,2.988,4.849,4.849,0,0,0,.057.657l6.98,1.12-.212,1.326q-2.327-.369-4.663-.673c-.908-.122-1.83-.122-2.743-.2a.959.959,0,0,0-.805.282,15.913,15.913,0,0,0-1.684,1.775,41.473,41.473,0,0,0-2.305,3.533,37.076,37.076,0,0,0-2.774,6.066,4.2,4.2,0,0,1-.181.456.817.817,0,0,1-1.037.5c-.014-.005-.026-.012-.041-.019a.118.118,0,0,0-.193-.126l0,0a.89.89,0,0,1-.253-.912,2.455,2.455,0,0,1,.155-.464,48.3,48.3,0,0,1,5.478-9.849,15.515,15.515,0,0,1,2.384-2.6,1.032,1.032,0,0,0,.21-.2,2.612,2.612,0,0,0-.162-2.062c-.148-.167-.289-.346-.437-.514a1.337,1.337,0,0,0-.337-.327,18.006,18.006,0,0,1-5.442-4.295,1.622,1.622,0,0,0-.289-.2,4.819,4.819,0,0,0-.17.558c-.22,1.257-.392,2.523-.65,3.773a5.742,5.742,0,0,1-3.473,4.34,8.864,8.864,0,0,1-2.334.733,3.044,3.044,0,0,1-.485.058.735.735,0,0,1-.688-.471.709.709,0,0,1,.167-.81,1.217,1.217,0,0,1,.232-.179,1.519,1.519,0,0,0,.688-1.615,4.4,4.4,0,0,0-.251-1.046c-.279-.734-.585-1.457-.9-2.176-.4-.9-.8-1.8-1.211-2.688a18.787,18.787,0,0,1-1.279-3.808,12.2,12.2,0,0,1,.12-6.027,6.763,6.763,0,0,1,1.314-2.613,5.08,5.08,0,0,1,4.906-1.84c.447.065.887.194,1.422.316.148-.392.265-.7.377-1a15.226,15.226,0,0,1,1.828-3.464,5.825,5.825,0,0,1,2.47-2.035,1.9,1.9,0,0,0,.69-.514c.951-1.039,1.9-2.078,2.9-3.067a14.467,14.467,0,0,1,1.832-1.474,9.792,9.792,0,0,1,4.869-1.653c.523-.048,1.046-.055,1.572-.077a13.39,13.39,0,0,1,3.492.456,22.176,22.176,0,0,1,5.535,1.957,11.548,11.548,0,0,1,2.007,1.388,20.078,20.078,0,0,1,1.9,1.83,7.731,7.731,0,0,1,2.018,5.967,4.415,4.415,0,0,1-1.068,2.489.7.7,0,0,1-.069.077,2.338,2.338,0,0,1-.086-1.085c.022-.15-.208-.215-.229-.062M86.9,174.142a3.154,3.154,0,0,0-.337-1.5,11.715,11.715,0,0,1-1.237-5.5c.009-.783.1-1.564.143-2.348.014-.253-.007-.509-.012-.771a11.223,11.223,0,0,0-1.077-.342,3.536,3.536,0,0,0-3.684,1.271,5.167,5.167,0,0,0-.92,1.72,10.176,10.176,0,0,0-.475,3.774,14.165,14.165,0,0,0,1.168,4.737c.619,1.443,1.288,2.865,1.933,4.293a7.714,7.714,0,0,1,.915,3.748,3.942,3.942,0,0,0,2.735-2.974,26.773,26.773,0,0,0,.848-6.108" fill="#373635"/>
        <path id="パス_26902" data-name="パス 26902" d="M116.01,163.495a2.66,2.66,0,0,1-.115-1.324c.022-.152.251-.088.23.063a2.32,2.32,0,0,0,.086,1.084,1.249,1.249,0,0,1-.2.177" fill="#373635"/>
        <path id="パス_26903" data-name="パス 26903" d="M117.561,164.917a3.3,3.3,0,0,1,.822.929c.074.134-.132.256-.206.12a3.286,3.286,0,0,0-.865-.947.644.644,0,0,1,.249-.1" fill="#373635"/>
        <path id="パス_26904" data-name="パス 26904" d="M117.747,164.9a1.893,1.893,0,0,1,.574.117c.733.279,1.469.561,2.19.87.794.339.942.764.559,1.56a15.257,15.257,0,0,1-.778,1.476.966.966,0,0,0-.077,1.013c.1.208.167.428.253.638a6.438,6.438,0,0,1,.268,4.235,22.283,22.283,0,0,1-.853,2.4,8.074,8.074,0,0,1-4.326,4.348,17.868,17.868,0,0,1-5.667,1.5,2.688,2.688,0,0,0-1.194.234v1.4a8.372,8.372,0,0,1,2.523,2.322,27.99,27.99,0,0,1,1.942,2.761l-1.171.681a21.037,21.037,0,0,0-2.071-2.774c-.341-.389-.733-.736-1.116-1.115a3.332,3.332,0,0,1-.585.2.932.932,0,0,1-.568-.033,6.894,6.894,0,0,0-2.532-.726q-.774-.129-1.551-.251l.213-1.326q1.62.258,3.239.519a2.891,2.891,0,0,0,.072-1.472c-.019-.158-.22-.291-.37-.473a5.123,5.123,0,0,1,.943-1.2,1.132,1.132,0,0,1,.631-.187c.974-.124,1.954-.2,2.924-.349a13.65,13.65,0,0,0,3.468-1.046c.354-.16.693-.356,1.1-.571a4.857,4.857,0,0,0-.349-.389,10.054,10.054,0,0,1-2.9-4.819c-.227-.752.035-1.18.824-1.376,1.206-.3,2.422-.563,3.633-.843.729-.167,1.453-.337,2.236-.518a5.255,5.255,0,0,0-.69-1.648.952.952,0,0,1,.045-1.25,15.545,15.545,0,0,0,.805-1.608c-.552-.238-1-.427-1.443-.628a3.509,3.509,0,0,1-.69-.361.68.68,0,0,1-.258-.786.757.757,0,0,1,.306-.411,3.3,3.3,0,0,1,.864.947c.075.136.28.014.206-.12a3.3,3.3,0,0,0-.822-.929.675.675,0,0,1,.186-.017m1.594,9.19a1.326,1.326,0,0,0,.041-.289.326.326,0,0,0-.29-.337,1.3,1.3,0,0,0-.48.034q-1.948.462-3.894.941a1.586,1.586,0,0,0-.329.158,6.055,6.055,0,0,0,2.849,3.908c.118-.139.206-.234.285-.337a10.523,10.523,0,0,0,1.818-4.078" fill="#373635"/>
        <path id="パス_26905" data-name="パス 26905" d="M134.785,186.137a8.4,8.4,0,0,1-.909,4.754,6.635,6.635,0,0,1-3.556,2.943c-.421.17-.854.31-1.324.478,1.19.647,1.252.766,1.08,2.047-.062.454-.114.91-.206,1.359a2.521,2.521,0,0,1-.27.729.664.664,0,0,1-.774.274c-.028-.009-.056-.021-.084-.033a2.517,2.517,0,0,0,.629-.712.118.118,0,0,0-.2-.119,2.446,2.446,0,0,1-.623.7.637.637,0,0,1-.211-.492,2.306,2.306,0,0,1,.109-.571A3.926,3.926,0,0,0,128.65,196a1.464,1.464,0,0,0-.084-.136.178.178,0,0,0-.072-.067l-8.771-3.681a2.1,2.1,0,0,0-.684.97c-.4.824-.779,1.658-1.174,2.484a2.077,2.077,0,0,1-.872,1.147c-.153.076-.221.315-.349.458a.778.778,0,0,1-1.258-.1c-.118-.194-.184-.421-.285-.624-.84-1.665-1.651-3.347-2.532-4.99-.185-.34-.376-.674-.579-1l1.17-.681c.357.573.694,1.159,1.018,1.751.566,1.034,1.128,2.071,1.7,3.1.106.194.236.377.389.621a6.01,6.01,0,0,0,.421-.6c.558-1.111,1.106-2.227,1.655-3.342a4.367,4.367,0,0,1,.25-.53.925.925,0,0,1,1.115-.373,1.739,1.739,0,0,0,.679.16c-.185-.205-.363-.42-.557-.616a6.384,6.384,0,0,1-1.61-2.884,5.027,5.027,0,0,1-.138-1.359,2.464,2.464,0,0,1,2.368-2.308c.292.012.585,0,.92,0,.128-.344.24-.679.376-1,.233-.542.461-1.084.726-1.61a3.456,3.456,0,0,1,1.019-1.182,1.989,1.989,0,0,1,3,.425c.081.139.175.265.262.387,1.965-.638,2.41-.041,3.136,1.259.211,0,.437,0,.662,0a1.913,1.913,0,0,1,2.034,1.622c.068.28.094.571.144.877.244.043.472.067.686.124a1.613,1.613,0,0,1,1.213,1.169,3.134,3.134,0,0,1,.159.666m-4.73,6.173c2.787-1.073,3.519-3.7,3.2-6.068-.022-.16-.181-.3-.291-.475-.2.1-.349.164-.5.234-.958.453-1.425.136-1.386-.922.017-.426.017-.851,0-1.274a.511.511,0,0,0-.907-.348c-.184.186-.345.394-.542.563a.741.741,0,0,1-1.23-.4,2.628,2.628,0,0,1-.03-.488c-.02-.293-.026-.587-.067-.879a.506.506,0,0,0-.4-.487c-.4.048-.617.351-.874.6a2.371,2.371,0,0,1-.609.483.736.736,0,0,1-1.091-.69,3.729,3.729,0,0,0,.043-.485,2.9,2.9,0,0,0-.2-.741.408.408,0,0,0-.587-.165,2.179,2.179,0,0,0-.879.9,8.07,8.07,0,0,0-1.058,3.137c-.046.423-.142.793-.572.936a.736.736,0,0,1-.954-.47.557.557,0,0,0-.65-.306.964.964,0,0,0-.82.614,1.323,1.323,0,0,0-.057.865,4.892,4.892,0,0,0,1.521,2.685,8.57,8.57,0,0,1,.651.6.852.852,0,0,1,.035,1.23,2.677,2.677,0,0,1-.242.255,40.676,40.676,0,0,0,5.952,2.726,1.054,1.054,0,0,1,.949-1.125,11.961,11.961,0,0,0,1.59-.5" fill="#373635"/>
        <path id="パス_26906" data-name="パス 26906" d="M129.166,197.857a.119.119,0,0,1,.205.119,2.529,2.529,0,0,1-.628.712.7.7,0,0,1-.2-.136,2.425,2.425,0,0,0,.621-.7" fill="#373635"/>
        <path id="パス_26907" data-name="パス 26907" d="M115.576,165.444a.763.763,0,0,1-1.007,1.146c-.191-.121-.354-.284-.547-.4a.325.325,0,0,0-.5.26,2.378,2.378,0,0,0,.019.571c.022.194.093.382.1.573a.711.711,0,0,1-.534.726.767.767,0,0,1-.852-.324,2.491,2.491,0,0,1-.368-1.364c.034-.191.065-.452.127-.7a1.8,1.8,0,0,1,2.666-1.215,3.6,3.6,0,0,1,.9.733" fill="#373635"/>
        <path id="パス_26908" data-name="パス 26908" d="M109.895,156.737a13.824,13.824,0,0,1,.717,4,10.994,10.994,0,0,1-.476,3.132,8.415,8.415,0,0,1-.666,1.412,1.665,1.665,0,0,1-.466.492.682.682,0,0,1-.9-.052.747.747,0,0,1-.208-.8,1.375,1.375,0,0,1,.189-.342,5.076,5.076,0,0,0,.886-2.162,7.962,7.962,0,0,0-.7-5.427,2.326,2.326,0,0,1-.139-.26.764.764,0,0,1,.263-.875.81.81,0,0,1,.92,0,1.662,1.662,0,0,1,.578.886" fill="#373635"/>
        <path id="パス_26909" data-name="パス 26909" d="M105.872,159.042a2.551,2.551,0,0,1,.036.585c-.057,1.57-.086,3.142-.191,4.709a8.767,8.767,0,0,1-1.6,4.574c-.246.347-.489.7-.736,1.042a3.2,3.2,0,0,0-.539,1.03.741.741,0,0,1-1.152.492,9.338,9.338,0,0,1-1.278-.705,2.047,2.047,0,0,0-3.268,1.3,3.513,3.513,0,0,0,1.515,3.481,2.391,2.391,0,0,0,2.432-.005c.114-.065.217-.151.334-.2a.687.687,0,0,1,.812.136.737.737,0,0,1,.172.814,1.265,1.265,0,0,1-.752.731,4.055,4.055,0,0,1-2.872.22,4,4,0,0,1-2.453-1.98,5.175,5.175,0,0,1-.643-3.59A3.468,3.468,0,0,1,100.074,169c.5.142.977.361,1.558.581a9.346,9.346,0,0,0,2.714-6.156c.033-1.176,0-2.356.007-3.533a6.015,6.015,0,0,1,.019-.784.76.76,0,0,1,1.5-.062" fill="#373635"/>
        <path id="パス_26910" data-name="パス 26910" d="M87.141,197.355a.118.118,0,0,1,.193.126.888.888,0,0,1-.2-.121l0-.005" fill="#373635"/>
        <path id="パス_26911" data-name="パス 26911" d="M215.678,4.9V37.635H210.8v-.941h3.941V5.842H123.054l.53-.464-.417-.476Z" fill="#373635"/>
        <path id="パス_26912" data-name="パス 26912" d="M213.8,6.783H122.746l-.334-.38.643-.561h91.683V36.694H210.8v-.941h3Z" fill="#373635"/>
        <path id="パス_26913" data-name="パス 26913" d="M210.8,118.4H195.1v-.94h14.76V74.508h.94Z" fill="#373635"/>
        <rect id="長方形_8706" data-name="長方形 8706" width="0.94" height="18.437" transform="translate(209.858 37.634)" fill="#373635"/>
        <rect id="長方形_8707" data-name="長方形 8707" width="0.94" height="0.94" transform="translate(209.858 36.695)" fill="#373635"/>
        <path id="パス_26914" data-name="パス 26914" d="M209.857,73.568v-17.5h.94V74.508h-.94Z" fill="#373635"/>
        <rect id="長方形_8708" data-name="長方形 8708" width="0.94" height="0.94" transform="translate(208.917 73.568)" fill="#373635"/>
        <rect id="長方形_8709" data-name="長方形 8709" width="0.94" height="0.94" transform="translate(208.917 56.072)" fill="#373635"/>
        <rect id="長方形_8710" data-name="長方形 8710" width="0.94" height="18.437" transform="translate(208.917 37.634)" fill="#373635"/>
        <path id="パス_26915" data-name="パス 26915" d="M208.917,72.627V57.012h.94V73.567h-.94Z" fill="#373635"/>
        <path id="パス_26916" data-name="パス 26916" d="M209.857,117.463H195.1v-.94h13.819V74.507h.94Z" fill="#373635"/>
        <rect id="長方形_8711" data-name="長方形 8711" width="8.729" height="0.94" transform="translate(200.188 72.627)" fill="#373635"/>
        <rect id="長方形_8712" data-name="長方形 8712" width="8.729" height="0.941" transform="translate(200.188 57.011)" fill="#373635"/>
        <path id="パス_26917" data-name="パス 26917" d="M208.917,73.568v.94H122.745v-.94h86.172Z" fill="#373635"/>
        <rect id="長方形_8713" data-name="長方形 8713" width="1.882" height="0.94" transform="translate(198.306 72.627)" fill="#373635"/>
        <rect id="長方形_8714" data-name="長方形 8714" width="1.882" height="14.675" transform="translate(198.306 57.952)" fill="#373635"/>
        <rect id="長方形_8715" data-name="長方形 8715" width="1.882" height="0.941" transform="translate(198.306 57.011)" fill="#373635"/>
        <rect id="長方形_8716" data-name="長方形 8716" width="8.277" height="0.94" transform="translate(190.03 72.627)" fill="#373635"/>
        <rect id="長方形_8717" data-name="長方形 8717" width="8.277" height="0.941" transform="translate(190.03 57.011)" fill="#373635"/>
        <path id="パス_26918" data-name="パス 26918" d="M198.307,57.012h-9.363v-.94h19.973v.94h-10.61Z" fill="#373635"/>
        <rect id="長方形_8718" data-name="長方形 8718" width="1.881" height="0.94" transform="translate(188.148 72.627)" fill="#373635"/>
        <path id="パス_26919" data-name="パス 26919" d="M190.029,57.952V72.628h-1.881V57.952h1.881Z" fill="#373635"/>
        <rect id="長方形_8719" data-name="長方形 8719" width="1.086" height="0.941" transform="translate(188.943 57.011)" fill="#373635"/>
        <rect id="長方形_8720" data-name="長方形 8720" width="0.795" height="0.941" transform="translate(188.149 57.011)" fill="#373635"/>
        <rect id="長方形_8721" data-name="長方形 8721" width="9.219" height="0.94" transform="translate(178.929 72.627)" fill="#373635"/>
        <path id="パス_26920" data-name="パス 26920" d="M188,56.071h.941v.94H188Z" fill="#373635"/>
        <path id="パス_26921" data-name="パス 26921" d="M188.148,57.012v.941h-9.219v-.941h9.219Z" fill="#373635"/>
        <path id="パス_26922" data-name="パス 26922" d="M187.063,40.395h-18.7v-.94H188V56.072h-.94Z" fill="#373635"/>
        <path id="パス_26923" data-name="パス 26923" d="M182.912,85.857H188V92.38h-5.09Zm.942,5.583h3.208V86.8h-3.208Z" fill="#373635"/>
        <path id="パス_26924" data-name="パス 26924" d="M181.972,84.917h6.972v8.4h-6.972Zm.94,7.463H188V85.857h-5.09Z" fill="#373635"/>
        <rect id="長方形_8722" data-name="長方形 8722" width="1.881" height="0.94" transform="translate(177.049 72.627)" fill="#373635"/>
        <rect id="長方形_8723" data-name="長方形 8723" width="1.881" height="14.675" transform="translate(177.049 57.952)" fill="#373635"/>
        <rect id="長方形_8724" data-name="長方形 8724" width="1.881" height="0.941" transform="translate(177.049 57.011)" fill="#373635"/>
        <path id="パス_26925" data-name="パス 26925" d="M193.217,80.278H178.124v36.244h-.94V79.338h16.973v37.184h-.94Z" fill="#373635"/>
        <path id="パス_26926" data-name="パス 26926" d="M176.243,78.4H195.1v38.125h-.941V79.337H177.183v37.185h-.94Z" fill="#373635"/>
        <rect id="長方形_8725" data-name="長方形 8725" width="8.686" height="0.94" transform="translate(168.363 72.627)" fill="#373635"/>
        <rect id="長方形_8726" data-name="長方形 8726" width="8.686" height="0.941" transform="translate(168.363 57.011)" fill="#373635"/>
        <path id="パス_26927" data-name="パス 26927" d="M188,57.012h-19.64v-.94H188Z" fill="#373635"/>
        <rect id="長方形_8727" data-name="長方形 8727" width="1.881" height="0.94" transform="translate(166.482 72.627)" fill="#373635"/>
        <rect id="長方形_8728" data-name="長方形 8728" width="1.881" height="14.675" transform="translate(166.482 57.952)" fill="#373635"/>
        <rect id="長方形_8729" data-name="長方形 8729" width="0.94" height="0.94" transform="translate(167.423 56.072)" fill="#373635"/>
        <rect id="長方形_8730" data-name="長方形 8730" width="0.94" height="15.677" transform="translate(167.423 40.394)" fill="#373635"/>
        <rect id="長方形_8731" data-name="長方形 8731" width="0.94" height="0.94" transform="translate(167.423 39.455)" fill="#373635"/>
        <path id="パス_26928" data-name="パス 26928" d="M168.363,57.012v.941h-1.881v-.941h1.881Z" fill="#373635"/>
        <rect id="長方形_8732" data-name="長方形 8732" width="0.94" height="0.94" transform="translate(166.483 56.072)" fill="#373635"/>
        <rect id="長方形_8733" data-name="長方形 8733" width="0.94" height="15.677" transform="translate(166.483 40.394)" fill="#373635"/>
        <rect id="長方形_8734" data-name="長方形 8734" width="0.94" height="0.94" transform="translate(166.483 39.455)" fill="#373635"/>
        <rect id="長方形_8735" data-name="長方形 8735" width="9.374" height="0.94" transform="translate(157.108 72.627)" fill="#373635"/>
        <rect id="長方形_8736" data-name="長方形 8736" width="9.374" height="0.941" transform="translate(157.108 57.011)" fill="#373635"/>
        <path id="パス_26929" data-name="パス 26929" d="M162.754,81.342v35.18h-.94V82.282H147.145v-.94Z" fill="#373635"/>
        <rect id="長方形_8737" data-name="長方形 8737" width="1.882" height="0.94" transform="translate(155.226 72.627)" fill="#373635"/>
        <rect id="長方形_8738" data-name="長方形 8738" width="1.882" height="14.675" transform="translate(155.226 57.952)" fill="#373635"/>
        <rect id="長方形_8739" data-name="長方形 8739" width="1.882" height="0.941" transform="translate(155.226 57.011)" fill="#373635"/>
        <rect id="長方形_8740" data-name="長方形 8740" width="9.406" height="0.94" transform="translate(145.82 72.627)" fill="#373635"/>
        <path id="パス_26930" data-name="パス 26930" d="M146.842,56.071V39.454h19.64v.94h-18.7V56.071Z" fill="#373635"/>
        <path id="パス_26931" data-name="パス 26931" d="M146.842,57.012v-.94h19.64v.94h-19.64Z" fill="#373635"/>
        <rect id="長方形_8741" data-name="長方形 8741" width="0.94" height="34.24" transform="translate(146.205 82.282)" fill="#373635"/>
        <rect id="長方形_8742" data-name="長方形 8742" width="0.94" height="0.94" transform="translate(146.205 81.342)" fill="#373635"/>
        <rect id="長方形_8743" data-name="長方形 8743" width="0.942" height="0.94" transform="translate(145.9 56.072)" fill="#373635"/>
        <path id="パス_26932" data-name="パス 26932" d="M145.9,38.514h43.043V56.071H188V39.454h-41.16V56.071H145.9Z" fill="#373635"/>
        <path id="パス_26933" data-name="パス 26933" d="M146.842,57.012h8.384v.941H145.9v-.941Z" fill="#373635"/>
        <rect id="長方形_8744" data-name="長方形 8744" width="0.94" height="34.24" transform="translate(145.265 82.282)" fill="#373635"/>
        <rect id="長方形_8745" data-name="長方形 8745" width="0.94" height="0.94" transform="translate(145.265 81.342)" fill="#373635"/>
        <rect id="長方形_8746" data-name="長方形 8746" width="0.08" height="0.941" transform="translate(145.821 57.011)" fill="#373635"/>
        <rect id="長方形_8747" data-name="長方形 8747" width="1.882" height="0.94" transform="translate(143.939 72.627)" fill="#373635"/>
        <rect id="長方形_8748" data-name="長方形 8748" width="1.882" height="14.675" transform="translate(143.939 57.952)" fill="#373635"/>
        <rect id="長方形_8749" data-name="長方形 8749" width="1.882" height="0.941" transform="translate(143.939 57.011)" fill="#373635"/>
        <rect id="長方形_8750" data-name="長方形 8750" width="9.406" height="0.94" transform="translate(134.533 72.627)" fill="#373635"/>
        <rect id="長方形_8751" data-name="長方形 8751" width="9.406" height="0.941" transform="translate(134.533 57.011)" fill="#373635"/>
        <rect id="長方形_8752" data-name="長方形 8752" width="1.881" height="0.94" transform="translate(132.652 72.627)" fill="#373635"/>
        <rect id="長方形_8753" data-name="長方形 8753" width="1.881" height="14.675" transform="translate(132.652 57.952)" fill="#373635"/>
        <rect id="長方形_8754" data-name="長方形 8754" width="1.881" height="0.941" transform="translate(132.652 57.011)" fill="#373635"/>
        <rect id="長方形_8755" data-name="長方形 8755" width="9.907" height="0.94" transform="translate(122.745 72.627)" fill="#373635"/>
        <rect id="長方形_8756" data-name="長方形 8756" width="9.907" height="0.941" transform="translate(122.745 57.011)" fill="#373635"/>
        <path id="パス_26934" data-name="パス 26934" d="M132.652,57.012h-9.907v-.94H145.9v.94H132.652Z" fill="#373635"/>
        <path id="パス_26935" data-name="パス 26935" d="M129.655,116.522V81.342h15.609v.94H130.6v34.24Z" fill="#373635"/>
        <path id="パス_26936" data-name="パス 26936" d="M128.714,80.4h34.98v36.121h-.94V81.341h-33.1v35.181h-.941Z" fill="#373635"/>
        <path id="パス_26937" data-name="パス 26937" d="M122.745,116.522v.94h-.94V74.508h.94Z" fill="#373635"/>
        <rect id="長方形_8757" data-name="長方形 8757" width="0.94" height="0.94" transform="translate(121.805 56.072)" fill="#373635"/>
        <path id="パス_26938" data-name="パス 26938" d="M122.745,6.783v28.97h-.94V6.936l.607-.533Z" fill="#373635"/>
        <rect id="長方形_8758" data-name="長方形 8758" width="0.94" height="0.94" transform="translate(121.805 72.627)" fill="#373635"/>
        <path id="パス_26939" data-name="パス 26939" d="M122.745,35.754H210.8v.94H121.805v-.94Z" fill="#373635"/>
        <path id="パス_26940" data-name="パス 26940" d="M121.8,36.694h88.052v.94H121.8Z" fill="#373635"/>
        <rect id="長方形_8759" data-name="長方形 8759" width="0.94" height="18.437" transform="translate(121.805 37.634)" fill="#373635"/>
        <path id="パス_26941" data-name="パス 26941" d="M122.745,57.952V72.628h-.94V57.012h.94Z" fill="#373635"/>
        <rect id="長方形_8760" data-name="長方形 8760" width="0.94" height="0.94" transform="translate(121.805 73.567)" fill="#373635"/>
        <rect id="長方形_8761" data-name="長方形 8761" width="0.94" height="18.437" transform="translate(120.865 37.634)" fill="#373635"/>
        <path id="パス_26942" data-name="パス 26942" d="M121.8,6.936V35.753h-.94V7.761Z" fill="#373635"/>
        <rect id="長方形_8762" data-name="長方形 8762" width="0.94" height="0.94" transform="translate(120.864 73.567)" fill="#373635"/>
        <path id="パス_26943" data-name="パス 26943" d="M120.864,37.635V35.754h.94v1.881Z" fill="#373635"/>
        <rect id="長方形_8763" data-name="長方形 8763" width="0.94" height="0.94" transform="translate(120.864 56.071)" fill="#373635"/>
        <path id="パス_26944" data-name="パス 26944" d="M120.864,57.012h.94V72.627h-.94V57.012Z" fill="#373635"/>
        <rect id="長方形_8764" data-name="長方形 8764" width="0.94" height="0.94" transform="translate(120.864 72.627)" fill="#373635"/>
        <path id="パス_26945" data-name="パス 26945" d="M120.864,116.522V74.508h.94v42.954h-.94Z" fill="#373635"/>
        <rect id="長方形_8765" data-name="長方形 8765" width="5.644" height="0.941" transform="translate(115.22 57.011)" fill="#373635"/>
        <rect id="長方形_8766" data-name="長方形 8766" width="5.644" height="0.94" transform="translate(115.22 56.072)" fill="#373635"/>
        <path id="パス_26946" data-name="パス 26946" d="M120.864,6.508V7.761L82.145,41.676v-.424l-.94,0Z" fill="#373635"/>
        <path id="パス_26947" data-name="パス 26947" d="M120.864,5.259V6.508L81.205,41.25l-.941,0-.209-.239Z" fill="#373635"/>
        <rect id="長方形_8767" data-name="長方形 8767" width="0.941" height="0.94" transform="translate(114.28 56.072)" fill="#373635"/>
        <path id="パス_26948" data-name="パス 26948" d="M113.339,40.395H92.393V56.072h-.941V39.455h22.827V56.072h-.94Z" fill="#373635"/>
        <path id="パス_26949" data-name="パス 26949" d="M92.393,56.071H114.28v.94H91.453v-.94Z" fill="#373635"/>
        <rect id="長方形_8768" data-name="長方形 8768" width="0.94" height="0.94" transform="translate(90.513 56.072)" fill="#373635"/>
        <path id="パス_26950" data-name="パス 26950" d="M90.512,38.514H115.22V56.071h-.94V39.454H91.452V56.071h-.94Z" fill="#373635"/>
        <path id="パス_26951" data-name="パス 26951" d="M91.453,57.012h23.768v.941H90.513v-.941Z" fill="#373635"/>
        <rect id="長方形_8769" data-name="長方形 8769" width="8.4" height="0.94" transform="translate(82.113 56.071)" fill="#373635"/>
        <path id="パス_26952" data-name="パス 26952" d="M110.077,83.788H88.066v32.734h-.94V82.846h23.891v33.676h-.94Z" fill="#373635"/>
        <path id="パス_26953" data-name="パス 26953" d="M86.185,81.906h25.772v34.616h-.94V82.846H87.125v33.676h-.94Z" fill="#373635"/>
        <path id="パス_26954" data-name="パス 26954" d="M82.146,41.252v.424l-.943.829,0-1.255Z" fill="#373635"/>
        <path id="パス_26955" data-name="パス 26955" d="M81.2,42.505l.943-.829-.032,14.4h-.941Z" fill="#373635"/>
        <path id="パス_26956" data-name="パス 26956" d="M82.114,56.071l0,.94h-.94l0-.94Z" fill="#373635"/>
        <path id="パス_26957" data-name="パス 26957" d="M82.111,57.012v0l-.941,0Z" fill="#373635"/>
        <path id="パス_26958" data-name="パス 26958" d="M81.205,41.25l0,1.255-.943.825,0-1.255Z" fill="#373635"/>
        <path id="パス_26959" data-name="パス 26959" d="M81.205,41.25l-.943.825,0-.828Z" fill="#373635"/>
        <path id="パス_26960" data-name="パス 26960" d="M81.2,42.505l-.03,13.566h-.94l.027-12.741Z" fill="#373635"/>
        <rect id="長方形_8770" data-name="長方形 8770" width="0.939" height="0.94" transform="translate(80.229 57.009) rotate(-89.817)" fill="#373635"/>
        <path id="パス_26961" data-name="パス 26961" d="M74.9,73.568h45.967v.94H74.9Z" fill="#373635"/>
        <path id="パス_26962" data-name="パス 26962" d="M75.839,116.522H86.186v.94H74.9V74.508h.941Z" fill="#373635"/>
        <path id="パス_26963" data-name="パス 26963" d="M78,42.8l2.05-1.8.21.239,0,.827L77.916,44.13l-3.47-3.963,44.341-38.84L121.918,4.9h-1.054V5.13L118.7,2.655l-42.924,37.6Z" fill="#373635"/>
        <path id="パス_26964" data-name="パス 26964" d="M74.9,117.463H86.186v.94H73.957v-43.9H74.9Z" fill="#373635"/>
        <path id="パス_26965" data-name="パス 26965" d="M73.957,72.627h46.907v.94H73.957Z" fill="#373635"/>
        <rect id="長方形_8771" data-name="長方形 8771" width="0.941" height="0.94" transform="translate(73.957 73.568)" fill="#373635"/>
        <path id="パス_26966" data-name="パス 26966" d="M77.83,45.459l-4.712-5.378L118.873,0l4.294,4.9h-1.249l-3.131-3.575L74.446,40.167l3.47,3.963,2.346-2.056,0,1.256Z" fill="#373635"/>
        <path id="パス_26967" data-name="パス 26967" d="M72.076,72.627h1.881v.94H71.136V57.012H81.17l.941,0v0h8.4v.94H72.076Z" fill="#373635"/>
        <path id="パス_26968" data-name="パス 26968" d="M71.136,73.568h2.821v.94H70.195V56.072H80.232l0,.938.941,0H71.136Z" fill="#373635"/>
      </g>
    </g>
  </g>
</svg>
