<svg xmlns="http://www.w3.org/2000/svg" width="51.998" height="28.992" viewBox="0 0 51.998 28.992">
  <path id="パス_20617" data-name="パス 20617" d="M-18658.281-19661.428a35.629,35.629,0,0,1-8.871-1.127,2.994,2.994,0,0,1-2.074-3.691,3,3,0,0,1,3.7-2.082c.094.027,9.445,2.563,15.621-.953a10.26,10.26,0,0,0,4.885-6.619c1.859-6.863,5.193-11.363,9.91-13.379,6.289-2.687,12.855-.023,16.209,1.8a3,3,0,0,1,1.2,4.066,3,3,0,0,1-4.068,1.2c-1.936-1.053-6.879-3.3-10.984-1.557-2.941,1.258-5.121,4.432-6.477,9.434a16.177,16.177,0,0,1-7.734,10.277A23.036,23.036,0,0,1-18658.281-19661.428Z" transform="translate(18669.338 19690.42)" fill="#d3b493"/>
</svg>
