<svg xmlns="http://www.w3.org/2000/svg" width="103" height="80" viewBox="0 0 103 80">
  <g id="グループ_14046" data-name="グループ 14046" transform="translate(-120 -4428)">
    <g id="グループ_14045" data-name="グループ 14045" transform="translate(120 4428)">
      <ellipse id="楕円形_1" data-name="楕円形 1" cx="10.551" cy="15.826" rx="10.551" ry="15.826" transform="translate(53.55 0)" fill="#db7d2d"/>
      <ellipse id="楕円形_3" data-name="楕円形 3" cx="10.594" cy="13.419" rx="10.594" ry="13.419" transform="translate(82.354 15.601) rotate(13)" fill="#db7d2d"/>
      <ellipse id="楕円形_4" data-name="楕円形 4" cx="10.594" cy="13.42" rx="10.594" ry="13.42" transform="translate(26.683 41.753) rotate(167)" fill="#db7d2d"/>
      <ellipse id="楕円形_2" data-name="楕円形 2" cx="11.87" cy="15.826" rx="11.87" ry="15.826" transform="translate(25.183 0)" fill="#db7d2d"/>
      <path id="合体_2" data-name="合体 2" d="M0,29.293c0-7.288,5.929-13.7,14.906-17.422a19.681,19.681,0,0,1,36.13,0c8.977,3.72,14.906,10.134,14.906,17.422,0,11.5-14.762,20.823-32.971,20.823S0,40.794,0,29.293Z" transform="translate(19.506 29.884)" fill="#db7d2d"/>
    </g>
    <path id="パス_109576" data-name="パス 109576" d="M7.08.336A5.063,5.063,0,0,1,3.9-.708a6.638,6.638,0,0,1-2.1-3.06,14.363,14.363,0,0,1-.744-4.944A14.134,14.134,0,0,1,1.8-13.644a6.4,6.4,0,0,1,2.1-2.988A5.184,5.184,0,0,1,7.08-17.64a5.184,5.184,0,0,1,3.18,1.008,6.4,6.4,0,0,1,2.1,2.988A14.134,14.134,0,0,1,13.1-8.712a14.363,14.363,0,0,1-.744,4.944,6.638,6.638,0,0,1-2.1,3.06A5.063,5.063,0,0,1,7.08.336Zm0-2.76a1.97,1.97,0,0,0,1.392-.564,3.928,3.928,0,0,0,.936-1.944,16.712,16.712,0,0,0,.336-3.78,16.356,16.356,0,0,0-.336-3.768,3.644,3.644,0,0,0-.936-1.872A2.043,2.043,0,0,0,7.08-14.88a2.027,2.027,0,0,0-1.356.528,3.711,3.711,0,0,0-.972,1.872,15.3,15.3,0,0,0-.36,3.768,15.635,15.635,0,0,0,.36,3.78,4,4,0,0,0,.972,1.944A1.957,1.957,0,0,0,7.08-2.424ZM16.128,0V-2.88h3.84V-13.608h-3.24v-2.208a15.132,15.132,0,0,0,2.316-.624,10.808,10.808,0,0,0,1.812-.864h2.616V-2.88h3.336V0Z" transform="translate(158 4493)" fill="#fff"/>
  </g>
</svg>
