<svg xmlns="http://www.w3.org/2000/svg" width="103" height="80" viewBox="0 0 103 80">
  <g id="グループ_14065" data-name="グループ 14065" transform="translate(-120 -4428)">
    <g id="グループ_14045" data-name="グループ 14045" transform="translate(120 4428)">
      <ellipse id="楕円形_1" data-name="楕円形 1" cx="10.551" cy="15.826" rx="10.551" ry="15.826" transform="translate(53.55 0)" fill="#db7d2d"/>
      <ellipse id="楕円形_3" data-name="楕円形 3" cx="10.594" cy="13.419" rx="10.594" ry="13.419" transform="translate(82.354 15.601) rotate(13)" fill="#db7d2d"/>
      <ellipse id="楕円形_4" data-name="楕円形 4" cx="10.594" cy="13.42" rx="10.594" ry="13.42" transform="translate(26.683 41.753) rotate(167)" fill="#db7d2d"/>
      <ellipse id="楕円形_2" data-name="楕円形 2" cx="11.87" cy="15.826" rx="11.87" ry="15.826" transform="translate(25.183 0)" fill="#db7d2d"/>
      <path id="合体_2" data-name="合体 2" d="M0,29.293c0-7.288,5.929-13.7,14.906-17.422a19.681,19.681,0,0,1,36.13,0c8.977,3.72,14.906,10.134,14.906,17.422,0,11.5-14.762,20.823-32.971,20.823S0,40.794,0,29.293Z" transform="translate(19.506 29.884)" fill="#db7d2d"/>
    </g>
    <path id="パス_109578" data-name="パス 109578" d="M7.08.336A5.063,5.063,0,0,1,3.9-.708a6.638,6.638,0,0,1-2.1-3.06,14.363,14.363,0,0,1-.744-4.944A14.134,14.134,0,0,1,1.8-13.644a6.4,6.4,0,0,1,2.1-2.988A5.184,5.184,0,0,1,7.08-17.64a5.184,5.184,0,0,1,3.18,1.008,6.4,6.4,0,0,1,2.1,2.988A14.134,14.134,0,0,1,13.1-8.712a14.363,14.363,0,0,1-.744,4.944,6.638,6.638,0,0,1-2.1,3.06A5.063,5.063,0,0,1,7.08.336Zm0-2.76a1.97,1.97,0,0,0,1.392-.564,3.928,3.928,0,0,0,.936-1.944,16.712,16.712,0,0,0,.336-3.78,16.356,16.356,0,0,0-.336-3.768,3.644,3.644,0,0,0-.936-1.872A2.043,2.043,0,0,0,7.08-14.88a2.027,2.027,0,0,0-1.356.528,3.711,3.711,0,0,0-.972,1.872,15.3,15.3,0,0,0-.36,3.768,15.635,15.635,0,0,0,.36,3.78,4,4,0,0,0,.972,1.944A1.957,1.957,0,0,0,7.08-2.424ZM20.712.336a8.863,8.863,0,0,1-2.5-.324A7.183,7.183,0,0,1,16.26-.876a7.607,7.607,0,0,1-1.476-1.26L16.44-4.368a9.47,9.47,0,0,0,1.788,1.284,4.4,4.4,0,0,0,2.172.54A4.247,4.247,0,0,0,22-2.82a2.307,2.307,0,0,0,1.056-.8A2.152,2.152,0,0,0,23.424-4.9,2.5,2.5,0,0,0,23-6.348a2.659,2.659,0,0,0-1.476-.936,10.631,10.631,0,0,0-2.976-.324v-2.544a7.851,7.851,0,0,0,2.568-.336,2.63,2.63,0,0,0,1.332-.912,2.274,2.274,0,0,0,.4-1.32,2,2,0,0,0-.624-1.584,2.556,2.556,0,0,0-1.752-.552,3.7,3.7,0,0,0-1.74.42,7.276,7.276,0,0,0-1.6,1.164l-1.824-2.16a10.718,10.718,0,0,1,2.472-1.608,6.715,6.715,0,0,1,2.856-.6,7.842,7.842,0,0,1,3.012.54,4.453,4.453,0,0,1,2.028,1.584,4.35,4.35,0,0,1,.72,2.532,3.7,3.7,0,0,1-.768,2.364,5.207,5.207,0,0,1-2.184,1.548v.12a5.481,5.481,0,0,1,1.788.84,4.263,4.263,0,0,1,1.272,1.428,4.1,4.1,0,0,1,.468,2,4.37,4.37,0,0,1-.852,2.712,5.329,5.329,0,0,1-2.28,1.716A8.148,8.148,0,0,1,20.712.336Z" transform="translate(158 4493)" fill="#fff"/>
  </g>
</svg>
