<svg xmlns="http://www.w3.org/2000/svg" xmlns:xlink="http://www.w3.org/1999/xlink" width="51.998" height="29" viewBox="0 0 51.998 29">
  <defs>
    <clipPath id="clip-path">
      <path id="パス_20617" data-name="パス 20617" d="M-18658.281-19661.428a35.629,35.629,0,0,1-8.871-1.127,2.994,2.994,0,0,1-2.074-3.691,3,3,0,0,1,3.7-2.082c.094.027,9.445,2.563,15.621-.953a10.26,10.26,0,0,0,4.885-6.619c1.859-6.863,5.193-11.363,9.91-13.379,6.289-2.687,12.855-.023,16.209,1.8a3,3,0,0,1,1.2,4.066,3,3,0,0,1-4.068,1.2c-1.936-1.053-6.879-3.3-10.984-1.557-2.941,1.258-5.121,4.432-6.477,9.434a16.177,16.177,0,0,1-7.734,10.277A23.036,23.036,0,0,1-18658.281-19661.428Z" transform="translate(18669.338 19690.42)" fill="#d3b493"/>
    </clipPath>
  </defs>
  <g id="グループ_14079" data-name="グループ 14079" transform="translate(-776 -4082.992)">
    <path id="パス_20617-5" data-name="パス 20617" d="M-18658.281-19661.428a35.629,35.629,0,0,1-8.871-1.127,2.994,2.994,0,0,1-2.074-3.691,3,3,0,0,1,3.7-2.082c.094.027,9.445,2.563,15.621-.953a10.26,10.26,0,0,0,4.885-6.619c1.859-6.863,5.193-11.363,9.91-13.379,6.289-2.687,12.855-.023,16.209,1.8a3,3,0,0,1,1.2,4.066,3,3,0,0,1-4.068,1.2c-1.936-1.053-6.879-3.3-10.984-1.557-2.941,1.258-5.121,4.432-6.477,9.434a16.177,16.177,0,0,1-7.734,10.277A23.036,23.036,0,0,1-18658.281-19661.428Z" transform="translate(19445.338 23773.412)" fill="#d3b493"/>
    <g id="マスクグループ_62" data-name="マスクグループ 62" transform="translate(776 4082.992)" clip-path="url(#clip-path)">
      <path id="パス_20617-6" data-name="パス 20617" d="M-18662.578-19659.354a4.507,4.507,0,0,0,1.174-5.268c-1.348-3.291,6.854.166,5.244,4.359S-18662.578-19659.354-18662.578-19659.354Z" transform="translate(18670 19690.715)" fill="#956237"/>
    </g>
    <g id="マスクグループ_63" data-name="マスクグループ 63" transform="translate(776 4083)" clip-path="url(#clip-path)">
      <path id="パス_20618" data-name="パス 20618" d="M-18662.578-19664.094s2.744,2.834,1.174,5.268,6.854-.166,5.244-4.359S-18662.578-19664.094-18662.578-19664.094Z" transform="translate(18675 19682.719)" fill="#956237"/>
    </g>
    <g id="マスクグループ_64" data-name="マスクグループ 64" transform="translate(776 4082.992)" clip-path="url(#clip-path)">
      <path id="パス_20619" data-name="パス 20619" d="M0,6.68S1.662,4.934,1.172,1.41s6.852.168,5.244,4.363S0,6.68,0,6.68Z" transform="translate(18.489 26.032) rotate(-68)" fill="#956237"/>
    </g>
    <g id="マスクグループ_65" data-name="マスクグループ 65" transform="translate(776 4082.992)" clip-path="url(#clip-path)">
      <path id="パス_20620" data-name="パス 20620" d="M.734,1.225s-2.268,6.641,1.172,5.27S8.758,6.33,7.148,2.133.734,1.225.734,1.225Z" transform="translate(20.151 17.88) rotate(-74)" fill="#956237"/>
    </g>
  </g>
</svg>
